<svg version="1.1" id="Layer_1" xmlns="http://www.w3.org/2000/svg" x="0" y="0" viewBox="0 0 100 100" xml:space="preserve"><style>.st0{fill:#272530}</style><path class="st0" d="M72.9 44.5c-7.7 0-8.8 7.7-8.8 7.7h16.3s.1-7.7-7.5-7.7zm-37.1 7.7H21.3v13.3h13.8c2.1-.1 5.9-.7 5.9-6.5 0-6.9-5.2-6.8-5.2-6.8zm3.5-13.6c0-5.2-3.5-5.2-3.5-5.2H21.3v11.1h13.6c2.3 0 4.4-.7 4.4-5.9z"/><path class="st0" d="M94.1.7H5.9C3 .7.7 3 .7 5.9v88.2c0 2.9 2.4 5.2 5.2 5.2h88.2c2.9 0 5.2-2.3 5.2-5.2V5.9C99.3 3 97 .7 94.1.7zM62 27.5h20.5v6.1H62v-6.1zM51.6 59.7c0 15.2-15.8 14.7-15.8 14.7H9.9V24.6h25.9c7.9 0 14.1 4.3 14.1 13.2 0 8.9-7.6 9.5-7.6 9.5 10 0 9.3 12.4 9.3 12.4zm38.4-.8H64.2c0 9.2 8.8 8.7 8.8 8.7 8.3 0 8-5.4 8-5.4h8.8c0 14.2-17 13.2-17 13.2-20.4 0-19.1-19-19.1-19s0-19.1 19.1-19.1c20 0 17.2 21.6 17.2 21.6z"/></svg>