<svg version="1.1" id="Layer_1" xmlns="http://www.w3.org/2000/svg" x="0" y="0" viewBox="0 0 500 353.5" xml:space="preserve"><style>.st0{fill:#989898}.st1{fill:#999898}.st2{fill:#999899}</style><path class="st0" d="M165.8 26.4c.8.4 1.6.9 2 1.7.6 1.2.2 2.6-1 3.5-1 .8-2.5.8-3.5-.1-1.6-1.3-1.6-3.2 0-4.5.3-.3.7-.5 1.1-.7.5.1 1 .1 1.4.1zm17.9 0c.8.4 1.6.9 2 1.7.6 1.2.2 2.6-1 3.5-1 .8-2.5.8-3.5-.1-1.6-1.3-1.6-3.2 0-4.5.3-.3.7-.5 1.1-.7.5.1.9.1 1.4.1zm314.9 253.8c-.5 1-1 1.9-2.2 2.1-1.2.3-2.4-.2-3.1-1.3-.6-1-.6-2.4.1-3.3 1.4-1.8 3.8-1.5 4.9.5.1.1.1.3.3.4v1.6zM174.9 26.4c.2.3.6.4 1 .6 1 .8 1.4 2 1 3.2-.4 1.1-1.7 2-2.8 2-1.2 0-2.3-.9-2.7-2-.4-1.1 0-2.4 1-3.2.3-.2.7-.3 1-.6h1.5zm258.4 53.7c1.5 0 2.9 1.5 2.9 2.9 0 1.5-1.5 3-3 2.9-1.5-.1-2.9-1.5-2.9-3s1.4-2.9 3-2.8z"/><path class="st1" d="M379.6 133.7c1.5 0 3 1.5 2.9 3 0 1.5-1.5 2.9-3 2.9s-2.9-1.4-2.9-2.9c0-1.6 1.4-3 3-3z"/><path class="st0" d="M451 80.1c1.5 0 3 1.5 3 3s-1.5 2.9-2.9 2.9c-1.5 0-2.9-1.4-3-2.9 0-1.5 1.4-3 2.9-3zm35.8 17.8c1.5 0 2.9 1.4 2.9 2.9s-1.5 3-3 3-2.9-1.5-2.9-2.9c.1-1.6 1.5-3 3-3z"/><path class="st1" d="M397.5 97.9c1.5 0 2.9 1.5 2.9 2.9 0 1.5-1.5 3-3 2.9-1.5-.1-2.9-1.5-2.9-2.9 0-1.5 1.5-2.9 3-2.9z"/><path class="st0" d="M469 97.9c1.5 0 3 1.5 2.9 3 0 1.5-1.5 2.9-3 2.9s-2.9-1.4-2.9-2.9 1.4-3 3-3z"/><path class="st1" d="M415.4 97.9c1.5 0 2.9 1.4 2.9 2.9s-1.5 3-3 3-2.9-1.5-2.9-2.9c0-1.6 1.4-3 3-3zm35.7 0c1.5 0 3 1.5 2.9 3-.1 1.5-1.5 2.9-3 2.9s-2.9-1.4-2.9-2.9 1.4-3 3-3zm-68.6 56.6c0 1.5-1.5 2.9-2.9 2.9-1.5 0-3-1.5-2.9-3 0-1.5 1.5-2.9 3.1-2.9 1.4.1 2.7 1.6 2.7 3zm14.9-3c1.5 0 3 1.5 3 3s-1.5 2.9-2.9 2.9c-1.5 0-2.9-1.4-2.9-2.9-.1-1.5 1.3-3 2.8-3z"/><path class="st2" d="M433.2 133.7c1.5 0 3 1.4 3 3 0 1.5-1.5 2.9-2.9 2.9-1.5 0-2.9-1.4-3-2.9-.1-1.5 1.3-3 2.9-3z"/><path class="st0" d="M379.6 62.2c1.5 0 3 1.5 3 3s-1.5 2.9-2.9 2.9c-1.5 0-2.9-1.4-3-2.9-.1-1.5 1.3-3 2.9-3z"/><path class="st1" d="M415.3 151.5c1.5 0 2.9 1.4 2.9 2.9s-1.5 3-3 3-2.9-1.4-2.9-2.9c.1-1.5 1.5-3 3-3z"/><path class="st0" d="M397.5 62.2c1.5 0 3 1.5 2.9 3-.1 1.5-1.5 2.9-3 2.8-1.5 0-2.9-1.4-2.9-2.9s1.4-2.9 3-2.9z"/><path class="st1" d="M415.4 133.7c1.5 0 2.9 1.4 2.9 2.9s-1.5 3-3 3-2.9-1.5-2.9-2.9c0-1.6 1.4-3.1 3-3z"/><path class="st0" d="M469 115.8c1.5 0 2.9 1.5 2.9 2.9 0 1.5-1.5 3-3 2.9-1.5-.1-2.9-1.5-2.9-2.9 0-1.5 1.5-2.9 3-2.9z"/><path class="st1" d="M451 115.8c1.5 0 3 1.4 3 3 0 1.5-1.5 2.9-2.9 2.9-1.5 0-2.9-1.4-3-2.9 0-1.5 1.4-3 2.9-3z"/><path class="st0" d="M397.5 211c-1.5 0-2.9-1.3-3-2.8-.1-1.5 1.3-3 2.9-3.1 1.5 0 3 1.4 3 2.9s-1.4 3-2.9 3z"/><path class="st2" d="M433.2 115.8c1.5 0 3 1.5 3 3s-1.5 2.9-2.9 2.9c-1.5 0-2.9-1.4-3-2.9-.1-1.5 1.3-3 2.9-3z"/><path class="st0" d="M418.3 118.7c0 1.5-1.4 2.9-2.9 3-1.5.1-3-1.4-3-2.9s1.4-2.9 2.8-3c1.5 0 3 1.4 3.1 2.9zm-17.9 0c0 1.5-1.4 2.9-2.9 3-1.5.1-3-1.4-3-2.9s1.4-2.9 2.9-2.9c1.5-.1 3 1.3 3 2.8zm14.9 68.6c1.5 0 3 1.4 3 3 0 1.5-1.4 2.9-2.9 2.9s-2.9-1.4-3-2.8c-.1-1.6 1.3-3.1 2.9-3.1z"/><path class="st1" d="M379.6 115.8c1.5 0 2.9 1.4 2.9 2.9s-1.5 3-3 3-2.9-1.5-2.9-2.9c0-1.6 1.5-3 3-3zm0-17.9c1.5 0 3 1.5 2.9 3 0 1.5-1.5 2.9-3 2.9s-2.9-1.4-2.9-2.9 1.5-3 3-3z"/><path class="st0" d="M433.3 157.4c-1.5 0-2.9-1.3-3-2.8-.1-1.5 1.3-3 2.9-3.1 1.5 0 3 1.4 3 2.9-.1 1.5-1.5 3-2.9 3zm-32.9 32.8c0 1.5-1.4 2.9-2.8 3-1.5.1-3-1.4-3-2.9s1.4-2.9 2.8-3c1.5-.1 3 1.3 3 2.9z"/><path class="st1" d="M451.1 151.5c1.5 0 2.9 1.4 2.9 2.9s-1.5 3-3 3-2.9-1.5-2.9-2.9c0-1.5 1.5-3 3-3z"/><path class="st2" d="M436.1 100.9c0 1.5-1.4 2.9-2.9 2.9s-3-1.5-3-3 1.4-2.9 2.9-2.9c1.6 0 3 1.5 3 3z"/><path class="st1" d="M379.6 80.1c1.5 0 2.9 1.4 2.9 2.9s-1.5 3-3 3-2.9-1.5-2.9-2.9c0-1.6 1.5-3.1 3-3zm0 89.3c1.5 0 2.9 1.5 2.9 2.9 0 1.5-1.5 3-3 2.9-1.5-.1-2.9-1.5-2.9-2.9 0-1.5 1.5-2.9 3-2.9z"/><path class="st0" d="M397.5 80.1c1.5 0 2.9 1.5 2.9 2.9 0 1.5-1.5 3-3 2.9-1.5-.1-2.9-1.5-2.9-2.9 0-1.5 1.5-3 3-2.9zm2.9 92.3c0 1.5-1.5 2.9-3 2.9s-3-1.5-2.9-3c.1-1.5 1.5-2.9 3.1-2.9 1.4.1 2.8 1.5 2.8 3zm14.9-92.3c1.5 0 3 1.5 2.9 3-.1 1.5-1.5 2.9-3 2.9s-2.9-1.4-2.9-2.9c.1-1.6 1.5-3.1 3-3zm-17.9 53.6c1.5 0 3 1.4 3 3 0 1.5-1.4 2.9-2.9 2.9s-2.9-1.4-3-2.8c0-1.6 1.4-3.1 2.9-3.1zm-6 56.5c0 1.5-1.3 3-2.8 3-1.5 0-3-1.5-2.9-3 .1-1.6 1.4-2.9 2.9-2.9s2.8 1.3 2.8 2.9zM165.2 97.9c1.5 0 2.9 1.5 2.9 2.9 0 1.5-1.5 3-3 2.9-1.5-.1-2.9-1.6-2.8-3 0-1.4 1.4-2.8 2.9-2.8zm89.4 0c1.5.1 2.9 1.5 2.8 3 0 1.5-1.5 2.9-3 2.9s-2.9-1.5-2.9-2.9c.1-1.6 1.6-3 3.1-3zm214.3 160.9c1.5 0 3 1.5 2.9 3 0 1.5-1.5 2.9-2.9 2.9-1.5 0-2.9-1.4-2.9-2.9-.1-1.6 1.4-3 2.9-3zm0-35.8c1.5 0 2.9 1.4 2.9 2.9s-1.5 3-3 3-2.9-1.4-2.9-2.9c.1-1.5 1.5-3 3-3zM275.3 100.9c0 1.5-1.5 2.9-3 2.9s-2.9-1.5-2.9-2.9c0-1.5 1.5-3 3-2.9 1.5 0 2.9 1.5 2.9 2.9zm17.9-.1c0 1.5-1.4 2.9-2.9 3-1.4.1-3-1.4-3-2.9-.1-1.5 1.4-3 3-3 1.4 0 2.8 1.5 2.9 2.9zm157.9 158c1.5 0 2.9 1.4 2.9 2.9s-1.5 3-3 3-2.9-1.4-2.9-2.9c0-1.6 1.4-3 3-3zM308.2 97.9c1.5 0 2.9 1.5 2.9 3s-1.5 2.9-3 2.9-2.9-1.5-2.9-2.9c0-1.6 1.5-3 3-3zM415.4 223c1.5 0 2.9 1.4 2.9 2.9s-1.5 3-3 3-2.9-1.5-2.9-2.9c0-1.6 1.4-3 3-3zM147.2 50.2c-1.5 0-2.9-1.5-2.9-3s1.5-3 3.1-2.9c1.5.1 2.9 1.6 2.8 3 0 1.5-1.5 2.9-3 2.9zm286 208.6c1.5 0 2.9 1.4 2.9 2.9s-1.5 3-3 3-2.9-1.4-2.9-2.9c0-1.6 1.5-3.1 3-3zM168.1 47.3c0 1.5-1.5 2.9-3 2.9s-2.9-1.5-2.9-2.9c0-1.5 1.5-3 3-2.9 1.5 0 2.9 1.4 2.9 2.9zm157.8 56.5c-1.5 0-2.9-1.5-2.9-3s1.5-3 3.1-2.9c1.5.1 2.9 1.6 2.8 3 0 1.5-1.5 2.9-3 2.9zM186 47.2c0 1.5-1.4 2.9-2.9 3-1.4.1-3-1.4-3-2.8-.1-1.5 1.4-3 2.9-3 1.5-.1 2.9 1.3 3 2.8zm232.3 214.5c0 1.5-1.5 2.9-2.9 2.9-1.5 0-3-1.5-2.9-3 0-1.5 1.5-2.9 3.1-2.9 1.3.1 2.7 1.6 2.7 3zm-32.7-89.4c0-1.6 1.3-2.9 2.9-2.9 1.5 0 2.9 1.4 2.9 2.9s-1.3 3-2.8 3c-1.6 0-3.2-1.5-3-3zm-20.9-71.4c0 1.5-1.4 2.9-2.9 2.9-1.4 0-2.9-1.4-3-2.9 0-1.5 1.5-3 3-3 1.4.1 2.9 1.5 2.9 3zM397.5 223c1.5 0 2.9 1.4 2.9 2.9s-1.5 3-3 3-2.9-1.5-2.9-2.9c0-1.6 1.5-3 3-3zm41.7-122.2c0-1.6 1.3-2.9 2.8-2.9 1.5 0 2.8 1.3 2.9 2.9.1 1.5-1.4 3.1-2.9 3-1.5-.1-3-1.6-2.8-3zm17.9 0c0-1.6 1.4-2.9 2.9-2.9s2.9 1.4 2.8 2.9c0 1.5-1.4 3-2.9 2.9-1.4.1-3-1.3-2.8-2.9zm-41.8 83.4c-1.6 0-2.9-1.4-2.9-2.9 0-1.6 1.4-2.8 3-2.9 1.5 0 2.8 1.5 2.9 2.8 0 1.5-1.5 3-3 3zm11.8-11.9c0 1.5-1.4 3-2.9 2.9-1.5 0-3-1.4-2.9-3 .1-1.5 1.4-2.9 2.9-2.8 1.6 0 2.9 1.4 2.9 2.9zm-23.6 0c0-1.6 1.4-2.9 2.9-2.9s2.9 1.4 2.9 2.9-1.3 3-2.8 3c-1.6 0-3.2-1.5-3-3zm-17.9 35.8c0-1.6 1.3-2.9 2.8-2.9 1.5 0 2.9 1.3 2.9 2.9 0 1.6-1.4 3.1-2.9 3-1.6-.2-3-1.7-2.8-3zm-113.3-32.8c-1.5 0-2.9-1.5-2.9-3s1.5-3 3.1-2.9c1.5.1 2.9 1.5 2.8 3 0 1.5-1.5 2.9-3 2.9zm143-14.8c1.8-.1 3 1.7 3 2.8 0 1.5-1.4 2.9-2.9 2.9-1.6 0-3-1.3-3-2.9 0-1.5 1.3-2.8 2.9-2.8zm-157.9-41.8c0 1.5-1.4 2.9-2.9 2.9-1.4 0-2.9-1.4-3-2.9 0-1.5 1.5-3 3-3 1.5.1 2.9 1.6 2.9 3zm35.8 0c0 1.5-1.4 2.9-2.9 2.9-1.4 0-2.9-1.4-3-2.9 0-1.5 1.5-3 3-3 1.5.1 2.9 1.6 2.9 3zm14.8 3c-1.5 0-2.9-1.5-2.9-3s1.5-3 3.1-2.9c1.5.1 2.9 1.6 2.8 3 0 1.5-1.5 2.9-3 2.9zm20.9-2.9c0 1.5-1.5 2.9-3 2.9-1.4 0-2.9-1.5-2.9-2.9 0-1.5 1.5-3 3-2.9 1.5-.1 2.9 1.4 2.9 2.9zm157.9 175.7c1.5 0 3 1.4 3 3 0 1.5-1.5 2.9-2.9 2.9-1.5 0-2.9-1.4-3-2.8-.1-1.6 1.3-3.1 2.9-3.1zm-59.7-175.8c0 1.5-1.4 3-2.9 2.9-1.5 0-3-1.4-2.9-3 .1-1.5 1.4-2.9 2.9-2.8 1.6 0 2.9 1.4 2.9 2.9zm12.1 0c0-1.6 1.3-2.9 2.9-2.9 1.5 0 2.9 1.4 2.9 2.9s-1.3 3-2.8 3c-1.6 0-3.2-1.5-3-3zm-95.3-20.8c1.5 0 2.9 1.5 2.9 3s-1.5 2.9-3 2.9-2.9-1.5-2.9-2.9c0-1.6 1.5-3 3-3zM168.1 83c0 1.5-1.4 2.9-2.9 2.9-1.4 0-2.9-1.4-3-2.9 0-1.5 1.5-3 3-3 1.5.1 2.9 1.5 2.9 3zm259 71.4c0 1.5-1.3 3-2.8 3-1.6 0-3.1-1.5-3-3 .1-1.6 1.3-2.9 2.9-2.9 1.6 0 2.9 1.4 2.9 2.9zM183 85.9c-1.5 0-2.9-1.5-2.9-3s1.5-3 3.1-2.9c1.5.1 2.9 1.5 2.8 3-.1 1.5-1.6 3-3 2.9zm-35.6-23.7c1.5 0 2.9 1.5 2.9 3s-1.5 2.9-3 2.9-3-1.6-2.9-3.1c0-1.5 1.5-2.8 3-2.8zm285.8 178.7c1.5 0 2.9 1.4 2.9 2.9s-1.5 3-3 3-2.9-1.4-2.9-2.9c0-1.6 1.5-3 3-3zm-268-178.7c1.5.1 2.9 1.5 2.8 3 0 1.5-1.5 2.9-3 2.9s-2.9-1.5-2.9-2.9c.1-1.6 1.6-3.1 3.1-3zm261.9 74.3c.2 1.5-1.4 3.1-2.9 3-1.6 0-2.9-1.6-2.9-2.9.1-1.6 1.3-2.9 2.9-2.9 1.5-.1 2.9 1.3 2.9 2.8zM183 68.1c-1.5 0-2.9-1.5-2.9-3s1.5-3 3.1-2.9c1.5.1 2.9 1.5 2.8 3-.1 1.5-1.6 2.9-3 2.9zm89.3 12c1.5 0 2.9 1.4 3 2.9.1 1.5-1.4 3-3 3-1.5 0-2.9-1.5-2.9-2.9 0-1.6 1.5-3 2.9-3zm-68.5-15c0 1.5-1.4 2.9-2.9 3-1.4.1-3-1.4-3-2.8-.1-1.4 1.3-3 2.8-3 1.6-.2 3.1 1.2 3.1 2.8zm68.5 3c-1.5 0-2.9-1.5-2.9-3s1.5-3 3.1-2.9c1.5.1 2.9 1.6 2.8 3-.1 1.5-1.5 2.9-3 2.9zm143 146c1.8-.1 3 1.7 2.9 2.8 0 1.5-1.4 2.9-2.9 2.9-1.6 0-3-1.3-3-2.9.1-1.5 1.4-2.7 3-2.8zM308 85.9c-1.5 0-2.9-1.5-2.9-3s1.5-3 3.1-2.9c1.5.1 2.9 1.6 2.8 3 0 1.5-1.5 3-3 2.9zm35.8 0c-1.5 0-2.9-1.5-2.9-3s1.5-3 3.1-2.9c1.5.1 2.9 1.5 2.8 3-.1 1.5-1.6 3-3 2.9zm113.3 50.7c0-1.6 1.3-2.9 2.8-2.9 1.5 0 2.9 1.3 2.9 2.8 0 1.6-1.4 3.1-2.9 3-1.6 0-3-1.6-2.8-2.9zm-92.5-53.7c0 1.5-1.4 2.9-2.9 3-1.4.1-3-1.4-3-2.8-.1-1.5 1.4-3 2.9-3 1.6 0 3 1.4 3 2.8zm50.7 65.5c-1.6 0-2.9-1.3-2.9-2.9 0-1.6 1.4-2.9 3-2.9 1.7-.1 2.9 1.7 2.9 2.9-.1 1.6-1.5 2.9-3 2.9zm-142.9-14.7c1.5 0 2.9 1.5 2.9 3s-1.5 2.9-2.9 2.9c-1.5 0-3-1.6-2.9-3 0-1.6 1.5-3 2.9-2.9zm142.9 142.9c1.5 0 2.9 1.4 2.9 2.9s-1.5 3-3 3-2.9-1.4-2.9-2.9 1.5-3 3-3zm35.8 0c1.5 0 2.9 1.5 2.9 2.9 0 1.5-1.5 3-3 2.9-1.5-.1-2.9-1.5-2.9-2.9 0-1.5 1.5-2.9 3-2.9zm-41.8-86.5c0 1.6-1.4 3.1-2.9 3-1.6-.1-2.9-1.6-2.9-2.9.1-1.6 1.3-2.9 2.9-2.9 1.5 0 2.8 1.3 2.9 2.8zM96.6 83c0 1.4-1.5 2.9-2.9 2.9s-2.9-1.5-3-2.9c0-1.5 1.4-3 2.9-3 1.5.1 3 1.5 3 3zm318.7 41.8c1.8-.1 3 1.7 3 2.8 0 1.5-1.4 2.9-2.9 2.9-1.6 0-3-1.3-3-2.9 0-1.5 1.3-2.8 2.9-2.8zM22.1 80.1c1.5 0 3 1.4 3.1 2.9 0 1.4-1.4 2.9-2.9 3-1.4 0-2.9-1.4-3-2.9-.1-1.5 1.3-3 2.8-3zm399.3 20.7c0-1.6 1.3-2.9 2.9-2.9 1.5 0 2.8 1.4 2.9 2.9.1 1.3-1.3 3-2.9 3-1.6 0-3.1-1.5-2.9-3zM60.9 83c0 1.5-1.5 2.9-2.9 2.9s-2.9-1.5-3-2.9c0-1.5 1.4-3 2.9-3 1.5.1 3 1.5 3 3z"/><path class="st1" d="M78.7 83c0 1.5-1.4 2.9-2.9 2.9-1.4 0-2.9-1.4-3-2.9 0-1.5 1.4-3 2.8-3 1.6 0 3.1 1.5 3.1 3z"/><path class="st0" d="M111.5 50.2c-1.5 0-2.9-1.5-2.9-3s1.5-2.9 2.9-2.9c1.6 0 3 1.5 3 3-.1 1.5-1.6 2.9-3 2.9zM445 172.3c.2 1.3-1.3 3-2.8 3-1.6 0-3-1.5-2.9-3 .1-1.6 1.4-2.9 2.9-2.9s2.8 1.4 2.8 2.9zm-137.1-32.8c-1.5-.1-2.9-1.7-2.7-3.1.1-1.5 1.7-2.9 3.2-2.7 1.4.1 2.8 1.7 2.7 3.2-.2 1.4-1.8 2.8-3.2 2.6zm83.5-2.9c0 1.5-1.4 3-2.9 2.9-1.5 0-3-1.4-2.9-3 .1-1.5 1.4-2.9 2.9-2.8 1.6 0 2.9 1.4 2.9 2.9zM96.6 100.8c0 1.4-1.4 2.9-2.9 3-1.4.1-3-1.3-3-2.8-.1-1.4 1.4-3 2.8-3 1.6-.1 3.1 1.3 3.1 2.8zm17.9-17.9c0 1.4-1.4 2.9-2.9 3-1.4.1-3-1.4-3-2.8-.1-1.4 1.4-3 2.8-3 1.5-.1 3 1.3 3.1 2.8zm0 18c0 1.5-1.4 2.9-2.9 2.9-1.4 0-2.9-1.4-3-2.9 0-1.5 1.4-3 2.9-3s3 1.5 3 3zM397.4 202c-1.6 0-2.9-1.4-2.9-2.9 0-1.6 1.4-2.8 3-2.9 1.5 0 2.8 1.5 2.9 2.8 0 1.6-1.4 3.1-3 3zm-11.8-101.2c0-1.6 1.3-2.9 2.9-2.9 1.5 0 2.8 1.3 2.9 2.9.1 1.4-1.4 3.1-3 3-1.5-.1-3-1.6-2.8-3zm11.9 119.1c-1.6 0-2.9-1.3-3-2.8-.1-1.2 1.1-3 2.9-3 1.8 0 3 1.7 3 2.8 0 1.6-1.4 3-2.9 3zM367.8 83c0-1.6 1.3-2.9 2.8-2.9 1.5 0 2.8 1.3 2.9 2.9.1 1.4-1.4 3.1-2.9 3-1.6-.1-3-1.7-2.8-3zm-6.1 104.3c1.5 0 2.9 1.4 2.9 2.9s-1.4 2.9-2.9 2.9c-1.4 0-2.9-1.4-3-2.9 0-1.4 1.5-2.9 3-2.9zm-56.5 20.8c0-1.5 1.5-3 3-3s2.9 1.5 2.9 3-1.5 2.9-2.9 2.9c-1.6 0-3-1.5-3-2.9zm-12-.1c0 1.5-1.4 2.9-2.9 3-1.4.1-3-1.4-3-2.9-.1-1.5 1.4-3 3-3 1.4 0 2.8 1.5 2.9 2.9zM445 82.9c.2 1.5-1.4 3-2.8 3-1.6 0-3-1.3-2.9-3 0-1.6 1.3-2.9 2.9-2.9 1.4 0 2.8 1.4 2.8 2.9zm17.9 0c.2 1.5-1.3 3-2.8 3-1.6 0-3-1.3-3-2.9 0-1.6 1.3-2.9 2.8-2.9 1.6-.1 2.9 1.3 3 2.8zm-47.6 11.9c-1.6 0-2.9-1.3-2.9-2.9 0-1.6 1.4-2.9 3-2.9 1.8 0 2.9 1.7 2.9 2.9-.1 1.5-1.5 2.9-3 2.9zM326 133.7c1.5 0 2.9 1.4 2.9 2.9s-1.4 2.9-2.9 2.9c-1.4 0-2.9-1.4-3-2.9 0-1.4 1.5-2.9 3-2.9zm89.3-56.8c-1.6 0-2.9-1.4-2.9-2.9 0-1.6 1.4-2.9 3-2.9 1.5 0 2.8 1.3 2.9 2.8 0 1.6-1.5 3.1-3 3zM75.8 68.1c-1.4 0-2.9-1.5-2.9-2.9 0-1.5 1.4-3 2.9-3 1.6 0 3 1.4 3 3-.1 1.4-1.5 2.9-3 2.9zm199.5 140c0 1.5-1.4 2.9-2.9 2.9-1.4 0-2.9-1.4-3-2.9 0-1.5 1.4-3 3-3 1.4 0 2.9 1.5 2.9 3zM93.6 62.2c1.5 0 3 1.4 3.1 2.9 0 1.4-1.4 2.9-2.9 3-1.4 0-2.9-1.4-3-2.9-.1-1.5 1.3-3 2.8-3zm309.9 74.3c0-1.6 1.3-2.9 2.9-2.9 1.5 0 2.8 1.4 2.9 2.9.1 1.3-1.3 3-2.9 3-1.5 0-3.1-1.4-2.9-3zm-289-71.4c0 1.4-1.4 2.9-2.9 3-1.4.1-3-1.4-3-2.8-.1-1.4 1.4-3 2.8-3 1.6-.2 3 1.3 3.1 2.8zm229.4 128c-1.4 0-2.9-1.4-3-2.9 0-1.5 1.4-3 3-3 1.5 0 2.9 1.5 2.9 2.9 0 1.6-1.4 3-2.9 3zm-.1-53.6c-1.4 0-2.9-1.5-3-2.9 0-1.5 1.5-3 3-3s2.9 1.5 2.9 3c.1 1.5-1.4 2.9-2.9 2.9zm24 32.8c0-1.6 1.4-2.9 2.9-2.9s2.8 1.4 2.9 2.9c.1 1.2-1.3 3-2.9 3-1.6 0-3.1-1.5-2.9-3zm-3.2 0c0 1.5-1.3 2.9-2.9 3-1.4.1-3-1.4-3-2.8-.1-1.5 1.4-3 2.9-3 1.6-.1 3 1.3 3 2.8zm-20.7-2.9c1.4 0 2.9 1.5 2.9 3s-1.5 2.9-3 2.9-2.9-1.5-2.9-2.9c0-1.6 1.5-3 3-3zm53.6-56.7c-1.6 0-2.9-1.3-3-2.8 0-1.6 1.3-2.9 3-2.9 1.8-.1 2.9 1.7 2.9 2.9 0 1.4-1.4 2.8-2.9 2.8zM326 169.4c1.5 0 2.9 1.4 2.9 2.9s-1.4 2.9-2.9 3c-1.4 0-2.9-1.4-3-2.9 0-1.5 1.5-3 3-3zm89.3-56.7c-1.6 0-2.9-1.3-2.9-2.9 0-1.6 1.4-2.9 3-2.9 1.7 0 2.9 1.7 2.9 2.9-.1 1.5-1.5 2.9-3 2.9zm-125.1 62.6c-1.4 0-2.9-1.5-3-2.9 0-1.5 1.5-3 3-3s2.9 1.5 2.9 3c.1 1.4-1.4 2.9-2.9 2.9zm143.1-62.6c-1.6 0-3-1.3-3-2.8-.1-1.6 1.3-3 2.9-3 1.6 0 3 1.3 3 2.8-.1 1.5-1.5 3-2.9 3zm-29.8-11.9c0-1.6 1.3-2.9 2.9-2.9 1.5 0 2.8 1.4 2.9 2.9.1 1.3-1.3 3-2.9 3-1.5 0-3.1-1.5-2.9-3zm-292 74.5c-1.5 0-2.9-1.5-2.9-3s1.5-2.9 2.9-2.9c1.6 0 3 1.5 3 3-.1 1.5-1.6 2.9-3 2.9zm-17.9 0c-1.5 0-2.9-1.5-2.9-3s1.5-2.9 2.9-2.9c1.6 0 3 1.5 3 3s-1.5 2.9-3 2.9zm-68.5-56.6c0 1.4-1.4 2.9-2.9 2.9-1.4 0-2.9-1.4-3-2.9 0-1.5 1.4-3 2.8-3 1.6.1 3.1 1.5 3.1 3z"/><path class="st1" d="M78.7 172.3c0 1.4-1.4 2.9-2.9 3-1.4.1-3-1.4-3-2.8-.1-1.4 1.4-3 2.8-3 1.6-.1 3.1 1.3 3.1 2.8zM43 118.7c0 1.5-1.4 2.9-2.9 2.9-1.4 0-2.9-1.4-3-2.9 0-1.5 1.4-3 2.8-3 1.6.1 3.1 1.5 3.1 3zm17.9 0c0 1.4-1.4 2.9-2.9 3-1.4.1-3-1.4-3-2.8-.1-1.4 1.4-3 2.8-3 1.5-.1 3 1.3 3.1 2.8z"/><path class="st0" d="M275.3 190.2c0 1.5-1.4 2.9-2.9 3-1.4 0-2.9-1.4-3-2.9 0-1.5 1.4-3 3-3 1.4 0 2.9 1.4 2.9 2.9z"/><path class="st1" d="M75.8 115.8c1.6 0 3 1.5 3 3s-1.5 2.9-3 2.9-2.9-1.5-2.9-2.9c0-1.5 1.4-3 2.9-3z"/><path class="st0" d="M93.6 115.8c1.5 0 3 1.4 3.1 2.9 0 1.5-1.4 2.9-2.9 3-1.4 0-2.9-1.4-3-2.9-.1-1.4 1.3-3 2.8-3zm35.8 0c1.6 0 3 1.5 2.9 3-.1 1.5-1.6 2.9-3 2.8-1.5 0-2.9-1.5-2.9-3 .1-1.4 1.6-2.8 3-2.8zm160.8 77.3c-1.5 0-2.9-1.5-2.9-3s1.5-2.9 3.1-2.9c1.5 0 2.9 1.5 2.8 3-.1 1.6-1.6 3-3 2.9zm-71.5 0c-1.5 0-2.9-1.5-2.9-3s1.5-2.9 3.1-2.9c1.5 0 2.9 1.5 2.8 3-.1 1.6-1.5 3-3 2.9z"/><path class="st1" d="M75.7 97.9c1.6 0 3 1.5 3 3 0 1.4-1.5 2.9-2.9 2.9s-2.9-1.5-2.9-2.9c-.1-1.5 1.4-3 2.8-3z"/><path class="st0" d="M311 190.2c0 1.5-1.4 2.9-2.9 2.9-1.4 0-2.9-1.4-3-2.9 0-1.5 1.4-3 3-3 1.5.1 2.9 1.5 2.9 3zM57.9 103.8c-1.4 0-2.9-1.5-2.9-2.9 0-1.5 1.5-2.9 2.9-2.9 1.6 0 3 1.5 3 3-.1 1.4-1.5 2.8-3 2.8zm286 12c1.5 0 2.9 1.5 2.8 3 0 1.5-1.5 2.9-3 2.9s-2.9-1.5-2.9-2.9c.1-1.6 1.6-3 3.1-3zm53.6 44.7c1.7-.1 2.9 1.7 2.9 2.9 0 1.5-1.4 2.9-2.9 2.9-1.6 0-3-1.4-3-3 0-1.5 1.4-2.8 3-2.8zm-29.7-59.7c0-1.6 1.4-2.9 2.9-2.9s2.8 1.4 2.9 2.9c.1 1.2-1.3 3-2.9 3-1.6 0-3.1-1.5-2.9-3zm5.7 18c0 1.5-1.4 3-2.9 2.9-1.5 0-3-1.4-2.9-3.1.1-1.5 1.4-2.9 3-2.8 1.5 0 2.8 1.4 2.8 3z"/><path class="st1" d="M43 100.9c0 1.5-1.5 2.9-2.9 2.9s-2.9-1.4-3-2.9c0-1.5 1.4-3 2.9-3s3 1.5 3 3z"/><path class="st0" d="M391.4 118.7c0 1.5-1.4 3-2.9 2.9-1.5 0-3-1.4-2.9-3 .1-1.5 1.4-2.9 2.9-2.8 1.6 0 2.9 1.4 2.9 2.9z"/><path class="st1" d="M22.2 103.8c-1.4 0-2.9-1.4-3-2.9 0-1.5 1.4-3 2.9-3 1.6 0 3 1.4 3 2.9s-1.4 3-2.9 3z"/><path class="st0" d="M403.5 118.7c0-1.6 1.3-2.9 2.9-2.9 1.5 0 2.8 1.3 2.9 2.9.1 1.4-1.4 3.1-3 3-1.6-.1-3-1.6-2.8-3zm-74.6 71.5c0 1.5-1.4 2.9-2.9 2.9-1.4 0-2.9-1.4-3-2.9 0-1.5 1.4-3 3-3 1.5.1 2.9 1.5 2.9 3zM475 100.8c0-1.6 1.3-2.9 2.9-2.9 1.5 0 2.8 1.4 2.9 2.9.1 1.3-1.3 3-2.9 3-1.5 0-3.1-1.5-2.9-3zm-345.6-2.9c1.6 0 3 1.5 3 3s-1.5 2.9-3 2.9c-1.4 0-2.9-1.5-2.9-2.9 0-1.5 1.4-3 2.9-3zm-.1 89.4c1.5 0 3 1.4 3 2.9s-1.4 2.9-2.9 2.9c-1.4 0-2.9-1.4-3-2.9 0-1.4 1.5-2.9 2.9-2.9zm274.2-32.9c0-1.5 1.4-2.9 2.9-2.8 1.5 0 2.8 1.4 2.8 2.9s-1.4 3-2.9 2.9c-1.4 0-3-1.4-2.8-3zM96.6 190.3c0 1.5-1.5 2.9-3 2.9s-2.9-1.5-2.9-2.9c0-1.5 1.5-2.9 2.9-2.9 1.6-.1 3 1.4 3 2.9zm289-35.9c0-1.6 1.3-2.9 2.9-2.9 1.5 0 2.8 1.3 2.9 2.9.1 1.3-1.4 3.1-3 3-1.5-.1-3-1.6-2.8-3zm47.6-6c-1.6 0-3-1.3-3-2.8-.1-1.6 1.3-3 2.9-3 1.6 0 3 1.3 3 2.8 0 1.6-1.4 3-2.9 3zm-65.4 6c0-1.6 1.3-2.9 2.9-2.9 1.5 0 2.8 1.4 2.9 2.9.1 1.3-1.3 3-2.9 3-1.6 0-3.1-1.5-2.9-3zm-3.2.1c0 1.5-1.5 2.9-3 2.9s-2.9-1.5-2.9-2.9c0-1.5 1.5-3 3-2.9 1.5 0 3 1.5 2.9 2.9zm-17.8 0c0 1.5-1.5 2.9-2.9 2.9s-2.9-1.5-3-2.9c0-1.5 1.5-3 3-3s2.9 1.5 2.9 3zm-17.9-.1c0 1.5-1.4 2.9-2.9 3-1.4.1-3-1.4-3-2.8-.1-1.5 1.4-3 2.9-3 1.5-.1 3 1.3 3 2.8zm-20.8 3c-1.4 0-2.9-1.4-3-2.9 0-1.5 1.5-3 3-3s2.9 1.5 2.9 2.9c0 1.5-1.4 3-2.9 3zm-14.9-2.9c0 1.5-1.5 2.9-3 2.9-1.4 0-2.9-1.5-2.9-2.9 0-1.5 1.5-3 3-2.9 1.5 0 2.9 1.4 2.9 2.9zm-17.9-.1c0 1.5-1.4 2.9-2.9 3-1.4.1-3-1.4-3-2.8-.1-1.5 1.4-3 3-3 1.4-.1 2.9 1.4 2.9 2.8zm-17.9.1c0 1.5-1.4 2.9-2.9 2.9-1.4 0-2.9-1.4-3-2.9 0-1.5 1.4-3 3-3 1.5 0 2.9 1.5 2.9 3zm-20.8-3c1.5 0 2.9 1.4 2.9 2.9s-1.4 2.9-2.9 3c-1.4.1-3-1.4-3-2.8 0-1.5 1.5-3 3-3.1zm128-32.8c0 1.5-1.4 2.9-2.9 2.9-1.4 0-2.9-1.5-3-2.9 0-1.5 1.5-3 3-3 1.5.1 3 1.6 2.9 3zm-142.9 35.8c0 1.5-1.5 2.9-2.9 2.9s-2.9-1.5-3-2.9c0-1.5 1.5-3 3-3s2.9 1.5 2.9 3zm-89.4 0c0 1.5-1.5 2.9-3 2.9s-2.9-1.5-2.9-3 1.5-2.9 2.9-2.9c1.6.1 3.1 1.5 3 3zm-20.8-3c1.6 0 3 1.5 3 3s-1.5 2.9-3 2.9-2.9-1.5-2.9-3c0-1.4 1.5-2.9 2.9-2.9zm-50.6-14.8c0 1.4-1.5 2.9-3 2.9s-2.9-1.5-2.9-2.9c0-1.5 1.5-2.9 2.9-2.9 1.5-.1 3 1.3 3 2.9zm32.8 14.8c1.6 0 3 1.5 2.9 3-.1 1.5-1.6 2.9-3 2.8-1.5 0-2.9-1.5-2.9-3 .1-1.3 1.5-2.8 3-2.8z"/><path class="st1" d="M75.7 133.7c1.5 0 3 1.4 3.1 2.9 0 1.4-1.4 2.9-2.9 3-1.4 0-2.9-1.4-3-2.9-.1-1.5 1.3-3 2.8-3zm0 17.8c1.6 0 3 1.4 3 2.9s-1.4 2.9-2.9 2.9c-1.4 0-2.9-1.4-3-2.9 0-1.3 1.5-2.8 2.9-2.9z"/><path class="st0" d="M93.6 133.7c1.6 0 3 1.4 3 3 0 1.4-1.5 2.9-2.9 2.9s-2.9-1.5-2.9-2.9c-.1-1.5 1.4-3 2.8-3zm32.9 2.9c0-1.5 1.4-3 2.9-3 1.6 0 3 1.4 3 3 0 1.4-1.5 2.9-2.9 2.9-1.5 0-3-1.4-3-2.9zm271 11.8c-1.6 0-2.9-1.3-3-2.8 0-1.6 1.3-2.9 3-2.9 1.7-.1 2.9 1.7 2.9 2.9 0 1.4-1.4 2.8-2.9 2.8zm-157.9-11.8c0 1.5-1.4 2.9-2.9 3-1.4.1-3-1.4-3-2.9-.1-1.5 1.4-3 3-3 1.4 0 2.8 1.4 2.9 2.9zm14.9-2.9c1.5 0 2.9 1.4 2.9 2.9s-1.4 2.9-2.9 3c-1.4 0-3-1.4-3-2.9s1.5-3 3-3zm110.2 2.9c0 1.5-1.4 2.9-2.9 2.9-1.4 0-2.9-1.4-3-2.9 0-1.5 1.4-3 3-3 1.4.1 2.9 1.5 2.9 3zm-77.4-.2c.1-1.5 1.7-2.9 3.2-2.7 1.4.1 2.8 1.7 2.7 3.2-.1 1.5-1.7 2.8-3.1 2.7-1.6-.2-2.9-1.8-2.8-3.2zm163.8 137.1c-1.6 0-3-1.4-3-3 0-1.5 1.4-2.7 3-2.8 1.6-.1 2.9 1.5 2.9 2.7.1 1.6-1.4 3.1-2.9 3.1zm-53.6-95.1c1.7-.1 2.9 1.6 2.9 2.9-.1 1.5-1.5 2.9-3 2.9-1.6 0-2.9-1.3-2.9-2.9 0-1.6 1.4-2.9 3-2.9zm-29.7-41.8c0-1.6 1.3-2.9 2.8-2.9 1.5 0 2.8 1.3 3 2.8.1 1.4-1.4 3.1-2.9 3-1.7 0-3.1-1.6-2.9-2.9zM93.6 94.8c-1.5 0-2.9-1.4-2.9-2.9s1.4-2.8 2.9-2.8c1.6 0 3 1.3 3 2.8 0 1.5-1.4 2.9-3 2.9zm53.7 125.1c-1.6 0-3-1.4-2.9-3 0-1.5 1.4-2.7 2.9-2.8 1.9-.1 3 1.6 3 2.8 0 1.5-1.5 3-3 3zM111.6 94.8c-1.6 0-3-1.4-3-3 0-1.4 1.4-2.8 2.8-2.8 1.6 0 3 1.2 3 2.7.1 1.6-1.3 3.1-2.8 3.1zm53.5 0c-1.5 0-2.9-1.4-2.9-2.9s1.4-2.9 3-2.9c1.5 0 2.8 1.3 2.8 2.8.1 1.6-1.3 3-2.9 3zm17.9-5.7c1.6 0 2.9 1.3 2.9 2.8 0 1.5-1.5 3-3 2.9-1.5 0-2.9-1.4-2.9-2.9.1-1.5 1.5-2.8 3-2.8zm89.3 0c1.6 0 3 1.3 3 2.8 0 1.5-1.4 3-3 3-1.5 0-2.9-1.3-2.9-2.9 0-1.5 1.4-2.9 2.9-2.9zm18 5.7c-1.6 0-3-1.3-3-2.9 0-1.4 1.3-2.8 2.8-2.8 1.6 0 3.1 1.3 3.1 2.8 0 1.5-1.4 2.9-2.9 2.9zm-36 116.2c-1.5-.1-2.9-1.7-2.7-3.1.1-1.5 1.7-2.9 3.2-2.7 1.5.2 2.8 1.7 2.7 3.2-.2 1.4-1.8 2.7-3.2 2.6zm89.5-116.2c-1.6 0-3-1.4-2.9-3 0-1.5 1.4-2.7 2.9-2.8 1.6 0 3 1.3 3 2.8 0 1.5-1.4 3-3 3zm17.9 0c-1.6 0-3-1.4-3-3 0-1.4 1.4-2.8 2.8-2.8 1.6 0 3.1 1.3 3 2.9.1 1.5-1.3 2.9-2.8 2.9zM111.5 205.1c1.5 0 2.9 1.4 3 2.9 0 1.5-1.5 3-3 3s-2.9-1.5-2.9-2.9c0-1.5 1.5-2.9 2.9-3zm268.1-116c1.8-.1 2.9 1.7 2.9 2.9-.1 1.5-1.4 2.9-2.9 2.9-1.6 0-3-1.4-3-3 .1-1.6 1.4-2.9 3-2.8zm17.9 5.7c-1.6 0-3-1.4-3-3 0-1.5 1.4-2.7 3-2.8 1.8-.1 2.9 1.7 2.9 2.9-.1 1.5-1.5 2.9-2.9 2.9zM308.1 202c-1.5 0-2.9-1.3-2.9-2.9 0-1.5 1.4-2.9 3-2.9 1.5 0 2.8 1.3 2.9 2.8 0 1.6-1.5 3-3 3zm71.5-17.8c-1.6 0-3-1.4-3-3 0-1.5 1.4-2.7 3-2.8 1.7-.1 2.9 1.6 2.9 2.9 0 1.5-1.4 2.9-2.9 2.9zm-17.9 0c-1.6 0-3-1.4-3-3 0-1.5 1.4-2.8 2.9-2.8 1.6 0 3 1.2 3 2.7.1 1.6-1.3 3-2.9 3.1zm-17.9-5.8c1.6 0 3 1.3 3 2.8 0 1.5-1.4 3-3 3-1.5 0-2.9-1.4-2.9-2.9s1.3-2.9 2.9-2.9zm-17.9 5.8c-1.6 0-3-1.5-2.9-3 .1-1.5 1.4-2.8 3-2.7 1.5 0 2.8 1.3 2.9 2.8 0 1.4-1.4 2.9-3 2.9zm-17.8-5.8c1.6 0 3 1.3 3 2.8 0 1.5-1.4 3-3 3-1.5 0-2.9-1.4-2.9-2.9-.1-1.5 1.3-2.9 2.9-2.9zm-17.8 5.8c-1.6 0-3-1.4-3-3 0-1.5 1.3-2.8 2.8-2.8 1.6 0 3.1 1.3 3 2.8 0 1.6-1.3 2.9-2.8 3zm-125.2-71.5c-1.5 0-2.9-1.3-2.9-2.9 0-1.5 1.4-2.9 3-2.9 1.5 0 2.8 1.3 2.9 2.8 0 1.5-1.4 3-3 3zm71.5 71.5c-1.5 0-2.9-1.4-2.9-2.9s1.4-2.9 3-2.9c1.5 0 2.8 1.3 2.8 2.8.1 1.5-1.4 3-2.9 3zm-17.9-71.5c-1.5 0-2.9-1.3-2.9-2.9 0-1.5 1.4-2.9 3-2.9 1.5 0 2.8 1.3 2.9 2.8 0 1.5-1.4 3-3 3zm35.8 0c-1.5 0-2.9-1.3-2.9-2.9 0-1.5 1.4-2.9 3-2.9 1.5 0 2.8 1.3 2.9 2.8 0 1.5-1.5 3-3 3zm2.9 77.5c0 1.5-1.4 2.9-2.9 2.9-1.4 0-2.9-1.4-3-2.9 0-1.5 1.5-3 3-3 1.5.1 2.9 1.6 2.9 3zm32.9-77.5c-1.6 0-3-1.4-3-3 0-1.4 1.4-2.8 2.8-2.8 1.6 0 3.1 1.3 3 2.9 0 1.5-1.3 2.9-2.8 2.9zm17.8 0c-1.6 0-3-1.4-2.9-3 0-1.5 1.4-2.7 2.9-2.8 1.6 0 3 1.3 3 2.8 0 1.5-1.5 3-3 3zm-86.4 95.4c0 1.5-1.5 2.9-2.9 2.9s-2.9-1.4-3-2.9c0-1.5 1.5-3 3-3 1.5.1 2.9 1.5 2.9 3zm104.2-101.2c1.6 0 3 1.3 3 2.8 0 1.5-1.4 3-3 3-1.5 0-2.9-1.4-2.9-2.9s1.4-2.9 2.9-2.9zM147.3 273.5c-1.6 0-3-1.4-3-3 0-1.4 1.4-2.7 2.9-2.8 1.6 0 3 1.2 3 2.7.1 1.6-1.4 3.1-2.9 3.1zm214.3-160.8c-1.5 0-2.9-1.4-2.9-2.9s1.4-2.9 3.1-2.8c1.5 0 2.8 1.4 2.8 2.8 0 1.5-1.4 2.9-3 2.9zm18-5.8c1.8-.1 2.9 1.7 2.9 2.9 0 1.5-1.4 2.9-2.9 2.9-1.6 0-3-1.4-3-3 0-1.5 1.4-2.8 3-2.8zM165.1 41.2c-1.5 0-2.9-1.4-2.9-2.9s1.4-2.9 3.1-2.8c1.5 0 2.8 1.4 2.8 2.8 0 1.5-1.5 2.9-3 2.9zm297.8 220.5c0 1.5-1.4 3-2.8 3-1.6 0-2.9-1.4-2.9-3 0-1.5 1.3-2.9 2.9-2.9 1.4 0 2.8 1.3 2.8 2.9zM183 41.2c-1.6 0-3-1.4-2.9-3 0-1.5 1.4-2.7 2.9-2.8 1.6 0 3 1.3 3 2.8 0 1.5-1.4 3-3 3zm262 220.5c0 1.5-1.4 2.9-2.9 2.9-1.6 0-2.9-1.4-2.9-3.1 0-1.5 1.4-2.9 2.9-2.8 1.6.1 2.9 1.4 2.9 3zm-17.9-.1c0 1.5-1.3 3-2.8 3-1.5 0-2.9-1.4-2.9-3 0-1.5 1.3-2.9 2.9-2.9 1.5 0 2.8 1.4 2.8 2.9zM385.6 47.2c0-1.6 1.3-2.9 2.9-2.9 1.5 0 2.8 1.3 2.9 2.9.1 1.3-1.4 3-2.8 3-1.7 0-3-1.4-3-3zm23.7 214.5c0 1.5-1.4 3-2.8 3-1.6 0-2.9-1.4-2.9-3 0-1.5 1.4-2.9 2.9-2.9 1.4 0 2.8 1.3 2.8 2.9zm41.8-149c-1.6 0-3-1.4-3-3 0-1.5 1.4-2.8 3-2.8 1.8-.1 2.9 1.7 2.9 2.9 0 1.5-1.4 2.9-2.9 2.9zM111.5 59.1c-1.5 0-2.9-1.4-2.9-2.9s1.4-2.8 2.9-2.8c1.6 0 3 1.3 3 2.8 0 1.5-1.5 2.9-3 2.9zm357.4 53.6c-1.6 0-3-1.4-2.9-3 0-1.5 1.4-2.8 3-2.7 1.6 0 2.9 1.4 2.9 2.9-.1 1.4-1.5 2.8-3 2.8zm0 142.9c-1.6 0-3-1.4-2.9-3 0-1.5 1.4-2.7 3-2.8 1.6-.1 2.9 1.5 2.9 2.8 0 1.6-1.4 3-3 3zm18-148.7c1.6 0 2.9 1.4 2.9 2.9-.1 1.5-1.5 2.9-3 2.8-1.6 0-3-1.4-2.9-3 0-1.4 1.4-2.7 3-2.7zM10.4 118.7c0-1.6 1.4-2.9 2.9-2.9s2.9 1.4 2.9 2.9c0 1.6-1.4 3-3 3-1.5-.1-3-1.5-2.8-3zm440.7 136.9c-1.6 0-3-1.4-3-3 0-1.5 1.4-2.7 3-2.8 1.7-.1 2.9 1.7 2.9 2.9 0 1.6-1.4 2.9-2.9 2.9zM147.3 59.1c-1.6 0-3-1.4-3-3 0-1.4 1.4-2.8 2.8-2.8 1.6 0 3.1 1.3 3 2.9.1 1.5-1.3 2.9-2.8 2.9zm285.9 196.5c-1.6 0-3-1.4-3-3 0-1.5 1.4-2.7 3-2.8 1.6-.1 2.9 1.5 2.9 2.8.1 1.6-1.4 3-2.9 3zm17.8-89.3c-1.6 0-3-1.5-2.9-3 .1-1.5 1.5-2.7 3-2.7s2.8 1.5 2.8 2.8c.1 1.5-1.3 2.9-2.9 2.9zM165.1 59.1c-1.5 0-2.9-1.4-2.9-2.9s1.4-2.9 3.1-2.8c1.5 0 2.8 1.4 2.8 2.8 0 1.5-1.5 2.9-3 2.9zm250.2 196.5c-1.6 0-3-1.4-3-3 0-1.5 1.4-2.7 3-2.8 1.7-.1 2.9 1.7 2.9 2.9 0 1.6-1.4 2.9-2.9 2.9zM183.1 59.1c-1.6 0-3-1.4-3-2.9 0-1.4 1.3-2.8 2.8-2.8 1.6 0 3.1 1.3 3.1 2.8-.1 1.4-1.4 2.9-2.9 2.9zm196.5 107.2c-1.6 0-3-1.3-3-2.9 0-1.5 1.4-2.8 3-2.8 1.7-.1 3 1.7 2.9 2.8 0 1.5-1.4 2.9-2.9 2.9zm-107.3 89.3c-1.5 0-2.9-1.4-2.9-2.9s1.4-2.9 3.1-2.8c1.5 0 2.8 1.4 2.8 2.8 0 1.6-1.5 3-3 2.9zm89.4-89.3c-1.6 0-3-1.4-2.9-3 0-1.5 1.4-2.7 2.9-2.8 1.6 0 3 1.2 3 2.7 0 1.6-1.4 3.1-3 3.1zm-17.9 0c-1.5 0-2.9-1.4-2.9-2.9s1.4-2.9 3-2.9c1.5 0 2.8 1.3 2.8 2.8.1 1.6-1.3 3-2.9 3zM200.9 59.1c-1.6 0-3-1.4-2.9-3 0-1.5 1.4-2.7 3-2.8 1.6 0 2.8 1.6 2.9 2.8 0 1.5-1.5 3-3 3zm125 107.2c-1.5 0-2.9-1.4-2.9-2.9s1.4-2.9 3-2.9c1.5 0 2.8 1.3 2.9 2.8 0 1.6-1.4 3-3 3zm-17.8 0c-1.6 0-3-1.4-3-3 0-1.5 1.4-2.8 2.9-2.8 1.6 0 3.1 1.3 3 2.9 0 1.5-1.4 2.9-2.9 2.9zm35.7-59.4c1.6 0 3 1.3 3 2.8 0 1.5-1.4 3-3 2.9-1.5 0-2.9-1.4-2.9-2.9 0-1.4 1.4-2.8 2.9-2.8zm-71.4 59.4c-1.6 0-3-1.4-2.9-3 0-1.5 1.4-2.7 2.9-2.8 1.6 0 3 1.2 3 2.7-.1 1.6-1.5 3.1-3 3.1zm-18 0c-1.5 0-2.9-1.4-2.9-2.9s1.4-2.9 3.1-2.8c1.5 0 2.8 1.4 2.8 2.8 0 1.5-1.4 2.9-3 2.9zM379.5 59.1c-1.6 0-3-1.4-2.9-3 0-1.5 1.4-2.7 3-2.8 1.6 0 2.8 1.6 2.9 2.8 0 1.5-1.4 3-3 3zM218.7 166.3c-1.5 0-2.9-1.4-2.9-2.9s1.4-2.9 3.1-2.8c1.5 0 2.8 1.3 2.8 2.8 0 1.5-1.4 2.9-3 2.9zm35.8 89.3c-1.6 0-3-1.4-3-3 0-1.4 1.4-2.7 2.9-2.8 1.9-.1 3 1.6 3 2.7.1 1.6-1.4 3.1-2.9 3.1zM397.4 59.1c-1.6 0-3-1.4-2.9-3 0-1.5 1.4-2.7 3-2.8 1.6 0 2.8 1.6 2.9 2.8 0 1.5-1.4 3-3 3zM165.1 255.6c-1.6 0-3-1.5-2.9-3 .1-1.5 1.5-2.8 3-2.7 1.5 0 2.8 1.3 2.9 2.8 0 1.5-1.4 3-3 2.9zm-17.8 0c-1.6 0-3-1.4-3-3 0-1.4 1.4-2.8 2.8-2.8 1.6 0 3 1.2 3 2.7.2 1.6-1.3 3.1-2.8 3.1zm315.6-11.8c0 1.5-1.4 2.9-2.8 3-1.6 0-2.9-1.4-2.9-3 0-1.5 1.4-2.9 2.9-2.9 1.4 0 2.8 1.4 2.8 2.9zm-17.9 0c0 1.5-1.3 3-2.8 3-1.5 0-2.9-1.4-2.9-3 0-1.5 1.3-2.9 2.9-2.9 1.4 0 2.8 1.3 2.8 2.9zm-169.7.1c0 1.5-1.5 2.9-3 2.9s-2.9-1.5-2.9-2.9c0-1.5 1.5-3 3-2.9 1.5-.1 2.9 1.4 2.9 2.9zm92.5-178.8c0-1.6 1.3-2.9 2.9-2.9 1.5 0 2.8 1.3 2.9 2.9.1 1.3-1.4 3-2.8 3-1.7 0-3-1.4-3-3zm17.8 0c0-1.6 1.3-2.9 2.9-2.9 1.5 0 2.8 1.3 2.9 2.9.1 1.3-1.4 3-2.8 3-1.7 0-3-1.4-3-3zm-95.4 172.7c-1.5 0-2.9-1.4-2.9-2.9s1.4-2.9 3.1-2.8c1.5 0 2.8 1.4 2.8 2.8 0 1.5-1.5 2.9-3 2.9zm17.9-89.4c-1.6 0-3-1.4-3-3 0-1.5 1.4-2.8 2.9-2.8 1.6 0 3 1.2 3 2.7.1 1.6-1.3 3.1-2.9 3.1zM272.3 232c1.6 0 3 1.3 3 2.8 0 1.5-1.4 3-3 3-1.5 0-2.9-1.3-2.9-2.9 0-1.5 1.3-2.9 2.9-2.9zM10.4 100.9c0-1.6 1.3-2.9 2.8-2.9 1.5 0 2.9 1.3 2.9 2.8 0 1.6-1.3 3-2.9 3-1.5 0-3-1.5-2.8-2.9zM254.5 232c1.8-.1 3 1.6 3 2.8 0 1.5-1.5 3-3 2.9-1.5 0-2.9-1.4-2.9-2.9-.1-1.4 1.3-2.8 2.9-2.8zm35.8-83.6c-1.6 0-3-1.4-3-2.9 0-1.4 1.3-2.8 2.8-2.8 1.6 0 3.1 1.3 3.1 2.8 0 1.5-1.4 2.9-2.9 2.9zM183 237.8c-1.6 0-3-1.4-3-3 0-1.4 1.4-2.7 2.9-2.8 1.6 0 3 1.2 3 2.7.1 1.6-1.3 3.1-2.9 3.1zm303.8-143c-1.6 0-3-1.4-3-3 0-1.5 1.4-2.7 3-2.8 1.8-.1 2.9 1.7 2.9 2.9 0 1.5-1.4 2.9-2.9 2.9zm-268 101.5c1.8-.1 2.9 1.7 2.9 2.8 0 1.5-1.5 2.9-3 2.9s-2.9-1.4-2.9-2.9 1.4-2.8 3-2.8zm-53.7 41.5c-1.6 0-3-1.4-2.9-3 0-1.5 1.4-2.7 3-2.8 1.5 0 2.8 1.5 2.9 2.8 0 1.5-1.4 3-3 3zm303.8-143c-1.6 0-3-1.4-3-3 0-1.5 1.4-2.7 3-2.8 1.7-.1 2.9 1.7 2.9 2.9 0 1.5-1.4 2.9-2.9 2.9zM236.6 196.3c1.8-.1 3 1.7 3 2.8 0 1.5-1.5 3-3 2.9-1.5 0-2.9-1.4-2.9-2.9s1.3-2.8 2.9-2.8zM165.1 76.9c-1.5 0-2.9-1.4-2.9-2.9s1.4-2.9 3.1-2.8c1.5 0 2.8 1.4 2.8 2.8 0 1.6-1.5 3-3 2.9zm-17.8 160.9c-1.6 0-3-1.4-3-3 0-1.4 1.4-2.8 2.8-2.8 1.6 0 3 1.2 3 2.7.2 1.6-1.3 3.1-2.8 3.1zm303.8-143c-1.6 0-3-1.4-3-3 0-1.5 1.4-2.7 3-2.8 1.8-.1 2.9 1.8 2.9 2.9 0 1.5-1.4 2.9-2.9 2.9zM254.4 202c-1.5 0-2.9-1.4-2.9-2.9s1.4-2.9 3.1-2.8c1.5 0 2.8 1.4 2.8 2.8 0 1.5-1.4 3-3 2.9zM183 76.9c-1.6 0-3-1.4-3-3 0-1.4 1.3-2.8 2.8-2.8 1.6 0 3.1 1.3 3 2.8.1 1.6-1.3 3-2.8 3zm274.1 149c0-1.5 1.3-2.9 2.9-2.9 1.5 0 2.9 1.3 2.9 2.9 0 1.5-1.3 3-2.8 3-1.6 0-3-1.4-3-3zm-220.5-77.5c-1.5 0-2.9-1.3-2.9-2.9 0-1.5 1.4-2.9 3-2.9 1.5 0 2.8 1.3 2.9 2.8 0 1.6-1.5 3-3 3zM326 76.9c-1.6 0-3-1.4-3-2.9 0-1.4 1.3-2.8 2.8-2.8 1.6 0 3.1 1.3 3.1 2.8 0 1.5-1.4 2.9-2.9 2.9zm-178.7 47.9c1.8-.1 3 1.7 2.9 2.8 0 1.5-1.5 3-3 2.9-1.5 0-2.9-1.4-2.9-2.9s1.4-2.8 3-2.8zm196.5-47.9c-1.5 0-2.9-1.4-2.9-2.9s1.4-2.9 3.1-2.8c1.5 0 2.8 1.4 2.8 2.8 0 1.6-1.5 3-3 2.9zm-107.2 53.7c-1.5 0-2.9-1.4-2.9-2.9s1.4-2.9 3.1-2.8c1.5 0 2.8 1.3 2.8 2.8 0 1.4-1.5 2.9-3 2.9zm17.8-5.8c1.6 0 3 1.3 3 2.8 0 1.5-1.4 3-3 3-1.5 0-2.9-1.3-2.9-2.9 0-1.5 1.4-2.9 2.9-2.9zm17.9 5.8c-1.6 0-3-1.5-2.9-3 .1-1.5 1.4-2.8 3-2.7 1.5 0 2.8 1.3 2.9 2.8 0 1.4-1.4 2.9-3 2.9zm89.4-53.7c-1.6 0-3-1.5-2.9-3 .1-1.5 1.5-2.8 3-2.7 1.5 0 2.8 1.3 2.9 2.8 0 1.5-1.5 3-3 2.9zm-71.5 53.7c-1.5 0-2.9-1.4-2.9-2.9s1.4-2.9 3.1-2.8c1.5 0 2.8 1.3 2.8 2.8 0 1.4-1.5 2.9-3 2.9zm119.1 95.3c0 1.5-1.4 3-2.8 3-1.6 0-2.9-1.4-2.9-3 0-1.5 1.4-2.9 2.9-2.9 1.4 0 2.8 1.4 2.8 2.9zm-101.2-95.3c-1.5 0-2.9-1.3-2.9-2.9 0-1.5 1.4-2.9 3-2.9 1.5 0 2.8 1.3 2.9 2.8 0 1.5-1.5 3-3 3zm71.5-53.7c-1.6 0-3-1.3-3-2.9 0-1.5 1.4-2.8 2.9-2.8 1.6 0 3 1.3 2.9 2.8.1 1.5-1.3 2.9-2.8 2.9zm-53.7 53.7c-1.5 0-2.9-1.4-2.9-2.9s1.4-2.9 3.1-2.8c1.5 0 2.8 1.4 2.8 2.8 0 1.5-1.4 2.9-3 2.9zm71.5-53.7c-1.6 0-3-1.4-2.9-3 0-1.5 1.4-2.7 3-2.8 1.7 0 2.9 1.7 2.9 2.9-.1 1.6-1.5 3-3 2.9zm-53.6 53.7c-1.5 0-2.9-1.4-2.9-2.9s1.4-2.9 3-2.9c1.5 0 2.8 1.3 2.8 2.8.1 1.5-1.3 3-2.9 3zm-50.6 95.3c0 1.5-1.4 2.9-2.9 3-1.4 0-2.9-1.4-3-2.9 0-1.5 1.4-3 3-3 1.4 0 2.9 1.5 2.9 2.9zm68.5-101.1c1.6 0 3 1.3 2.9 2.8 0 1.5-1.5 3-3 2.9-1.5 0-2.9-1.4-2.9-2.9.1-1.5 1.4-2.8 3-2.8zm-86.4 101.1c0 1.5-1.4 2.9-2.9 3-1.4 0-2.9-1.4-3-2.9-.1-1.5 1.4-3 3-3 1.4 0 2.9 1.4 2.9 2.9zm104.3-95.3c-1.6 0-3-1.4-2.9-3 0-1.5 1.4-2.7 3-2.8 1.6-.1 2.9 1.6 2.9 2.9-.1 1.5-1.5 2.9-3 2.9zm-122.2 95.3c0 1.5-1.4 2.9-2.9 3-1.4.1-2.9-1.3-3-2.8-.1-1.5 1.4-3 2.9-3 1.5-.1 3 1.3 3 2.8zm140.1-95.3c-1.6 0-3-1.3-3-2.9 0-1.5 1.4-2.8 2.9-2.8 1.8-.1 3 1.7 3 2.8 0 1.4-1.4 2.8-2.9 2.9zm53.6-53.7c-1.6 0-3-1.3-3-2.9 0-1.5 1.4-2.8 3-2.8s2.9 1.4 2.9 2.8c0 1.5-1.4 2.9-2.9 2.9zM10.4 83c0-1.6 1.3-2.9 2.8-2.9 1.5 0 2.9 1.3 2.9 2.9 0 1.6-1.4 3-2.9 3-1.5-.1-3-1.6-2.8-3zm229.2 143c0 1.5-1.5 2.9-2.9 2.9s-2.9-1.5-3-2.9c0-1.5 1.5-3 3-3 1.4 0 2.9 1.5 2.9 3zm193.6-101.2c1.6 0 3 1.3 3 2.8 0 1.5-1.4 2.9-2.9 2.9-1.6 0-3-1.3-3-2.9-.1-1.5 1.3-2.8 2.9-2.8zM221.7 225.9c0 1.5-1.4 2.9-2.9 3-1.4 0-2.9-1.4-3-2.9-.1-1.5 1.4-3 3-3 1.4 0 2.9 1.4 2.9 2.9zM469 130.6c-1.6 0-3-1.3-3-2.9 0-1.5 1.4-2.8 2.9-2.8 1.8-.1 3 1.7 3 2.8 0 1.4-1.4 2.8-2.9 2.9zM165.2 240.9c1.5 0 2.9 1.4 2.9 2.9s-1.4 2.9-2.9 3c-1.4 0-2.9-1.4-3-2.9-.1-1.5 1.4-3 3-3zm0-12c-1.4 0-2.9-1.4-3-2.9 0-1.5 1.5-3 3-3s2.9 1.5 2.9 2.9c0 1.5-1.5 3-2.9 3zm-18 0c-1.5 0-2.9-1.5-2.9-2.9 0-1.5 1.5-3 3-2.9 1.4 0 2.9 1.5 2.8 3 .1 1.4-1.4 2.8-2.9 2.8zm-14.9-2.9c0 1.5-1.5 2.9-3 2.9s-2.9-1.5-2.9-2.9c0-1.5 1.5-2.9 2.9-2.9 1.6-.1 3.1 1.4 3 2.9zm318.7-6.1c-1.6 0-3-1.4-2.9-3 0-1.5 1.4-2.7 3-2.8 1.5 0 2.8 1.5 2.9 2.8 0 1.6-1.4 3-3 3zm-65.4-137c0-1.5 1.4-2.9 2.9-2.8 1.5 0 2.8 1.4 2.8 2.9s-1.5 3-2.9 2.9c-1.7-.1-3-1.7-2.8-3zM236.6 211c-1.4 0-2.9-1.5-3-2.9 0-1.5 1.4-2.9 2.9-3 1.5 0 3 1.4 3 3 .1 1.5-1.4 2.9-2.9 2.9zm3-20.8c0 1.5-1.5 2.9-2.9 2.9s-2.9-1.5-3-2.9c0-1.5 1.5-3 3-3 1.5.1 2.9 1.6 2.9 3zM403.5 82.9c0-1.6 1.3-2.9 2.9-2.9 1.5 0 2.8 1.4 2.9 2.9.1 1.3-1.4 3-2.9 3-1.6 0-2.9-1.3-2.9-3zm17.9 0c0-1.6 1.4-2.9 2.9-2.9s2.8 1.4 2.9 2.9c.1 1.3-1.4 3-2.9 3-1.9-.1-3.1-1.7-2.9-3zm-41.8 65.5c-1.6 0-3-1.4-2.9-3 0-1.5 1.4-2.7 3-2.8 1.6-.1 2.9 1.6 2.9 2.9-.1 1.6-1.5 2.9-3 2.9zm-89.3 65.8c1.6 0 2.9 1.4 2.9 2.9-.1 1.5-1.5 2.9-3 2.8-1.6 0-3-1.5-2.9-3 0-1.5 1.4-2.8 3-2.7zm71.4-65.8c-1.6 0-3-1.4-3-3 0-1.5 1.4-2.8 2.9-2.8 1.6 0 3.1 1.3 3 2.9 0 1.5-1.4 2.9-2.9 2.9zm-89.3 65.8c1.7-.1 2.9 1.6 2.9 2.9 0 1.5-1.4 2.9-2.9 2.9-1.6 0-3-1.4-3-3s1.4-2.9 3-2.8zm71.4-65.8c-1.5 0-2.9-1.4-2.9-2.9s1.4-2.9 3.1-2.8c1.5 0 2.8 1.4 2.8 2.8 0 1.5-1.5 2.9-3 2.9zm-71.4 0c-1.6 0-3-1.4-3-2.9 0-1.4 1.3-2.8 2.8-2.8 1.6 0 3.1 1.3 3.1 2.8 0 1.5-1.4 2.9-2.9 2.9zm53.5-5.7c1.6 0 3 1.3 3 2.8 0 1.5-1.4 3-3 3-1.5 0-2.9-1.3-2.9-2.9 0-1.5 1.4-2.9 2.9-2.9zm-71.4 71.5c1.7-.1 2.9 1.6 2.9 2.8 0 1.5-1.5 3-3 2.9-1.5 0-2.9-1.4-2.9-2.9.1-1.5 1.4-2.9 3-2.8zm-89.4 59.3c-1.5 0-2.9-1.4-2.9-2.9s1.4-2.9 3.1-2.8c1.5 0 2.8 1.4 2.8 2.8 0 1.5-1.5 2.9-3 2.9zm89.4 0c-1.6 0-3-1.5-2.9-3 .1-1.5 1.5-2.8 3-2.7 1.5 0 2.8 1.3 2.9 2.8 0 1.5-1.5 2.9-3 2.9zm17.9-5.7c1.7-.1 2.9 1.6 2.9 2.9 0 1.5-1.4 2.9-2.9 2.9-1.6 0-3-1.4-3-3s1.4-2.9 3-2.8zm17.8 0c1.8-.1 3 1.6 3 2.8 0 1.5-1.5 3-3 2.9-1.5 0-2.9-1.4-2.9-2.9s1.4-2.8 2.9-2.8zm125.2 0c1.7-.1 2.9 1.7 2.9 2.9-.1 1.5-1.4 2.9-2.9 2.9-1.6 0-3-1.4-3-3s1.4-2.9 3-2.8zm17.8 5.7c-1.6 0-3-1.4-2.9-3 0-1.5 1.4-2.7 3-2.8 1.6-.1 2.9 1.5 2.9 2.8 0 1.5-1.5 3-3 3zm-196.6-53.6c-1.6 0-3-1.5-2.9-3 .1-1.5 1.4-2.8 3-2.7 1.5 0 2.8 1.3 2.9 2.8 0 1.5-1.5 2.9-3 2.9zM469 273.5c-1.6 0-3-1.3-3-2.9 0-1.5 1.4-2.8 2.9-2.8 1.8-.1 3 1.7 3 2.8 0 1.5-1.4 2.9-2.9 2.9zm-193.7 6c0 1.5-1.4 2.9-2.9 3-1.4.1-2.9-1.3-3-2.8-.1-1.5 1.4-3 2.9-3 1.5-.1 3 1.3 3 2.8zm17.9 0c0 1.5-1.4 2.9-2.9 3-1.4 0-2.9-1.4-3-2.9-.1-1.5 1.4-3 3-3 1.4 0 2.9 1.4 2.9 2.9zm110.3.1c0-1.6 1.3-2.9 2.8-2.9 1.5 0 2.8 1.3 2.9 2.8.1 1.4-1.4 3.1-2.9 3-1.5 0-2.8-1.4-2.8-2.9zm-149-131.2c-1.6 0-3-1.4-3-3 0-1.5 1.3-2.8 2.8-2.8 1.6 0 3.1 1.3 3 2.8.1 1.6-1.3 3-2.8 3zM445 279.5c0 1.6-1.4 3.1-2.9 3-1.5 0-2.8-1.4-2.8-3 0-1.5 1.3-2.9 2.8-2.9 1.5 0 2.9 1.3 2.9 2.9zm-226.3-59.6c-1.5 0-2.9-1.3-2.9-2.9 0-1.5 1.4-2.9 3-2.9 1.5 0 2.8 1.3 2.9 2.8 0 1.6-1.4 3-3 3zm238.4 59.6c0-1.5 1.3-2.9 2.9-2.9 1.5 0 2.9 1.3 2.9 2.9 0 1.5-1.3 3-2.8 3-1.6.1-3-1.4-3-3zM272.3 202c-1.5 0-2.9-1.3-2.9-2.9 0-1.5 1.4-2.9 3-2.9 1.5 0 2.8 1.3 2.9 2.8 0 1.6-1.4 3-3 3zm-125 89.4c-1.6 0-3-1.3-3-2.9 0-1.4 1.3-2.8 2.8-2.8 1.6 0 3.1 1.3 3.1 2.8 0 1.4-1.4 2.9-2.9 2.9zm107.1 0c-1.5 0-2.9-1.4-2.9-2.9s1.4-2.9 3.1-2.8c1.5 0 2.8 1.4 2.8 2.8 0 1.5-1.4 2.9-3 2.9zm196.6 0c-1.6 0-3-1.4-2.9-3 0-1.5 1.4-2.7 3-2.8 1.5 0 2.8 1.5 2.9 2.8 0 1.5-1.4 3-3 3zm35.8 0c-1.6 0-3-1.4-3-3 0-1.5 1.4-2.7 3-2.8 1.7-.1 2.9 1.7 2.9 2.9 0 1.5-1.4 2.9-2.9 2.9zM433.2 94.8c-1.6 0-3-1.3-3-2.9 0-1.5 1.4-2.8 2.9-2.8 1.6 0 3 1.3 3 2.8 0 1.5-1.4 2.9-2.9 2.9zM93.7 148.4c-1.6 0-3-1.4-3-3 0-1.5 1.4-2.7 2.8-2.8 1.5-.1 3 1.2 3 2.7.2 1.6-1.3 3.1-2.8 3.1zm17.8 0c-1.5 0-2.9-1.4-2.9-2.9s1.4-2.9 3.1-2.8c1.5 0 2.8 1.4 2.8 2.8 0 1.5-1.5 2.9-3 2.9zm17.8 0c-1.5 0-2.9-1.4-2.9-2.9s1.4-2.9 3.1-2.8c1.5.1 2.8 1.4 2.8 2.8 0 1.5-1.4 2.9-3 2.9zm-53.5 17.9c-1.6 0-3-1.3-3-2.9 0-1.4 1.3-2.7 2.8-2.8 1.6-.1 3.1 1.4 3.1 2.8 0 1.5-1.4 2.9-2.9 2.9zm17.8 0c-1.6 0-3-1.4-2.9-3 0-1.5 1.4-2.7 2.9-2.8 1.4-.1 3 1.2 3 2.8 0 1.5-1.4 3-3 3zm18-5.8c1.6 0 2.9 1.4 2.9 2.9 0 1.6-1.5 2.9-3.1 2.9-1.5 0-2.8-1.5-2.8-3s1.4-2.8 3-2.8zm-35.8 23.7c-1.6 0-3-1.4-2.9-3 0-1.5 1.4-2.7 2.9-2.8 1.4-.1 3 1.2 3 2.8 0 1.5-1.5 3-3 3zm17.9 0c-1.6 0-3-1.4-2.9-3 0-1.5 1.4-2.7 2.9-2.8 1.4-.1 3 1.2 3 2.8 0 1.5-1.5 3-3 3zm-.1 12.1c1.4-.2 2.9 1.2 3 2.8 0 1.5-1.4 3-3 3-1.5 0-2.9-1.4-2.9-2.9 0-1.6 1.4-2.9 2.9-2.9zm17.9 5.7c-1.6 0-3-1.4-2.9-3 0-1.5 1.4-2.7 2.9-2.8 1.4-.1 3 1.2 3 2.8 0 1.6-1.4 3-3 3zm17.9 12.2c1.6 0 2.9 1.4 2.9 2.9s-1.5 2.9-3.1 2.9c-1.5 0-2.9-1.4-2.8-3 .1-1.6 1.5-2.9 3-2.8zm0 23.6c-1.5 0-2.9-1.3-2.9-2.9 0-1.5 1.4-2.8 2.9-2.9 1.4-.1 2.9 1.2 3 2.8 0 1.5-1.5 3-3 3zm2.9 6c0 1.5-1.5 2.9-2.9 2.9s-2.9-1.5-2.9-2.9c0-1.5 1.5-3 3-3 1.4.1 2.9 1.6 2.8 3zm17.9 0c0 1.5-1.5 2.9-2.9 2.9-1.5 0-2.9-1.5-2.9-2.9 0-1.5 1.5-3 3-3 1.4.1 2.8 1.6 2.8 3zm35.8 0c0 1.5-1.4 2.9-2.9 3-1.4.1-2.9-1.3-3-2.8-.1-1.5 1.4-3 2.9-3 1.5-.1 2.9 1.3 3 2.8zm-56.6 11.8c-1.6 0-3-1.4-3-3 0-1.4 1.3-2.7 2.8-2.8 1.5-.1 3 1.2 3 2.7.2 1.6-1.2 3.1-2.8 3.1zm20.8 6.1c0 1.5-1.4 2.9-2.9 3-1.4 0-2.9-1.4-3-2.9-.1-1.5 1.4-3 3-3 1.5 0 2.9 1.4 2.9 2.9zm15 2.9c-1.4 0-2.9-1.4-3-2.9 0-1.4 1.4-2.9 2.9-3 1.5-.1 3 1.4 3 2.9 0 1.6-1.5 3-2.9 3zm92.2-2.9c0 1.5-1.4 2.9-2.9 3-1.4 0-2.9-1.4-3-2.9-.1-1.5 1.4-3 3-3 1.5 0 2.9 1.4 2.9 2.9zm17.9 0c0 1.5-1.5 2.9-2.9 2.9s-2.9-1.5-2.9-2.9c0-1.5 1.5-3 3-2.9 1.4 0 2.8 1.5 2.8 2.9zM75.8 76.9c-1.5 0-2.9-1.3-2.9-2.9 0-1.5 1.4-2.8 2.9-2.9 1.5-.1 3 1.3 3 2.8 0 1.6-1.5 3.1-3 3zm17.8 0c-1.5 0-2.9-1.4-2.9-2.9s1.4-2.8 2.9-2.8c1.6 0 3 1.3 3 2.8 0 1.5-1.4 3-3 2.9zm17.9 0c-1.5 0-2.9-1.4-2.9-2.9s1.4-2.9 2.9-2.9c1.6 0 3 1.3 3 2.8 0 1.6-1.5 3.1-3 3zM22.1 89.1c1.5-.1 3 1.3 3 2.7.1 1.5-1.4 3-2.9 3s-2.9-1.3-3-2.8c0-1.5 1.4-2.9 2.9-2.9zm17.9 0c1.4-.1 2.9 1.3 3 2.8 0 1.5-1.4 3-3 2.9-1.5 0-2.9-1.4-2.9-2.9s1.4-2.8 2.9-2.8zm18 5.7c-1.6 0-3-1.3-3-2.9 0-1.4 1.3-2.7 2.8-2.8 1.6-.1 3.1 1.4 3.1 2.8 0 1.5-1.4 2.9-2.9 2.9zm17.8 0c-1.6 0-3-1.4-3-3 0-1.4 1.4-2.7 2.8-2.8 1.6-.1 3.1 1.4 3.1 2.9s-1.4 2.9-2.9 2.9zm-53.7 12.1c1.4-.1 3 1.3 3 2.8 0 1.5-1.4 3-3 3-1.5 0-2.9-1.3-2.9-2.9 0-1.5 1.4-2.9 2.9-2.9zm125.2 175.6c-1.4 0-2.9-1.4-3-2.9 0-1.4 1.4-2.9 2.9-3 1.5-.1 3 1.4 3 2.9s-1.4 3-2.9 3zm107.1 0c-1.5 0-2.9-1.5-2.9-3s1.6-3 3.1-2.9c1.5.1 2.9 1.6 2.8 3 0 1.5-1.5 2.9-3 2.9zM40 106.9c1.5-.1 3 1.3 3 2.8 0 1.5-1.4 3-3 3-1.5 0-2.9-1.3-2.9-2.9 0-1.5 1.3-2.9 2.9-2.9zm17.9 0c1.5-.1 3 1.3 3 2.8 0 1.5-1.4 3-3 3-1.5 0-2.9-1.3-2.9-2.9-.1-1.5 1.3-2.9 2.9-2.9zm17.8 0c1.5-.1 3 1.3 3 2.7.1 1.5-1.4 3-2.9 3s-2.9-1.3-2.9-2.8c-.1-1.4 1.3-2.8 2.8-2.9zm18 5.8c-1.6 0-3-1.4-3-3 0-1.4 1.4-2.7 2.8-2.8 1.5-.1 3 1.3 3 2.7.2 1.6-1.3 3.1-2.8 3.1zm35.7-5.8c1.6 0 3 1.4 2.9 2.8 0 1.5-1.5 2.9-3 2.9s-2.9-1.4-2.9-2.9c.1-1.5 1.5-2.8 3-2.8zM40 124.8c1.4-.2 3 1.2 3 2.8 0 1.5-1.4 3-3 3-1.5 0-2.9-1.3-2.9-2.9 0-1.5 1.4-2.9 2.9-2.9zm18 5.8c-1.6 0-3-1.4-3-2.9 0-1.4 1.3-2.7 2.8-2.8 1.6-.1 3.1 1.4 3.1 2.9 0 1.3-1.4 2.7-2.9 2.8zm17.8-5.8c1.4-.2 2.9 1.2 3 2.8 0 1.5-1.4 3-3 3-1.5 0-2.9-1.3-2.9-2.9-.1-1.5 1.3-2.9 2.9-2.9zm53.6 160.8c1.4-.2 3 1.2 3 2.8 0 1.5-1.4 3-3 3-1.5 0-2.9-1.3-2.9-2.9-.1-1.5 1.3-2.9 2.9-2.9zM93.6 124.8c1.4-.2 3 1.2 3 2.8 0 1.5-1.4 3-3 3-1.5 0-2.9-1.3-2.9-2.9 0-1.5 1.3-2.9 2.9-2.9zm35.8 0c1.3-.1 2.9 1.2 3 2.8 0 1.5-1.4 3-3 2.9-1.5 0-2.9-1.4-2.9-2.9-.1-1.4 1.3-2.8 2.9-2.8zm-71.5 17.9c1.4-.2 3 1.2 3 2.8 0 1.5-1.4 3-3 3-1.5 0-2.9-1.3-2.9-2.9-.1-1.5 1.3-2.9 2.9-2.9zm17.8 5.7c-1.5 0-2.9-1.4-2.9-2.9s1.4-2.8 2.9-2.9c1.3-.1 2.9 1.2 3 2.8.1 1.6-1.4 3-3 3zm56.6 149c0 1.5-1.5 2.9-2.9 2.9s-2.9-1.4-2.9-2.9 1.5-3 3-3c1.4.1 2.9 1.6 2.8 3zm122.2-56.5c1.5 0 2.9 1.4 2.9 2.9s-1.5 3-3 3c-1.5-.1-2.9-1.5-2.9-3 .1-1.5 1.6-2.9 3-2.9zm-125.1 68.3c-1.6 0-3-1.4-2.9-3 0-1.4 1.4-2.7 2.9-2.8 1.4-.1 3 1.2 3 2.8 0 1.6-1.4 3-3 3zm0 3.2c1.5 0 2.9 1.5 2.9 2.9 0 1.5-1.5 3-3 3-1.5-.1-2.9-1.5-2.9-3 .1-1.5 1.6-3 3-2.9zM302 172.3c0 1.6-1.3 3-2.9 3-1.4 0-2.8-1.4-2.8-3 0-1.5 1.3-2.9 2.9-2.9 1.5 0 2.8 1.3 2.8 2.9zm47.9 0c0-1.5 1.4-2.9 2.9-2.9s2.9 1.3 2.9 2.9c0 1.6-1.3 3-2.9 3-1.5 0-2.9-1.5-2.9-3zM284.2 208c0 1.6-1.3 3-2.9 3-1.4 0-2.8-1.5-2.8-3s1.4-2.9 2.9-2.9c1.4.1 2.8 1.4 2.8 2.9zm71.4-17.8c0 1.6-1.3 3-2.9 3-1.4 0-2.8-1.5-2.8-3s1.3-2.9 2.9-2.9c1.5 0 2.8 1.3 2.8 2.9zm-35.7-.1c0 1.6-1.3 3-2.9 3-1.4 0-2.8-1.4-2.8-3 0-1.5 1.3-2.9 2.9-2.9 1.4.1 2.8 1.4 2.8 2.9zm17.9-17.7c0 1.6-1.4 3-3 2.9-1.4 0-2.8-1.5-2.7-3 0-1.5 1.4-2.9 2.9-2.8 1.5 0 2.8 1.3 2.8 2.9zM87.6 190.2c0 1.6-1.4 3-3 3-1.4 0-2.8-1.5-2.8-3s1.4-2.9 2.9-2.9c1.6 0 2.9 1.3 2.9 2.9zm268-35.7c0 1.6-1.5 3-3 2.9-1.4 0-2.8-1.5-2.7-3.1 0-1.5 1.4-2.9 3-2.8 1.5.1 2.8 1.4 2.7 3zM284.2 83c0 1.6-1.4 3-3 2.9-1.4 0-2.8-1.5-2.8-3s1.4-2.9 2.9-2.8c1.6 0 2.9 1.3 2.9 2.9zm71.4 0c0 1.6-1.5 3-3 2.9-1.4 0-2.8-1.5-2.7-3 0-1.5 1.4-2.9 2.9-2.8 1.6 0 2.9 1.4 2.8 2.9zm0 17.9c0 1.6-1.5 3-3 2.9-1.4-.1-2.8-1.5-2.7-3.1 0-1.5 1.4-2.9 3-2.8 1.5.1 2.8 1.4 2.7 3zm-130.8 89.3c0-1.5 1.3-2.9 2.8-2.9 1.5 0 2.9 1.3 2.9 2.8 0 1.6-1.3 3-2.9 3-1.4.1-2.8-1.4-2.8-2.9zm113-89.3c0 1.6-1.5 3-3 2.9-1.4-.1-2.8-1.5-2.7-3.1 0-1.5 1.4-2.9 3-2.8 1.4.1 2.7 1.4 2.7 3zm-89.4 89.2c0 1.6-1.3 3-2.9 3-1.4 0-2.8-1.4-2.8-2.9s1.3-2.9 2.8-2.9c1.6 0 2.9 1.3 2.9 2.8zM159.1 83c0 1.6-1.5 3-3 2.9-1.4-.1-2.8-1.5-2.7-3.1 0-1.5 1.4-2.9 3-2.8 1.4.1 2.7 1.5 2.7 3zm-23.6 142.9c0-1.5 1.3-2.9 2.8-2.9 1.5 0 2.9 1.3 2.9 2.8 0 1.6-1.3 3-2.9 3-1.4.1-2.8-1.3-2.8-2.9zm202.3-107.1c0 1.6-1.5 3-3 2.9-1.4-.1-2.8-1.5-2.7-3.1 0-1.5 1.4-2.9 3-2.8 1.4 0 2.7 1.4 2.7 3zm-17.9-.1c0 1.6-1.4 3-3 3-1.4 0-2.8-1.5-2.8-3s1.4-2.9 2.9-2.9c1.6 0 2.9 1.4 2.9 2.9zM171.2 83c0-1.5 1.3-2.9 2.9-2.9 1.5 0 2.9 1.3 2.9 2.9 0 1.6-1.3 3-2.9 3-1.5-.1-2.9-1.5-2.9-3zm23.6 0c0 1.6-1.4 3-3 2.9-1.4 0-2.8-1.5-2.8-3s1.4-2.9 2.9-2.8c1.6 0 2.9 1.3 2.9 2.9zm125.1 17.8c0 1.6-1.3 3-2.9 3-1.4 0-2.8-1.4-2.8-3 0-1.5 1.3-2.9 2.9-2.9 1.4 0 2.8 1.4 2.8 2.9zm-53.6 89.4c0 1.6-1.4 3-3 3-1.4 0-2.8-1.5-2.8-3s1.4-2.9 2.9-2.8c1.6-.1 2.9 1.2 2.9 2.8zm35.7-89.3c0 1.6-1.5 3-3 2.9-1.4 0-2.8-1.5-2.7-3 0-1.5 1.4-2.9 2.9-2.8 1.6 0 2.9 1.3 2.8 2.9zm-17.8 89.2c0 1.6-1.3 3-2.9 3-1.4 0-2.8-1.4-2.8-3 0-1.5 1.3-2.9 2.9-2.9 1.4.1 2.8 1.4 2.8 2.9zm0-89.3c0 1.6-1.3 3-2.9 3-1.4 0-2.8-1.4-2.9-2.9 0-1.5 1.3-2.9 2.8-2.9 1.6-.1 2.9 1.2 3 2.8zm17.8 17.8c0 1.6-1.3 3-2.9 3-1.4 0-2.8-1.4-2.9-2.9 0-1.5 1.3-2.9 2.8-2.9 1.7 0 3 1.3 3 2.8zm0 71.6c0 1.6-1.4 3-2.9 3-1.4 0-2.8-1.5-2.8-3s1.3-2.9 2.9-2.9c1.5 0 2.8 1.3 2.8 2.9zm-17.8-71.5c0 1.6-1.3 3-2.9 3-1.4 0-2.8-1.4-2.8-3 0-1.5 1.3-2.9 2.9-2.9 1.4 0 2.8 1.3 2.8 2.9zm-17.9 0c0 1.6-1.4 3-2.9 3-1.4 0-2.8-1.5-2.8-3s1.3-2.9 2.9-2.9c1.5 0 2.8 1.3 2.8 2.9zm0-17.9c0 1.6-1.4 3-3 3-1.4 0-2.8-1.5-2.8-3s1.4-2.9 2.9-2.9c1.6 0 2.9 1.4 2.9 2.9zm-17.9 17.9c0 1.6-1.4 3-3 2.9-1.4 0-2.8-1.5-2.8-3s1.4-2.9 2.9-2.8c1.6 0 2.9 1.4 2.9 2.9zm-77.2-17.9c0-1.5 1.3-2.9 2.9-2.9 1.5 0 2.9 1.3 2.9 2.9 0 1.6-1.3 3-2.9 3-1.5 0-2.9-1.4-2.9-3zm-30 17.9c0 1.6-1.5 3-3 2.9-1.4 0-2.8-1.5-2.7-3 0-1.5 1.4-2.9 2.9-2.8 1.5 0 2.8 1.4 2.8 2.9zm-17.9-17.8c0 1.6-1.5 3-3 2.9-1.4 0-2.8-1.5-2.7-3.1 0-1.5 1.4-2.9 2.9-2.8 1.6.1 2.9 1.4 2.8 3zm0 17.9c0 1.5-1.5 2.9-3 2.8-1.7 0-2.9-1.8-2.8-3.1.1-1.5 1.4-2.8 2.9-2.7 1.7 0 3 1.4 2.9 3zm-17.8-.1c0 1.6-1.3 3-2.9 3-1.4 0-2.8-1.4-2.8-3 0-1.5 1.3-2.9 2.8-2.9 1.5 0 2.9 1.3 2.9 2.9zm0-17.8c0 1.6-1.5 3-3 2.9-1.4 0-2.8-1.5-2.7-3 0-1.5 1.4-2.9 2.9-2.8 1.5 0 2.8 1.3 2.8 2.9zm-17.9 17.8c0 1.6-1.4 3-2.9 3-1.4 0-2.8-1.4-2.8-3 0-1.5 1.4-2.9 2.9-2.9s2.8 1.3 2.8 2.9zm-5.7-17.9c0-1.5 1.4-2.9 2.9-2.8 1.5 0 2.8 1.4 2.8 2.9 0 1.6-1.4 3-3 2.9-1.4 0-2.8-1.5-2.7-3zm-12.2 0c0 1.6-1.3 3-2.9 3-1.4 0-2.8-1.4-2.9-2.9 0-1.5 1.3-2.9 2.8-2.9 1.6-.1 3 1.2 3 2.8zm0 17.9c0 1.6-1.4 3-2.9 3-1.4 0-2.8-1.5-2.8-3s1.4-2.9 2.9-2.9 2.8 1.3 2.8 2.9zM34 100.9c0 1.6-1.4 3-3 2.9-1.4 0-2.8-1.5-2.8-3s1.4-2.9 2.9-2.8c1.6 0 2.9 1.3 2.9 2.9zm12.1 17.9c0-1.5 1.3-2.9 2.8-3 1.5 0 2.9 1.3 2.9 2.8 0 1.6-1.3 3-2.9 3-1.3.1-2.8-1.3-2.8-2.8zm23.6 53.5c0 1.6-1.4 3-2.9 3-1.4 0-2.8-1.5-2.8-3s1.4-2.9 2.9-2.9 2.8 1.4 2.8 2.9zM34 118.6c0 1.6-1.3 3-2.9 3-1.4 0-2.8-1.4-2.9-2.9 0-1.5 1.3-2.9 2.8-2.9 1.6 0 3 1.3 3 2.8zm53.6 53.7c0 1.6-1.3 3-2.9 3-1.4 0-2.8-1.4-2.8-2.9s1.3-2.9 2.8-2.9c1.5-.1 2.9 1.2 2.9 2.8zm268-35.8c0 1.6-1.3 3-2.9 3-1.4 0-2.8-1.4-2.8-3 0-1.5 1.3-2.9 2.9-2.9 1.5.1 2.8 1.4 2.8 2.9zM99.7 172.3c0-1.5 1.3-2.9 2.8-2.9 1.5 0 2.9 1.3 2.9 2.8 0 1.6-1.3 3-2.9 3-1.4.1-2.8-1.3-2.8-2.9zm113 35.7c0 1.6-1.3 3-2.9 3-1.4 0-2.8-1.4-2.8-2.9s1.3-2.9 2.8-2.9c1.5-.1 2.9 1.3 2.9 2.8zm-95.1-35.7c0-1.5 1.3-2.9 2.8-2.9 1.5 0 2.9 1.3 2.9 2.9 0 1.6-1.3 3-2.9 3-1.4 0-2.8-1.5-2.8-3zm148.7 35.8c0 1.6-1.4 3-3 3-1.4 0-2.8-1.5-2.8-3s1.4-2.9 2.9-2.9c1.6 0 2.9 1.3 2.9 2.9zm-35.7 0c0 1.6-1.5 3-3 2.9-1.4 0-2.8-1.5-2.8-3s1.4-2.9 2.9-2.8c1.6 0 2.9 1.3 2.9 2.9zM46.1 100.8c0-1.5 1.4-2.9 2.9-2.9s2.8 1.4 2.8 2.9c0 1.6-1.4 3-3 3-1.3 0-2.7-1.5-2.7-3zm268.1 71.5c0-1.5 1.3-2.9 2.9-2.9 1.5 0 2.9 1.3 2.9 2.9 0 1.6-1.3 3-2.9 3-1.5 0-2.9-1.5-2.9-3zm23.6-35.8c0 1.6-1.3 3-2.9 3-1.4 0-2.8-1.4-2.9-2.9 0-1.5 1.3-2.9 2.8-2.9 1.6-.1 3 1.3 3 2.8zm-35.8 18c0 1.6-1.4 3-3 2.9-1.4 0-2.8-1.5-2.8-3s1.4-2.9 2.9-2.8c1.7 0 3 1.3 2.9 2.9zm-53.6 53.6c0 1.6-1.4 3-3 2.9-1.4 0-2.8-1.5-2.8-3s1.4-2.9 2.9-2.8c1.6 0 2.9 1.3 2.9 2.9zm-89.3 17.8c0 1.6-1.3 3-2.9 3-1.4 0-2.8-1.4-2.9-2.9 0-1.5 1.3-2.9 2.8-2.9 1.6-.1 3 1.2 3 2.8zM105.5 83c0 1.6-1.5 3-3 2.9-1.4 0-2.8-1.5-2.7-3 0-1.5 1.4-2.9 2.9-2.8 1.5 0 2.8 1.4 2.8 2.9zm-17.9-.1c0 1.6-1.4 3-2.9 3-1.4 0-2.8-1.4-2.8-3 0-1.5 1.4-2.9 2.9-2.9 1.5.1 2.8 1.4 2.8 2.9zm143 142.9c0 1.6-1.3 3-2.9 3-1.4 0-2.8-1.4-2.9-2.9 0-1.5 1.3-2.9 2.8-2.9 1.6 0 2.9 1.3 3 2.8zM34 83c0 1.6-1.4 3-3 2.9-1.4 0-2.8-1.5-2.8-3s1.4-2.9 2.9-2.8c1.6 0 2.9 1.3 2.9 2.9zm214.4 142.9c0 1.6-1.4 3-3 2.9-1.4 0-2.8-1.5-2.8-3s1.4-2.9 2.9-2.8c1.6 0 2.9 1.4 2.9 2.9zm17.9 0c0 1.6-1.4 3-3 3-1.4 0-2.8-1.5-2.8-3s1.4-2.9 2.9-2.9c1.6 0 2.9 1.4 2.9 2.9zm12.1.1c0-1.5 1.3-2.9 2.8-2.9 1.5 0 2.9 1.3 2.9 2.8 0 1.6-1.3 3-2.9 3-1.3 0-2.8-1.4-2.8-2.9zm23.6-.1c0 1.6-1.4 3-3 3-1.4 0-2.8-1.5-2.8-3s1.4-2.9 2.9-2.9c1.6 0 2.9 1.4 2.9 2.9zm-184.4 17.9c0-1.5 1.3-2.9 2.9-2.9 1.5 0 2.9 1.3 2.9 2.9 0 1.6-1.3 3-2.9 3-1.5 0-2.9-1.5-2.9-3zm202.3-107.2c0 1.6-1.4 3-3 3-1.4 0-2.8-1.5-2.8-3s1.4-2.9 2.9-2.9c1.6 0 2.9 1.3 2.9 2.9zM141.2 243.8c0 1.6-1.5 3-3 2.9-1.4 0-2.8-1.5-2.7-3 0-1.5 1.4-2.9 2.9-2.8 1.5 0 2.8 1.4 2.8 2.9zm17.9 0c0 1.6-1.4 3-3 3-1.4 0-2.8-1.5-2.8-3s1.4-2.9 2.9-2.9c1.6 0 2.9 1.3 2.9 2.9zm17.9 0c0 1.6-1.5 3-3 2.9-1.4 0-2.8-1.5-2.7-3 0-1.5 1.4-2.9 2.9-2.8 1.5 0 2.8 1.4 2.8 2.9zm119.3-107.3c0-1.5 1.4-2.9 2.9-2.8 1.5 0 2.8 1.4 2.8 2.9 0 1.6-1.4 3-3 2.9-1.4 0-2.7-1.5-2.7-3zm-47.9 107.2c0 1.6-1.3 3-2.9 3-1.4.1-2.8-1.4-2.9-2.9 0-1.5 1.3-2.9 2.8-2.9 1.6 0 3 1.3 3 2.8zm107.2-125c0 1.6-1.4 3-2.9 3-1.4 0-2.8-1.5-2.8-3s1.3-2.9 2.9-2.9c1.5 0 2.8 1.3 2.8 2.9zm-95 125c0-1.5 1.4-2.9 2.9-2.9s2.9 1.4 2.8 2.9c0 1.6-1.4 3-3 3-1.4 0-2.8-1.4-2.7-3zm23.6 0c0 1.6-1.3 3-2.9 3-1.4 0-2.8-1.4-2.9-2.9 0-1.5 1.3-2.9 2.8-2.9 1.6 0 3 1.3 3 2.8zm-143-107.2c0 1.6-1.3 3-2.9 3-1.4 0-2.8-1.4-2.8-3 0-1.5 1.3-2.9 2.9-2.9 1.4.1 2.8 1.4 2.8 2.9zm-5.7 125.2c0-1.5 1.3-2.9 2.8-3 1.5 0 2.9 1.3 2.9 2.8 0 1.6-1.3 3-2.9 3-1.4.2-2.8-1.3-2.8-2.8zm148.7-125.1c0 1.6-1.5 3-3 2.9-1.4-.1-2.8-1.5-2.7-3.1 0-1.5 1.4-2.9 3-2.8 1.4.1 2.7 1.5 2.7 3zm-130.9 125c0-1.5 1.4-2.9 2.9-2.9s2.9 1.4 2.8 2.9c0 1.6-1.4 3-3 3-1.3 0-2.7-1.5-2.7-3zm23.7.1c0 1.6-1.4 3-3 3-1.4 0-2.8-1.5-2.8-3s1.4-2.9 2.9-2.9 2.9 1.3 2.9 2.9zm89.3-125.1c0 1.6-1.4 3-2.9 3-1.4 0-2.8-1.5-2.8-3s1.4-2.9 2.9-2.9 2.8 1.3 2.8 2.9zm0 125c0 1.6-1.3 3-2.9 3-1.4 0-2.8-1.4-2.9-2.9 0-1.5 1.3-2.9 2.8-2.9 1.6-.1 3 1.3 3 2.8zm17.9 0c0 1.6-1.3 3-2.9 3-1.4 0-2.8-1.4-2.9-2.9 0-1.5 1.3-2.9 2.8-2.9 1.6-.1 3 1.3 3 2.8zm-35.8-125.1c0 1.6-1.4 3-2.9 3-1.4 0-2.8-1.5-2.8-3s1.3-2.9 2.9-2.9c1.5.1 2.8 1.4 2.8 2.9zm-17.8 0c0 1.6-1.3 3-2.9 3-1.4 0-2.8-1.4-2.8-3 0-1.5 1.3-2.9 2.9-2.9 1.4.1 2.7 1.4 2.8 2.9zm-107.3.1c0 1.6-1.5 3-3 2.9-1.4 0-2.8-1.5-2.7-3 0-1.5 1.4-2.9 2.9-2.8 1.6 0 2.9 1.4 2.8 2.9zm17.9 142.9c0 1.6-1.3 3-2.9 3-1.4 0-2.8-1.4-2.9-2.9 0-1.5 1.3-2.9 2.8-2.9 1.6-.1 3 1.2 3 2.8zm-35.7-143c0 1.6-1.3 3-2.9 3-1.4 0-2.8-1.4-2.8-2.9s1.3-2.9 2.8-2.9c1.5 0 2.9 1.3 2.9 2.8zm53.6 143c0 1.6-1.4 3-2.9 3-1.4 0-2.8-1.4-2.8-3 0-1.5 1.3-2.9 2.9-2.9 1.4 0 2.8 1.4 2.8 2.9zM69.7 154.4c0 1.6-1.3 3-2.9 3-1.4 0-2.8-1.4-2.8-2.9s1.3-2.9 2.8-2.9c1.6-.1 2.9 1.3 2.9 2.8zm190.9 125.1c0-1.5 1.4-2.9 2.9-2.9s2.9 1.3 2.9 2.9c0 1.6-1.4 3-2.9 3-1.6 0-3-1.5-2.9-3zm-173-142.9c0 1.6-1.5 3-3 2.9-1.4 0-2.8-1.5-2.7-3.1 0-1.5 1.4-2.9 2.9-2.8 1.6.1 2.8 1.5 2.8 3zm-5.7 17.9c0-1.5 1.3-2.9 2.8-3 1.5 0 2.9 1.3 2.9 2.8 0 1.6-1.3 3-2.9 3-1.4.2-2.8-1.3-2.8-2.8zM64 136.6c0-1.5 1.3-2.9 2.8-2.9 1.5 0 2.9 1.3 2.9 2.9 0 1.6-1.3 3-2.9 3-1.4 0-2.8-1.5-2.8-3zm35.7 17.8c0-1.5 1.4-2.9 2.9-2.9s2.9 1.4 2.9 2.9c0 1.6-1.4 3-3 3-1.4 0-2.8-1.5-2.8-3zm-47.8-17.8c0 1.6-1.4 3-3 2.9-1.4 0-2.8-1.5-2.8-3s1.4-2.9 2.9-2.8c1.6 0 2.9 1.4 2.9 2.9zm71.4 17.8c0 1.6-1.4 3-2.9 3-1.4 0-2.8-1.5-2.8-3s1.4-2.9 2.9-2.9 2.8 1.4 2.8 2.9zm214.5 0c0 1.6-1.3 3-2.9 3-1.4 0-2.8-1.4-2.8-2.9s1.3-2.9 2.8-2.9c1.5-.1 2.9 1.3 2.9 2.8zm-202.3 0c0-1.5 1.4-2.9 2.9-2.9s2.8 1.4 2.8 2.9c0 1.6-1.4 3-3 3-1.4 0-2.8-1.5-2.7-3zm95.1 0c0 1.6-1.4 3-3 3-1.4 0-2.8-1.5-2.8-3s1.4-2.9 2.9-2.9c1.5.1 2.9 1.4 2.9 2.9zm17.8.1c0 1.6-1.4 3-3 2.9-1.4 0-2.8-1.5-2.8-3s1.4-2.9 2.9-2.8c1.6 0 2.9 1.3 2.9 2.9zm17.9 0c0 1.6-1.5 3-3 2.9-1.4-.1-2.8-1.5-2.7-3.1 0-1.5 1.4-2.9 3-2.8 1.4.1 2.7 1.4 2.7 3zM135.5 297.4c0-1.5 1.3-2.9 2.8-2.9 1.5 0 2.9 1.3 2.9 2.8 0 1.6-1.3 3-2.9 3-1.4.1-2.8-1.4-2.8-2.9zm148.7-143c0 1.6-1.3 3-2.9 3-1.4 0-2.8-1.4-2.8-3 0-1.5 1.3-2.9 2.9-2.9 1.4 0 2.8 1.4 2.8 2.9zM135.5 315.2c0-1.5 1.4-2.9 2.9-2.8 1.5 0 2.8 1.4 2.8 2.9 0 1.6-1.4 3-3 2.9-1.4 0-2.8-1.5-2.7-3zm110.1-136.8c1.6 0 2.9 1.3 2.9 2.9 0 1.7-1.3 2.9-3 2.9-1.6 0-2.8-1.3-2.8-2.9 0-1.6 1.3-2.9 2.9-2.9zm17.6 5.8c-1.6-.1-2.7-1.4-2.7-3 .1-1.6 1.4-2.8 3-2.7 1.6.1 2.8 1.4 2.7 3.1 0 1.5-1.3 2.6-3 2.6zm21-2.9c0 1.6-1.2 2.9-2.8 2.9-1.6 0-2.9-1.3-2.9-2.9 0-1.6 1.3-2.8 2.9-2.8 1.5-.1 2.8 1.2 2.8 2.8zm-143-71.5c0 1.6-1.2 2.9-2.8 2.9-1.6 0-3-1.2-3-2.9 0-1.6 1.3-2.9 2.9-2.9 1.6 0 2.9 1.3 2.9 2.9zM302 181.3c0 1.6-1.3 2.8-2.9 2.8-1.6 0-2.9-1.3-2.9-3 0-1.6 1.4-2.8 3-2.8 1.6.1 2.9 1.4 2.8 3zm-178.7-71.6c0 1.6-1.2 2.9-2.8 2.9-1.6 0-3-1.2-3-2.9 0-1.6 1.3-2.9 2.9-2.9 1.6.1 2.9 1.4 2.9 2.9zm-20.7 3c-1.6 0-2.9-1.3-2.9-2.9 0-1.6 1.2-2.9 2.8-2.9 1.7 0 2.9 1.3 2.9 2.9.1 1.6-1.2 2.9-2.8 2.9zm235.2 68.6c0 1.6-1.2 2.9-2.8 2.9-1.6 0-2.9-1.3-2.9-2.9 0-1.6 1.3-2.8 2.9-2.8 1.5-.1 2.8 1.2 2.8 2.8zM87.6 109.8c0 1.6-1.3 2.8-2.9 2.9-1.6 0-2.9-1.3-2.9-3 0-1.6 1.3-2.8 2.9-2.8 1.7.1 2.9 1.3 2.9 2.9zm268 71.5c0 1.6-1.2 2.9-2.8 2.9-1.6 0-2.9-1.3-2.9-2.9 0-1.6 1.3-2.8 2.9-2.8 1.6-.1 2.8 1.2 2.8 2.8zM69.7 109.8c0 1.6-1.2 2.9-2.8 2.9-1.6 0-2.9-1.3-2.9-2.9 0-1.6 1.3-2.8 2.9-2.8 1.6 0 2.8 1.2 2.8 2.8zm301 74.4c-1.6 0-2.9-1.2-2.9-2.8 0-1.7 1.2-2.9 2.9-2.9 1.6 0 2.8 1.3 2.8 2.9 0 1.5-1.2 2.8-2.8 2.8zM49 112.7c-1.6 0-2.9-1.2-2.9-2.8 0-1.6 1.2-2.9 2.8-3 1.7 0 3 1.2 3 2.9 0 1.6-1.3 2.9-2.9 2.9zm339.5 65.7c1.6 0 2.9 1.2 2.9 2.8 0 1.6-1.2 2.9-2.8 2.9-1.7 0-3-1.2-3-2.9 0-1.5 1.3-2.8 2.9-2.8zM31.1 112.7c-1.6 0-2.9-1.3-2.9-2.9 0-1.6 1.2-2.9 2.8-2.9 1.7 0 3 1.3 2.9 2.9.1 1.6-1.2 2.9-2.8 2.9zm372.4 68.6c0-1.6 1.2-2.9 2.8-2.9 1.6 0 2.9 1.2 2.9 2.8 0 1.7-1.2 3-2.9 3-1.6 0-2.8-1.3-2.8-2.9zM16.1 109.8c0 1.6-1.3 2.8-2.9 2.9-1.7 0-2.9-1.3-2.9-3 0-1.6 1.3-2.8 2.9-2.8 1.7.1 2.9 1.3 2.9 2.9zm86.4 92.2c-1.6 0-2.8-1.3-2.8-2.9 0-1.6 1.3-2.8 2.9-2.8 1.7 0 2.9 1.3 2.9 3-.1 1.5-1.4 2.8-3 2.7zm163.8-56.5c0 1.6-1.2 2.9-2.8 2.9-1.6 0-2.9-1.3-2.9-2.9 0-1.6 1.3-2.8 2.9-2.8 1.6 0 2.8 1.2 2.8 2.8zm-56.5 50.8c1.6 0 2.8 1.2 2.9 2.8.1 1.6-1.6 3.1-2.9 3-1.6-.1-2.8-1.3-2.9-2.9 0-1.6 1.3-2.9 2.9-2.9zM477.9 89.1c1.6 0 2.8 1.3 2.8 2.9 0 1.6-1.3 2.8-2.9 2.8-1.7 0-2.9-1.3-2.9-3 .1-1.6 1.4-2.8 3-2.7zM227.7 196.3c1.6 0 2.8 1.3 2.8 2.9 0 1.7-1.3 2.9-3 2.9-1.6 0-2.8-1.3-2.8-2.9.1-1.7 1.4-2.9 3-2.9zM460 89.1c1.6 0 2.9 1.2 2.9 2.8 0 1.6-1.2 2.9-2.8 2.9-1.7 0-3-1.2-3-2.9 0-1.6 1.3-2.8 2.9-2.8zM245.4 202c-1.5-.1-2.7-1.4-2.7-3 .1-1.6 1.4-2.8 3-2.7 1.6.1 2.8 1.4 2.7 3.1-.1 1.5-1.4 2.7-3 2.6zM442.2 89.1c1.6 0 2.8 1.3 2.8 2.9 0 1.6-1.3 2.8-2.9 2.8-1.7 0-2.9-1.3-2.9-3 .1-1.6 1.4-2.8 3-2.7zM263.4 202c-1.6 0-2.8-1.3-2.8-2.9 0-1.6 1.3-2.9 2.9-2.9 1.7 0 2.9 1.3 2.9 3-.1 1.6-1.4 2.8-3 2.8zM427.1 91.9c0 1.6-1.2 2.9-2.9 2.9s-2.9-1.3-2.9-3c0-1.6 1.3-2.8 2.9-2.8 1.7.1 2.9 1.3 2.9 2.9zM284.2 199.2c0 1.6-1.3 2.8-2.9 2.8-1.6 0-2.9-1.3-2.9-3 0-1.6 1.4-2.8 3-2.8 1.6.1 2.8 1.4 2.8 3zm15.1-2.9c1.6 0 2.8 1.3 2.8 2.9 0 1.6-1.4 2.9-3 2.8-1.6-.1-2.8-1.4-2.7-3-.1-1.5 1.3-2.8 2.9-2.7zM409.3 92c0 1.6-1.3 2.8-2.9 2.8-1.7 0-2.9-1.3-2.9-3 0-1.6 1.3-2.8 2.9-2.8 1.6.1 2.9 1.4 2.9 3zm-89.4 107.3c-.1 1.6-1.3 2.8-3 2.8-1.6 0-2.9-1.4-2.8-3.1.1-1.5 1.4-2.7 3-2.7 1.7 0 2.9 1.4 2.8 3zm35.7-.2c0 1.6-1.2 2.9-2.8 2.9-1.6 0-3-1.3-2.9-2.9 0-1.6 1.3-2.8 2.9-2.8 1.6 0 2.8 1.2 2.8 2.8zm35.8 0c0 1.6-1.2 2.9-2.8 2.9-1.7 0-3-1.2-3-2.9 0-1.6 1.2-2.9 2.8-2.9 1.7.1 3 1.3 3 2.9zm0-107.2c0 1.6-1.2 2.9-2.8 2.9-1.7 0-2.9-1.2-2.9-2.9 0-1.6 1.3-2.8 2.9-2.8 1.5 0 2.8 1.2 2.8 2.8zm-20.7-2.8c1.6 0 2.8 1.3 2.8 2.9 0 1.6-1.2 2.9-2.8 2.9-1.7 0-2.9-1.2-2.9-2.9s1.2-2.9 2.9-2.9zm-17.9 0c1.6 0 2.9 1.2 2.9 2.8 0 1.7-1.3 2.9-2.9 2.9-1.6 0-2.8-1.3-2.8-2.9-.1-1.6 1.2-2.8 2.8-2.8zm-17.9 0c1.6 0 2.9 1.2 2.9 2.8 0 1.7-1.2 3-2.9 3-1.6 0-2.9-1.3-2.9-2.9 0-1.6 1.3-2.9 2.9-2.9zm-17.8 5.7c-1.6 0-2.9-1.2-2.9-2.8 0-1.6 1.2-2.9 2.8-3 1.7 0 3 1.2 3 2.9-.1 1.6-1.3 2.9-2.9 2.9zM284.2 92c0 1.6-1.2 2.9-2.9 2.9-1.6 0-2.9-1.3-2.9-3 0-1.6 1.3-2.8 2.9-2.8 1.6 0 2.9 1.2 2.9 2.9zm-20.8 2.8c-1.6 0-2.9-1.2-2.9-2.8 0-1.6 1.2-2.9 2.8-2.9 1.7 0 3 1.2 3 2.9 0 1.6-1.3 2.8-2.9 2.8zM194.8 92c0 1.6-1.3 2.8-2.9 2.8-1.6 0-2.9-1.3-2.9-3 0-1.6 1.3-2.8 2.9-2.8 1.7.1 2.9 1.4 2.9 3zm-17.8-.1c0 1.6-1.2 2.9-2.9 2.9-1.6 0-2.9-1.3-2.9-3 0-1.6 1.3-2.8 2.9-2.8 1.6.1 2.9 1.3 2.9 2.9zm-56.5 2.9c-1.6 0-2.9-1.2-2.9-2.8 0-1.6 1.2-2.9 2.8-3 1.7 0 3 1.2 3 2.9-.1 1.6-1.3 2.9-2.9 2.9zm0 125.1c-1.6 0-2.9-1.2-2.9-2.8 0-1.6 1.2-2.9 2.8-2.9 1.7 0 3 1.2 2.9 2.9 0 1.5-1.2 2.8-2.8 2.8zm17.9-5.7c1.6 0 2.8 1.3 2.8 2.9 0 1.7-1.3 2.9-3 2.9-1.6 0-2.8-1.3-2.8-2.9.1-1.7 1.4-3 3-2.9zM102.5 94.8c-1.6 0-2.8-1.3-2.8-2.9 0-1.6 1.3-2.9 2.9-2.8 1.7 0 2.9 1.3 2.9 3-.1 1.5-1.4 2.7-3 2.7zM159.1 217c0 1.6-1.2 2.9-2.8 2.9-1.7 0-3-1.2-3-2.9 0-1.6 1.3-2.9 2.9-2.9 1.6 0 2.9 1.3 2.9 2.9zm50.7 2.9c-1.6 0-2.8-1.3-2.8-2.9 0-1.6 1.3-2.9 2.8-2.9 1.7 0 2.9 1.3 2.9 2.9 0 1.7-1.3 2.9-2.9 2.9zM87.6 91.9c0 1.6-1.2 2.9-2.8 2.9-1.6 0-2.9-1.2-2.9-2.9 0-1.6 1.3-2.9 2.9-2.8 1.5 0 2.8 1.2 2.8 2.8zm140.1 122.3c1.6 0 2.9 1.3 2.9 2.8 0 1.7-1.3 2.9-2.9 2.9-1.6 0-2.8-1.3-2.8-2.9-.1-1.6 1.2-2.9 2.8-2.8zM69.7 92c0 1.6-1.3 2.8-2.9 2.9-1.6 0-2.9-1.3-2.9-3 0-1.6 1.3-2.8 2.9-2.8 1.7 0 2.9 1.3 2.9 2.9zm178.7 124.9c0 1.6-1.2 2.9-2.8 3-1.7 0-3-1.2-3-2.9 0-1.6 1.2-2.9 2.8-2.9 1.7 0 3 1.3 3 2.8zM51.9 91.9c0 1.6-1.2 2.9-2.8 2.9-1.6 0-2.9-1.3-2.9-2.9 0-1.6 1.3-2.8 2.9-2.8 1.5 0 2.8 1.2 2.8 2.8zm214.4 125.2c-.1 1.6-1.3 2.8-3 2.8-1.6 0-2.9-1.4-2.8-3.1.1-1.5 1.4-2.7 3-2.7 1.7.1 2.9 1.4 2.8 3zM28.2 91.8c.1-1.6 1.4-2.8 3-2.7 1.6.1 2.8 1.4 2.7 3 0 1.6-1.4 2.9-3.1 2.8-1.4-.2-2.6-1.5-2.6-3.1zm250.2 125.1c0-1.6 1.3-2.8 2.9-2.8 1.6 0 2.8 1.3 2.8 2.9 0 1.7-1.3 2.9-3 2.9-1.5 0-2.7-1.4-2.7-3zM16.1 92c0 1.6-1.3 2.8-2.9 2.8-1.7 0-2.9-1.3-2.9-3 0-1.6 1.3-2.8 2.9-2.8 1.7.1 2.9 1.4 2.9 3zM302 217c0 1.6-1.2 2.9-2.8 2.9-1.7 0-3-1.2-3-2.9 0-1.6 1.2-2.9 2.8-2.9 1.7 0 3 1.3 3 2.9zm125.1.1c0 1.6-1.3 2.8-2.9 2.8-1.7 0-2.9-1.3-2.9-3 0-1.6 1.3-2.8 3-2.8 1.6.1 2.8 1.4 2.8 3zm-89.3-89.4c0 1.6-1.2 2.9-2.8 2.9-1.6 0-2.9-1.3-2.9-2.9 0-1.6 1.3-2.8 2.9-2.8 1.5-.1 2.8 1.2 2.8 2.8zm-20.8 2.9c-1.6 0-2.8-1.3-2.8-2.9 0-1.6 1.3-2.9 2.8-2.9 1.7 0 2.9 1.3 2.9 2.9 0 1.6-1.3 2.9-2.9 2.9zm-17.8 0c-1.6 0-2.9-1.3-2.9-2.9 0-1.6 1.2-2.9 2.8-2.9 1.7 0 2.9 1.2 2.9 2.9 0 1.6-1.2 2.9-2.8 2.9zm-17.9 0c-1.6 0-2.9-1.3-2.9-2.8 0-1.6 1.2-2.9 2.8-2.9 1.7 0 3 1.2 2.9 2.9.1 1.5-1.2 2.7-2.8 2.8zm-53.6 0c-1.6 0-2.9-1.3-2.9-2.8 0-1.6 1.2-2.9 2.8-2.9 1.7 0 3 1.2 2.9 2.9 0 1.5-1.2 2.8-2.8 2.8zm-86.5-2.9c0 1.6-1.3 2.8-2.9 2.8-1.6 0-2.9-1.3-2.9-3 0-1.6 1.3-2.8 2.9-2.8 1.7.1 2.9 1.4 2.9 3zm300.9-56.5c1.6 0 2.9 1.2 2.9 2.8 0 1.6-1.2 2.9-2.8 3-1.7 0-3-1.2-3-2.9 0-1.6 1.3-2.9 2.9-2.9zm-318.8 56.5c0 1.6-1.2 2.9-2.8 2.9-1.6 0-2.9-1.3-2.9-2.9 0-1.6 1.3-2.8 2.9-2.8 1.6-.1 2.8 1.2 2.8 2.8zM427.1 74c0 1.6-1.2 2.9-2.8 2.9-1.7 0-3-1.2-3-2.9 0-1.6 1.2-2.9 2.8-2.9 1.7.1 3 1.3 3 2.9zM87.6 127.7c0 1.6-1.3 2.8-2.9 2.9-1.6 0-2.9-1.3-2.9-3 0-1.6 1.3-2.8 2.9-2.8 1.7 0 2.9 1.3 2.9 2.9zM409.3 74c0 1.6-1.2 2.9-2.8 2.9-1.7 0-2.9-1.2-2.9-2.9 0-1.6 1.3-2.8 2.9-2.8 1.5 0 2.7 1.2 2.8 2.8zM69.7 127.7c0 1.6-1.3 2.8-2.9 2.8-1.6 0-2.9-1.3-2.9-3 0-1.6 1.4-2.8 3-2.8 1.6.1 2.9 1.4 2.8 3zm321.7-53.6c0 1.6-1.2 2.9-2.8 2.9-1.7 0-2.9-1.2-2.9-2.9 0-1.6 1.3-2.8 2.9-2.8 1.5-.1 2.8 1.2 2.8 2.8zm-20.8-2.9c1.6 0 2.9 1.2 2.9 2.8 0 1.6-1.2 2.9-2.8 3-1.7 0-3-1.2-3-2.9.1-1.6 1.3-2.9 2.9-2.9zm-15 2.8c0 1.6-1.2 2.9-2.8 2.9-1.6 0-3-1.3-2.9-2.9 0-1.6 1.3-2.9 2.9-2.9 1.6.1 2.8 1.3 2.8 2.9zM317 71.2c1.6 0 2.9 1.2 2.9 2.8 0 1.7-1.3 2.9-2.9 2.9-1.6 0-2.8-1.3-2.8-2.9 0-1.5 1.2-2.8 2.8-2.8zm-125.1 0c1.6 0 2.9 1.2 2.9 2.8 0 1.7-1.2 3-2.9 2.9-1.6 0-2.8-1.3-2.9-2.9.1-1.5 1.3-2.8 2.9-2.8zM120.6 232c1.6 0 2.8 1.4 2.8 2.9 0 1.6-1.4 2.9-3 2.8-1.5-.1-2.8-1.4-2.7-3-.1-1.5 1.3-2.7 2.9-2.7zm160.6-83.6c-1.6 0-2.8-1.3-2.8-2.9 0-1.6 1.3-2.9 2.9-2.9 1.7 0 2.9 1.3 2.9 3-.1 1.6-1.3 2.8-3 2.8zm-140 86.4c0 1.6-1.2 2.9-2.8 2.9-1.6 0-3-1.2-3-2.9 0-1.6 1.2-2.9 2.8-2.9 1.7.1 3 1.3 3 2.9zm32.9-157.9c-1.6 0-2.9-1.2-2.9-2.8 0-1.6 1.2-2.9 2.8-3 1.7 0 3 1.2 3 2.9s-1.3 2.9-2.9 2.9zM156.3 232c1.6 0 2.8 1.3 2.8 2.9 0 1.6-1.4 2.9-3 2.8-1.6-.1-2.8-1.4-2.7-3 0-1.5 1.3-2.7 2.9-2.7zm-.1-160.8c1.6 0 2.9 1.2 2.9 2.8 0 1.7-1.3 2.9-2.9 2.9-1.6 0-2.8-1.3-2.8-2.9-.1-1.5 1.2-2.8 2.8-2.8zM174 237.8c-1.6 0-2.8-1.3-2.8-2.9 0-1.6 1.3-2.9 2.9-2.9 1.7 0 2.9 1.3 2.9 2.9-.1 1.7-1.4 2.9-3 2.9zM123.3 74c0 1.6-1.2 2.9-2.8 2.9-1.6 0-3-1.2-3-2.9 0-1.6 1.3-2.9 2.9-2.9 1.7.1 2.9 1.3 2.9 2.9zm122.3 158c1.6 0 2.8 1.3 2.8 2.9 0 1.7-1.3 2.9-3 2.9-1.6 0-2.8-1.4-2.8-3 .1-1.6 1.4-2.8 3-2.8zM105.5 74.1c0 1.6-1.2 2.9-2.8 2.9-1.6 0-2.9-1.3-2.9-2.9 0-1.6 1.3-2.8 2.9-2.8 1.5-.1 2.8 1.2 2.8 2.8zm160.8 160.8c0 1.6-1.2 2.9-2.8 2.9-1.6 0-2.9-1.3-2.9-2.9 0-1.6 1.3-2.8 2.9-2.8 1.6-.1 2.8 1.2 2.8 2.8zM87.6 74c0 1.6-1.2 2.9-2.8 2.9-1.6 0-2.9-1.2-2.9-2.9 0-1.6 1.3-2.9 2.9-2.8 1.5 0 2.8 1.2 2.8 2.8zm196.6 160.9c0 1.6-1.2 2.9-2.8 2.9-1.6 0-2.9-1.3-2.9-2.9 0-1.6 1.3-2.8 2.9-2.8 1.5-.1 2.8 1.2 2.8 2.8zM69.7 74.1c0 1.6-1.3 2.9-2.9 2.9-1.6 0-2.9-1.3-2.9-3 0-1.6 1.3-2.8 2.9-2.8 1.7 0 2.9 1.3 2.9 2.9zm336.7 163.7c-1.6 0-2.8-1.2-2.9-2.9 0-1.7 1.3-2.9 3-2.9 1.6 0 2.8 1.3 2.8 2.9-.1 1.6-1.3 2.9-2.9 2.9zm53.5 0c-1.6 0-2.8-1.3-2.8-2.9 0-1.6 1.3-2.9 3-2.8 1.6.1 2.8 1.4 2.7 3 0 1.5-1.3 2.7-2.9 2.7zm-411-113c1.6 0 2.9 1.2 2.9 2.8 0 1.7-1.2 3-2.9 3-1.6 0-2.9-1.3-2.9-2.8.1-1.7 1.3-3 2.9-3zm-35.7 0c1.6 0 2.9 1.3 2.9 2.8 0 1.7-1.3 2.9-2.9 2.9-1.6 0-2.8-1.3-2.8-2.9 0-1.6 1.2-2.8 2.8-2.8zm53.6 35.7c1.6 0 2.9 1.2 2.9 2.8 0 1.7-1.3 2.9-2.9 2.9-1.6 0-2.8-1.3-2.8-2.9 0-1.5 1.3-2.8 2.8-2.8zm232.3-17.8c1.6 0 2.9 1.2 2.9 2.8 0 1.7-1.2 3-2.9 3-1.6 0-2.9-1.3-2.9-2.9.1-1.6 1.3-2.9 2.9-2.9zm-178.7 5.7c-1.6 0-2.8-1.3-2.9-2.9 0-1.6 1.2-2.9 2.8-2.9 1.7 0 2.9 1.3 2.9 2.9.1 1.7-1.1 2.9-2.8 2.9zm68.7-83.3c0-1.5 1.3-2.9 2.8-2.9 1.5 0 2.9 1.3 2.9 2.8 0 1.6-1.4 3-2.9 3s-2.8-1.3-2.8-2.9zM84.8 160.5c1.6 0 2.8 1.3 2.8 2.9 0 1.7-1.3 2.9-3 2.9-1.6 0-2.8-1.3-2.8-2.9.1-1.6 1.4-2.9 3-2.9zm20.7-15c0 1.6-1.2 2.9-2.8 2.9-1.6 0-2.9-1.3-2.9-2.9 0-1.6 1.3-2.8 2.9-2.8 1.5 0 2.8 1.3 2.8 2.8zm0 18c0 1.6-1.3 2.8-2.9 2.8-1.6 0-2.9-1.3-2.9-3 0-1.6 1.4-2.8 3-2.8 1.6.1 2.8 1.4 2.8 3zm35.7-18c0 1.6-1.2 2.9-2.8 2.9-1.6 0-3-1.2-3-2.9 0-1.6 1.3-2.9 2.9-2.9 1.6.1 2.9 1.3 2.9 2.9zm-20.8 15c1.6 0 2.9 1.2 2.9 2.8 0 1.7-1.2 3-2.9 3-1.6 0-2.9-1.3-2.9-2.8.1-1.6 1.3-2.9 2.9-3zm50.8-95.4c0-1.5 1.4-2.9 2.9-2.9s2.9 1.3 2.9 2.9c0 1.6-1.4 3-2.9 3-1.6-.1-2.9-1.5-2.9-3zm56.5 95.4c1.6 0 2.9 1.2 2.9 2.8 0 1.7-1.2 2.9-2.9 2.9-1.6 0-2.8-1.3-2.8-2.9-.1-1.5 1.2-2.8 2.8-2.8zm-68.6-95.4c0 1.5-1.4 2.9-2.9 2.9-1.6 0-2.9-1.4-2.9-3 0-1.5 1.4-2.9 2.9-2.8 1.6 0 2.9 1.4 2.9 2.9zm-35.8-.1c0 1.6-1.4 3-2.9 3s-2.8-1.4-2.8-2.9 1.3-2.9 2.9-2.9c1.5 0 2.8 1.3 2.8 2.8zm-17.8 0c0 1.6-1.3 3-2.9 3-1.5 0-2.8-1.4-2.9-2.9 0-1.5 1.3-2.9 2.8-2.9 1.6 0 3 1.3 3 2.8zm214.4 80.6c0 1.6-1.3 2.8-2.9 2.9-1.6 0-2.9-1.3-2.9-3 0-1.6 1.3-2.8 2.9-2.8 1.7 0 2.9 1.3 2.9 2.9zM141.2 252.7c0 1.6-1.2 2.9-2.8 2.9-1.6 0-2.9-1.3-2.9-2.9 0-1.6 1.3-2.8 2.9-2.8 1.5 0 2.8 1.2 2.8 2.8zM87.6 65.1c0 1.5-1.3 2.9-2.8 3-1.5 0-2.9-1.4-2.9-3 0-1.5 1.4-2.9 2.9-2.9s2.8 1.3 2.8 2.9zm71.5 187.6c0 1.6-1.2 2.9-2.8 2.9-1.6 0-2.9-1.3-2.9-2.9 0-1.6 1.3-2.8 2.9-2.8 1.5 0 2.8 1.2 2.8 2.8zM69.7 65.1c.2 1.3-1.2 3-2.9 3-1.5 0-2.8-1.4-2.8-2.9s1.3-2.9 2.9-2.9c1.5-.1 2.8 1.2 2.8 2.8zM177 252.7c0 1.6-1.2 2.9-2.8 2.9-1.6 0-2.9-1.3-2.9-2.9 0-1.6 1.3-2.8 2.9-2.8 1.5 0 2.7 1.2 2.8 2.8zm104.3-92.2c1.6 0 2.9 1.2 2.9 2.8 0 1.7-1.2 3-2.9 2.9-1.6 0-2.8-1.3-2.9-2.9 0-1.5 1.3-2.7 2.9-2.8zm-18 95.1c-1.6 0-2.8-1.3-2.8-3 0-1.6 1.3-2.8 2.9-2.8 1.6 0 2.9 1.3 2.8 3 0 1.7-1.3 2.9-2.9 2.8zM194.8 56.1c0 1.6-1.2 2.9-2.8 2.9-1.6 0-3-1.2-3-2.9 0-1.6 1.3-2.9 2.9-2.9 1.6.1 2.9 1.3 2.9 2.9zm86.5 193.8c1.6 0 2.9 1.3 2.8 2.9 0 1.7-1.3 2.9-3 2.9-1.6 0-2.8-1.3-2.8-2.9.1-1.7 1.4-2.9 3-2.9zM174.1 53.3c1.6 0 2.8 1.3 2.8 2.9 0 1.7-1.3 2.9-3 2.9-1.6 0-2.8-1.3-2.8-2.9.1-1.6 1.4-2.9 3-2.9zm253 199.5c0 1.6-1.2 2.9-2.8 2.9-1.7 0-2.9-1.2-2.9-2.9 0-1.6 1.3-2.8 2.9-2.8 1.6-.1 2.8 1.1 2.8 2.8zM156.2 53.3c1.6 0 2.8 1.3 2.8 2.9 0 1.7-1.3 2.9-3 2.9-1.6 0-2.8-1.3-2.8-2.9.2-1.6 1.4-2.9 3-2.9zM445 252.7c0 1.6-1.2 2.9-2.8 2.9-1.7 0-3-1.2-3-2.9 0-1.6 1.2-2.8 2.9-2.9 1.6.1 2.9 1.3 2.9 2.9zM141.2 56.2c0 1.6-1.2 2.9-2.8 2.9-1.6 0-2.9-1.3-2.9-2.9 0-1.6 1.3-2.8 2.9-2.8 1.6-.1 2.8 1.2 2.8 2.8zm321.7 196.5c0 1.6-1.2 2.9-2.8 2.9-1.7 0-2.9-1.2-2.9-2.9 0-1.6 1.2-2.8 2.9-2.8 1.5 0 2.8 1.2 2.8 2.8zM120.5 59.1c-1.6 0-2.8-1.3-2.9-2.9 0-1.6 1.2-2.9 2.8-2.9 1.7 0 2.9 1.3 2.9 2.9 0 1.6-1.2 2.9-2.8 2.9zM302 163.3c0 1.6-1.2 2.9-2.8 2.9-1.7 0-3-1.2-3-2.9 0-1.6 1.2-2.9 2.8-2.9 1.8.1 3 1.4 3 2.9zm17.9.1c0 1.6-1.2 2.9-2.8 2.9-1.6 0-3-1.2-3-2.9 0-1.6 1.3-2.9 2.9-2.9 1.6 0 2.9 1.3 2.9 2.9zm15 2.9c-1.6 0-2.9-1.3-2.9-2.8 0-1.6 1.2-2.9 2.8-2.9 1.7 0 3 1.2 2.9 2.9.1 1.6-1.2 2.8-2.8 2.8zm0-23.6c1.6 0 2.9 1.2 2.9 2.8 0 1.7-1.2 3-2.9 2.9-1.6 0-2.8-1.3-2.9-2.9 0-1.5 1.3-2.8 2.9-2.8zm20.7 20.7c0 1.6-1.2 2.9-2.8 2.9-1.6 0-3-1.2-3-2.9 0-1.6 1.3-2.8 2.9-2.9 1.7 0 2.9 1.3 2.9 2.9zm15.1-2.9c1.6 0 2.8 1.3 2.8 2.9 0 1.6-1.3 2.9-2.9 2.9-1.7 0-2.9-1.3-2.9-3 .1-1.6 1.4-2.8 3-2.8zm20.7 2.9c0 1.6-1.2 2.9-2.8 2.9-1.7 0-3-1.2-2.9-2.9 0-1.6 1.2-2.8 2.9-2.8 1.5-.1 2.8 1.2 2.8 2.8zm-35.8-17.8c0 1.6-1.2 2.9-2.8 2.9-1.6 0-2.9-1.3-2.9-3 0-1.6 1.3-2.8 2.9-2.8 1.6 0 2.9 1.2 2.8 2.9zm-268 0c0 1.6-1.3 2.8-2.9 2.8-1.6 0-2.9-1.3-2.9-3 0-1.6 1.4-2.8 2.9-2.8 1.7.1 2.9 1.4 2.9 3zm17.9-89.4c0 1.6-1.2 2.9-2.8 2.9-1.6 0-2.9-1.3-2.9-2.9 0-1.6 1.3-2.8 2.9-2.8 1.5-.1 2.8 1.2 2.8 2.8zm89.3-9c0 1.5-1.3 2.9-2.8 2.9-1.6 0-2.9-1.4-2.9-3 0-1.5 1.4-2.9 2.9-2.8 1.5 0 2.8 1.4 2.8 2.9zm-17.8 0c0 1.5-1.3 2.9-2.8 3-1.5.1-2.9-1.4-2.9-3 0-1.5 1.4-2.9 2.9-2.9 1.4 0 2.7 1.4 2.8 2.9zm-17.9 0c0 1.5-1.3 2.9-2.8 3-1.6 0-2.9-1.4-2.9-3 0-1.5 1.4-2.9 2.9-2.9s2.8 1.4 2.8 2.9zm-35.8 0c.2 1.2-1.2 3-2.9 3-1.5 0-2.8-1.4-2.8-3 0-1.5 1.4-2.9 2.9-2.9s2.8 1.4 2.8 2.9zM192 35.5c1.6 0 2.9 1.3 2.9 2.9 0 1.7-1.3 2.9-3 2.9-1.6 0-2.8-1.3-2.8-2.9 0-1.7 1.3-3 2.9-2.9zm-15 2.8c0 1.6-1.2 2.9-2.8 2.9-1.7 0-3-1.3-2.9-2.9 0-1.6 1.3-2.9 2.9-2.8 1.5 0 2.7 1.2 2.8 2.8zm-20.8-2.8c1.6 0 2.8 1.3 2.8 2.9 0 1.7-1.3 2.9-3 2.9-1.6 0-2.8-1.3-2.8-2.9.2-1.7 1.4-3 3-2.9zm-17.8 232.3c1.6 0 2.8 1.3 2.8 2.9 0 1.7-1.3 2.9-3 2.9-1.6 0-2.8-1.3-2.8-2.9.1-1.7 1.4-3 3-2.9zm20.7 2.8c0 1.6-1.2 2.9-2.8 2.9-1.6 0-3-1.2-3-2.9 0-1.6 1.3-2.9 2.9-2.9 1.6.1 2.9 1.3 2.9 2.9zm250.2-107.2c0 1.6-1.3 2.9-2.9 2.9-1.7 0-2.9-1.3-2.9-3 0-1.6 1.3-2.8 2.9-2.8 1.6.1 2.9 1.3 2.9 2.9zm-35.8-17.9c0 1.6-1.2 2.9-2.8 2.9-1.7 0-3-1.2-3-2.9 0-1.6 1.2-2.8 2.9-2.9 1.6.1 2.9 1.3 2.9 2.9zM266.3 270.6c0 1.6-1.2 2.9-2.8 2.9-1.6 0-2.9-1.3-2.9-2.9 0-1.6 1.3-2.8 2.9-2.8 1.6 0 2.8 1.2 2.8 2.8zm160.8-107.2c0 1.6-1.2 2.9-2.8 2.9-1.7 0-2.9-1.2-2.9-2.9 0-1.6 1.3-2.8 2.9-2.8 1.6-.1 2.8 1.2 2.8 2.8zm-35.7-17.9c0 1.6-1.2 2.9-2.8 2.9-1.7 0-2.9-1.2-2.9-2.9 0-1.6 1.2-2.8 2.9-2.8 1.5 0 2.8 1.2 2.8 2.8zm15 128c-1.6 0-2.9-1.2-2.9-2.8 0-1.7 1.2-3 2.9-3 1.6 0 2.9 1.2 2.9 2.8 0 1.7-1.3 3-2.9 3zM388.5 53.3c1.6 0 2.9 1.2 2.9 2.8 0 1.6-1.2 2.9-2.8 2.9-1.7 0-3-1.2-3-2.9 0-1.5 1.3-2.8 2.9-2.8zm38.6 217.3c0 1.6-1.3 2.9-2.9 2.9-1.7 0-2.9-1.3-2.9-3 0-1.6 1.3-2.8 2.9-2.8 1.7.1 2.9 1.3 2.9 2.9zm-20.7-127.9c1.6 0 2.9 1.2 2.9 2.8 0 1.6-1.2 2.9-2.8 2.9-1.7 0-3-1.2-3-2.9 0-1.6 1.2-2.8 2.9-2.8zm35.7 130.8c-1.6 0-2.8-1.2-2.9-2.9 0-1.7 1.3-2.9 3-2.9 1.6 0 2.8 1.3 2.8 2.9 0 1.7-1.3 2.9-2.9 2.9zm38.6-163.7c0 1.6-1.2 2.9-2.8 2.9-1.7 0-3-1.2-3-2.9 0-1.6 1.2-2.9 2.9-2.9 1.6 0 2.9 1.3 2.9 2.9zm-17.8 160.8c0 1.6-1.2 2.9-2.9 2.9s-2.9-1.3-2.9-3c0-1.6 1.3-2.8 2.9-2.8 1.6.1 2.9 1.3 2.9 2.9zm-35.8-125.1c0 1.6-1.2 2.9-2.8 2.9-1.7 0-2.9-1.2-2.9-2.9 0-1.6 1.2-2.8 2.9-2.8 1.6 0 2.8 1.2 2.8 2.8zm32.9-32.8c-1.6 0-2.9-1.2-2.9-2.8 0-1.7 1.2-3 2.9-2.9 1.6 0 2.9 1.3 2.9 2.9 0 1.5-1.3 2.8-2.9 2.8zm-17.9-5.8c1.6 0 2.9 1.2 2.9 2.8 0 1.6-1.2 2.9-2.8 2.9-1.7 0-2.9-1.2-2.9-2.9 0-1.5 1.2-2.8 2.8-2.8zm-17.9 5.8c-1.6 0-2.9-1.2-2.9-2.9s1.3-2.9 2.9-2.9c1.6 0 2.8 1.3 2.8 2.9.1 1.7-1.2 2.9-2.8 2.9zm-17.8-5.8c1.6 0 2.9 1.2 2.9 2.8 0 1.6-1.2 2.9-2.8 2.9-1.7 0-3-1.2-3-2.9 0-1.5 1.2-2.8 2.9-2.8zm-15 2.9c0 1.6-1.3 2.8-2.9 2.8-1.7 0-2.9-1.3-2.9-3 0-1.6 1.3-2.8 2.9-2.8 1.7.2 2.9 1.4 2.9 3zm-17.9 0c0 1.6-1.2 2.9-2.9 2.9s-2.9-1.3-2.9-2.9c0-1.6 1.3-2.8 2.9-2.8 1.7-.1 2.9 1.2 2.9 2.8zm-20.8 2.9c-1.6 0-2.8-1.3-2.8-2.9 0-1.6 1.3-2.9 2.8-2.9 1.7 0 2.9 1.3 2.9 2.9 0 1.7-1.3 2.9-2.9 2.9zm-14.9-2.9c0 1.6-1.2 2.9-2.9 2.9-1.6 0-2.9-1.3-2.9-3 0-1.6 1.3-2.8 2.9-2.8 1.6.1 2.9 1.3 2.9 2.9zm-17.9 0c0 1.6-1.2 2.9-2.9 2.9-1.6 0-2.9-1.3-2.9-3 0-1.6 1.3-2.8 2.9-2.8 1.7.1 2.9 1.3 2.9 2.9zm-20.8 2.9c-1.6 0-2.8-1.3-2.8-2.9 0-1.6 1.3-2.9 2.9-2.9 1.7 0 2.9 1.3 2.9 3-.1 1.6-1.4 2.8-3 2.8zm-14.9-2.9c0 1.6-1.2 2.9-2.8 2.9-1.6 0-2.9-1.3-2.9-2.9 0-1.6 1.3-2.8 2.9-2.8 1.5-.1 2.8 1.2 2.8 2.8zM460 130.6c-1.6 0-2.9-1.2-2.9-2.8 0-1.7 1.2-2.9 2.9-2.9 1.6 0 2.8 1.3 2.8 2.9.1 1.5-1.2 2.8-2.8 2.8zm-196.6-23.7c1.6 0 2.9 1.2 2.9 2.8 0 1.7-1.2 3-2.9 3-1.6 0-2.9-1.3-2.9-2.8 0-1.7 1.3-2.9 2.9-3zm-17.9 5.8c-1.6 0-2.8-1.3-2.8-2.9 0-1.6 1.3-2.9 2.9-2.9 1.7 0 2.9 1.3 2.9 3-.1 1.6-1.4 2.8-3 2.8zm181.6 15c0 1.6-1.2 2.9-2.8 2.9-1.7 0-2.9-1.3-2.9-2.9 0-1.6 1.3-2.8 2.9-2.8 1.6-.1 2.8 1.2 2.8 2.8zM141.2 288.5c0 1.6-1.2 2.9-2.8 2.9-1.6 0-2.9-1.3-2.9-3 0-1.6 1.3-2.8 2.9-2.8 1.6 0 2.8 1.3 2.8 2.9zm-71.5-143c0 1.6-1.2 2.9-2.8 2.9-1.6 0-2.9-1.3-2.9-2.9 0-1.6 1.3-2.8 2.9-2.8 1.6 0 2.8 1.2 2.8 2.8zm336.7-14.9c-1.6 0-2.9-1.2-2.9-2.8 0-1.7 1.2-2.9 2.9-2.9 1.6 0 2.8 1.3 2.8 2.9 0 1.5-1.2 2.8-2.8 2.8zM266.3 288.4c0 1.7-1.2 3-2.9 2.9-1.6 0-2.8-1.3-2.8-2.9 0-1.6 1.3-2.9 2.8-2.9 1.6.1 2.9 1.3 2.9 2.9zm178.7.1c0 1.6-1.3 2.9-2.9 2.9-1.7 0-2.9-1.3-2.9-3 0-1.6 1.3-2.8 2.9-2.8 1.7 0 2.9 1.3 2.9 2.9zM87.6 181.2c0 1.6-1.2 2.9-2.8 2.9-1.6 0-2.9-1.3-2.9-2.9 0-1.6 1.3-2.8 2.9-2.8 1.5 0 2.8 1.3 2.8 2.8zm300.9-56.4c1.6 0 2.9 1.2 2.9 2.8 0 1.6-1.2 2.9-2.8 3-1.7 0-3-1.2-3-2.9 0-1.6 1.3-2.9 2.9-2.9zm-140.1 20.7c0 1.6-1.2 2.9-2.8 2.9-1.7 0-3-1.2-3-2.9 0-1.6 1.2-2.9 2.8-2.9 1.7.1 3 1.3 3 2.9zm-127.9 38.7c-1.6 0-2.9-1.2-2.9-2.8 0-1.6 1.2-2.9 2.8-2.9 1.7 0 3 1.2 2.9 2.9 0 1.5-1.2 2.8-2.8 2.8zm250.1-59.4c1.6 0 2.9 1.2 2.9 2.8 0 1.6-1.2 2.9-2.8 3-1.7 0-3-1.2-3-2.9.1-1.6 1.3-2.9 2.9-2.9zm-142.9 53.6c1.6 0 2.8 1.3 2.8 2.9 0 1.7-1.3 2.9-3 2.9-1.6 0-2.8-1.4-2.8-3 .1-1.6 1.4-2.8 3-2.8zm-89.4 125.1c1.6 0 2.9 1.2 2.9 2.8 0 1.7-1.3 2.9-2.9 2.9-1.6 0-2.8-1.3-2.8-2.9 0-1.5 1.2-2.8 2.8-2.8zm217.3-175.9c0 1.6-1.2 2.9-2.8 2.9-1.6 0-3-1.3-2.9-2.9 0-1.6 1.3-2.8 2.9-2.8 1.6 0 2.8 1.2 2.8 2.8zm-145.8-20.7c1.6 0 2.9 1.2 2.9 2.8 0 1.7-1.2 3-2.9 2.9-1.6 0-2.8-1.3-2.9-2.9 0-1.5 1.3-2.8 2.9-2.8zm-70.7 220.2h-1.5c-1.3-.6-2.2-1.5-2.1-3.1.1-1.1 1.1-2.3 2.2-2.6 1.2-.3 2.5.3 3.2 1.4.6 1 .5 2.4-.3 3.2-.4.5-.9.9-1.5 1.1z"/><circle class="st0" cx="4.3" cy="100.9" r="2.9"/></svg>