<svg xmlns="http://www.w3.org/2000/svg" viewBox="0 0 100 100"><path d="M89.5.7h-79C5.1.7.6 5.1.6 10.6v78.9c0 5.4 4.4 9.9 9.9 9.9h78.9c5.4 0 9.9-4.4 9.9-9.9v-79c0-5.4-4.4-9.8-9.8-9.8zM50 30.3c10.9 0 19.7 8.9 19.7 19.7S60.9 69.7 50 69.7 30.3 60.9 30.3 50 39.1 30.3 50 30.3zM13 89.5c-1.5 0-2.5-1-2.5-2.5V45.1h10.4c-.5 1.5-.5 3.5-.5 4.9 0 16.3 13.3 29.6 29.6 29.6S79.6 66.3 79.6 50c0-1.5 0-3.4-.5-4.9h10.4V87c0 1.5-1 2.5-2.5 2.5H13zm76.5-66.6c0 1.5-1 2.5-2.5 2.5h-9.9c-1.5 0-2.5-1-2.5-2.5V13c0-1.5 1-2.5 2.5-2.5H87c1.5 0 2.5 1 2.5 2.5v9.9zm0 0" fill="#272530"/></svg>