<?xml version="1.0" encoding="utf-8"?>
<!-- Generator: Adobe Illustrator 22.0.1, SVG Export Plug-In . SVG Version: 6.00 Build 0)  -->
<svg version="1.1" id="Layer_1" xmlns="http://www.w3.org/2000/svg" xmlns:xlink="http://www.w3.org/1999/xlink" x="0px" y="0px"
	 viewBox="0 0 100 100" style="enable-background:new 0 0 100 100;" xml:space="preserve">
<style type="text/css">
	.st0{fill:#272530;}
</style>
<g>
	<path class="st0" d="M72.9,44.5c-7.7,0-8.8,7.7-8.8,7.7h16.3C80.4,52.2,80.5,44.5,72.9,44.5z"/>
	<path class="st0" d="M35.8,52.2H21.3v13.3h13.8c2.1-0.1,5.9-0.7,5.9-6.5C41,52.1,35.8,52.2,35.8,52.2z"/>
	<path class="st0" d="M39.3,38.6c0-5.2-3.5-5.2-3.5-5.2H21.3v11.1h13.6C37.2,44.5,39.3,43.8,39.3,38.6z"/>
	<path class="st0" d="M94.1,0.7H5.9C3,0.7,0.7,3,0.7,5.9v88.2c0,2.9,2.4,5.2,5.2,5.2h88.2c2.9,0,5.2-2.3,5.2-5.2V5.9
		C99.3,3,97,0.7,94.1,0.7z M62,27.5h20.5v6.1H62V27.5z M51.6,59.7c0,15.2-15.8,14.7-15.8,14.7H9.9V24.6h25.9
		c7.9,0,14.1,4.3,14.1,13.2c0,8.9-7.6,9.5-7.6,9.5C52.3,47.3,51.6,59.7,51.6,59.7z M90,58.9H64.2c0,9.2,8.8,8.7,8.8,8.7
		c8.3,0,8-5.4,8-5.4h8.8c0,14.2-17,13.2-17,13.2c-20.4,0-19.1-19-19.1-19s0-19.1,19.1-19.1C92.8,37.3,90,58.9,90,58.9z"/>
</g>
</svg>
