<?xml version="1.0" encoding="utf-8"?>
<!-- Generator: Adobe Illustrator 22.0.1, SVG Export Plug-In . SVG Version: 6.00 Build 0)  -->
<svg version="1.1" id="Layer_1" xmlns="http://www.w3.org/2000/svg" xmlns:xlink="http://www.w3.org/1999/xlink" x="0px" y="0px"
	 viewBox="0 0 500 353.5" style="enable-background:new 0 0 500 353.5;" xml:space="preserve">
<style type="text/css">
	.st0{fill:#989898;}
	.st1{fill:#999898;}
	.st2{fill:#999899;}
</style>
<g>
	<path class="st0" d="M165.8,26.4c0.8,0.4,1.6,0.9,2,1.7c0.6,1.2,0.2,2.6-1,3.5c-1,0.8-2.5,0.8-3.5-0.1c-1.6-1.3-1.6-3.2,0-4.5
		c0.3-0.3,0.7-0.5,1.1-0.7C164.9,26.4,165.4,26.4,165.8,26.4z"/>
	<path class="st0" d="M183.7,26.4c0.8,0.4,1.6,0.9,2,1.7c0.6,1.2,0.2,2.6-1,3.5c-1,0.8-2.5,0.8-3.5-0.1c-1.6-1.3-1.6-3.2,0-4.5
		c0.3-0.3,0.7-0.5,1.1-0.7C182.8,26.4,183.2,26.4,183.7,26.4z"/>
	<path class="st0" d="M498.6,280.2c-0.5,1-1,1.9-2.2,2.1c-1.2,0.3-2.4-0.2-3.1-1.3c-0.6-1-0.6-2.4,0.1-3.3c1.4-1.8,3.8-1.5,4.9,0.5
		c0.1,0.1,0.1,0.3,0.3,0.4C498.6,279.2,498.6,279.7,498.6,280.2z"/>
	<path class="st0" d="M174.9,26.4c0.2,0.3,0.6,0.4,1,0.6c1,0.8,1.4,2,1,3.2c-0.4,1.1-1.7,2-2.8,2c-1.2,0-2.3-0.9-2.7-2
		c-0.4-1.1,0-2.4,1-3.2c0.3-0.2,0.7-0.3,1-0.6C173.8,26.4,174.3,26.4,174.9,26.4z"/>
	<path class="st0" d="M433.3,80.1c1.5,0,2.9,1.5,2.9,2.9c0,1.5-1.5,3-3,2.9c-1.5-0.1-2.9-1.5-2.9-3C430.3,81.4,431.7,80,433.3,80.1z
		"/>
	<path class="st1" d="M379.6,133.7c1.5,0,3,1.5,2.9,3c0,1.5-1.5,2.9-3,2.9c-1.5,0-2.9-1.4-2.9-2.9
		C376.6,135.1,378,133.7,379.6,133.7z"/>
	<path class="st0" d="M451,80.1c1.5,0,3,1.5,3,3c0,1.5-1.5,2.9-2.9,2.9c-1.5,0-2.9-1.4-3-2.9C448.1,81.6,449.5,80.1,451,80.1z"/>
	<path class="st0" d="M486.8,97.9c1.5,0,2.9,1.4,2.9,2.9c0,1.5-1.5,3-3,3c-1.5,0-2.9-1.5-2.9-2.9C483.9,99.3,485.3,97.9,486.8,97.9z
		"/>
	<path class="st1" d="M397.5,97.9c1.5,0,2.9,1.5,2.9,2.9c0,1.5-1.5,3-3,2.9c-1.5-0.1-2.9-1.5-2.9-2.9
		C394.5,99.3,396,97.9,397.5,97.9z"/>
	<path class="st0" d="M469,97.9c1.5,0,3,1.5,2.9,3c0,1.5-1.5,2.9-3,2.9c-1.5,0-2.9-1.4-2.9-2.9C466,99.4,467.4,97.9,469,97.9z"/>
	<path class="st1" d="M415.4,97.9c1.5,0,2.9,1.4,2.9,2.9c0,1.5-1.5,3-3,3c-1.5,0-2.9-1.5-2.9-2.9C412.4,99.3,413.8,97.9,415.4,97.9z
		"/>
	<path class="st1" d="M451.1,97.9c1.5,0,3,1.5,2.9,3c-0.1,1.5-1.5,2.9-3,2.9c-1.5,0-2.9-1.4-2.9-2.9
		C448.1,99.4,449.5,97.9,451.1,97.9z"/>
	<path class="st1" d="M382.5,154.5c0,1.5-1.5,2.9-2.9,2.9c-1.5,0-3-1.5-2.9-3c0-1.5,1.5-2.9,3.1-2.9
		C381.2,151.6,382.5,153.1,382.5,154.5z"/>
	<path class="st1" d="M397.4,151.5c1.5,0,3,1.5,3,3c0,1.5-1.5,2.9-2.9,2.9c-1.5,0-2.9-1.4-2.9-2.9
		C394.5,153,395.9,151.5,397.4,151.5z"/>
	<path class="st2" d="M433.2,133.7c1.5,0,3,1.4,3,3c0,1.5-1.5,2.9-2.9,2.9c-1.5,0-2.9-1.4-3-2.9
		C430.2,135.2,431.6,133.7,433.2,133.7z"/>
	<path class="st0" d="M379.6,62.2c1.5,0,3,1.5,3,3c0,1.5-1.5,2.9-2.9,2.9c-1.5,0-2.9-1.4-3-2.9C376.6,63.7,378,62.2,379.6,62.2z"/>
	<path class="st1" d="M415.3,151.5c1.5,0,2.9,1.4,2.9,2.9c0,1.5-1.5,3-3,3c-1.5,0-2.9-1.4-2.9-2.9
		C412.4,153,413.8,151.5,415.3,151.5z"/>
	<path class="st0" d="M397.5,62.2c1.5,0,3,1.5,2.9,3c-0.1,1.5-1.5,2.9-3,2.8c-1.5,0-2.9-1.4-2.9-2.9
		C394.5,63.6,395.9,62.2,397.5,62.2z"/>
	<path class="st1" d="M415.4,133.7c1.5,0,2.9,1.4,2.9,2.9c0,1.5-1.5,3-3,3c-1.5,0-2.9-1.5-2.9-2.9
		C412.4,135.1,413.8,133.6,415.4,133.7z"/>
	<path class="st0" d="M469,115.8c1.5,0,2.9,1.5,2.9,2.9c0,1.5-1.5,3-3,2.9c-1.5-0.1-2.9-1.5-2.9-2.9
		C466,117.2,467.5,115.8,469,115.8z"/>
	<path class="st1" d="M451,115.8c1.5,0,3,1.4,3,3c0,1.5-1.5,2.9-2.9,2.9c-1.5,0-2.9-1.4-3-2.9C448.1,117.3,449.5,115.8,451,115.8z"
		/>
	<path class="st0" d="M397.5,211c-1.5,0-2.9-1.3-3-2.8c-0.1-1.5,1.3-3,2.9-3.1c1.5,0,3,1.4,3,2.9C400.4,209.5,399,211,397.5,211z"/>
	<path class="st2" d="M433.2,115.8c1.5,0,3,1.5,3,3c0,1.5-1.5,2.9-2.9,2.9c-1.5,0-2.9-1.4-3-2.9
		C430.2,117.3,431.6,115.8,433.2,115.8z"/>
	<path class="st0" d="M418.3,118.7c0,1.5-1.4,2.9-2.9,3c-1.5,0.1-3-1.4-3-2.9c0-1.5,1.4-2.9,2.8-3
		C416.7,115.8,418.2,117.2,418.3,118.7z"/>
	<path class="st0" d="M400.4,118.7c0,1.5-1.4,2.9-2.9,3c-1.5,0.1-3-1.4-3-2.9c0-1.5,1.4-2.9,2.9-2.9
		C398.9,115.8,400.4,117.2,400.4,118.7z"/>
	<path class="st0" d="M415.3,187.3c1.5,0,3,1.4,3,3c0,1.5-1.4,2.9-2.9,2.9c-1.5,0-2.9-1.4-3-2.8
		C412.3,188.8,413.7,187.3,415.3,187.3z"/>
	<path class="st1" d="M379.6,115.8c1.5,0,2.9,1.4,2.9,2.9c0,1.5-1.5,3-3,3c-1.5,0-2.9-1.5-2.9-2.9
		C376.6,117.2,378.1,115.8,379.6,115.8z"/>
	<path class="st1" d="M379.6,97.9c1.5,0,3,1.5,2.9,3c0,1.5-1.5,2.9-3,2.9c-1.5,0-2.9-1.4-2.9-2.9C376.6,99.4,378.1,97.9,379.6,97.9z
		"/>
	<path class="st0" d="M433.3,157.4c-1.5,0-2.9-1.3-3-2.8c-0.1-1.5,1.3-3,2.9-3.1c1.5,0,3,1.4,3,2.9
		C436.1,155.9,434.7,157.4,433.3,157.4z"/>
	<path class="st0" d="M400.4,190.2c0,1.5-1.4,2.9-2.8,3c-1.5,0.1-3-1.4-3-2.9c0-1.5,1.4-2.9,2.8-3
		C398.9,187.2,400.4,188.6,400.4,190.2z"/>
	<path class="st1" d="M451.1,151.5c1.5,0,2.9,1.4,2.9,2.9c0,1.5-1.5,3-3,3c-1.5,0-2.9-1.5-2.9-2.9
		C448.1,153,449.6,151.5,451.1,151.5z"/>
	<path class="st2" d="M436.1,100.9c0,1.5-1.4,2.9-2.9,2.9c-1.5,0-3-1.5-3-3c0-1.5,1.4-2.9,2.9-2.9
		C434.7,97.9,436.1,99.4,436.1,100.9z"/>
	<path class="st1" d="M379.6,80.1c1.5,0,2.9,1.4,2.9,2.9c0,1.5-1.5,3-3,3c-1.5,0-2.9-1.5-2.9-2.9C376.6,81.5,378.1,80,379.6,80.1z"
		/>
	<path class="st1" d="M379.6,169.4c1.5,0,2.9,1.5,2.9,2.9c0,1.5-1.5,3-3,2.9c-1.5-0.1-2.9-1.5-2.9-2.9
		C376.6,170.8,378.1,169.4,379.6,169.4z"/>
	<path class="st0" d="M397.5,80.1c1.5,0,2.9,1.5,2.9,2.9c0,1.5-1.5,3-3,2.9c-1.5-0.1-2.9-1.5-2.9-2.9C394.5,81.5,396,80,397.5,80.1z
		"/>
	<path class="st0" d="M400.4,172.4c0,1.5-1.5,2.9-3,2.9c-1.5,0-3-1.5-2.9-3c0.1-1.5,1.5-2.9,3.1-2.9
		C399,169.5,400.4,170.9,400.4,172.4z"/>
	<path class="st0" d="M415.3,80.1c1.5,0,3,1.5,2.9,3c-0.1,1.5-1.5,2.9-3,2.9c-1.5,0-2.9-1.4-2.9-2.9C412.4,81.5,413.8,80,415.3,80.1
		z"/>
	<path class="st0" d="M397.4,133.7c1.5,0,3,1.4,3,3c0,1.5-1.4,2.9-2.9,2.9c-1.5,0-2.9-1.4-3-2.8
		C394.5,135.2,395.9,133.7,397.4,133.7z"/>
	<path class="st0" d="M391.4,190.2c0,1.5-1.3,3-2.8,3c-1.5,0-3-1.5-2.9-3c0.1-1.6,1.4-2.9,2.9-2.9
		C390.1,187.3,391.4,188.6,391.4,190.2z"/>
	<path class="st0" d="M165.2,97.9c1.5,0,2.9,1.5,2.9,2.9c0,1.5-1.5,3-3,2.9c-1.5-0.1-2.9-1.6-2.8-3
		C162.3,99.3,163.7,97.9,165.2,97.9z"/>
	<path class="st0" d="M254.6,97.9c1.5,0.1,2.9,1.5,2.8,3c0,1.5-1.5,2.9-3,2.9c-1.5,0-2.9-1.5-2.9-2.9
		C251.6,99.3,253.1,97.9,254.6,97.9z"/>
	<path class="st0" d="M468.9,258.8c1.5,0,3,1.5,2.9,3c0,1.5-1.5,2.9-2.9,2.9c-1.5,0-2.9-1.4-2.9-2.9
		C465.9,260.2,467.4,258.8,468.9,258.8z"/>
	<path class="st0" d="M468.9,223c1.5,0,2.9,1.4,2.9,2.9c0,1.5-1.5,3-3,3c-1.5,0-2.9-1.4-2.9-2.9C466,224.5,467.4,223,468.9,223z"/>
	<path class="st0" d="M275.3,100.9c0,1.5-1.5,2.9-3,2.9c-1.5,0-2.9-1.5-2.9-2.9c0-1.5,1.5-3,3-2.9C273.9,98,275.3,99.5,275.3,100.9z
		"/>
	<path class="st0" d="M293.2,100.8c0,1.5-1.4,2.9-2.9,3c-1.4,0.1-3-1.4-3-2.9c-0.1-1.5,1.4-3,3-3C291.7,97.9,293.1,99.4,293.2,100.8
		z"/>
	<path class="st0" d="M451.1,258.8c1.5,0,2.9,1.4,2.9,2.9c0,1.5-1.5,3-3,3c-1.5,0-2.9-1.4-2.9-2.9
		C448.1,260.2,449.5,258.8,451.1,258.8z"/>
	<path class="st0" d="M308.2,97.9c1.5,0,2.9,1.5,2.9,3c0,1.5-1.5,2.9-3,2.9c-1.5,0-2.9-1.5-2.9-2.9
		C305.2,99.3,306.7,97.9,308.2,97.9z"/>
	<path class="st0" d="M415.4,223c1.5,0,2.9,1.4,2.9,2.9c0,1.5-1.5,3-3,3c-1.5,0-2.9-1.5-2.9-2.9C412.4,224.4,413.8,223,415.4,223z"
		/>
	<path class="st0" d="M147.2,50.2c-1.5,0-2.9-1.5-2.9-3c0-1.5,1.5-3,3.1-2.9c1.5,0.1,2.9,1.6,2.8,3
		C150.2,48.8,148.7,50.2,147.2,50.2z"/>
	<path class="st0" d="M433.2,258.8c1.5,0,2.9,1.4,2.9,2.9c0,1.5-1.5,3-3,3c-1.5,0-2.9-1.4-2.9-2.9
		C430.2,260.2,431.7,258.7,433.2,258.8z"/>
	<path class="st0" d="M168.1,47.3c0,1.5-1.5,2.9-3,2.9c-1.5,0-2.9-1.5-2.9-2.9c0-1.5,1.5-3,3-2.9C166.7,44.4,168.1,45.8,168.1,47.3z
		"/>
	<path class="st0" d="M325.9,103.8c-1.5,0-2.9-1.5-2.9-3c0-1.5,1.5-3,3.1-2.9c1.5,0.1,2.9,1.6,2.8,3
		C328.9,102.4,327.4,103.8,325.9,103.8z"/>
	<path class="st0" d="M186,47.2c0,1.5-1.4,2.9-2.9,3c-1.4,0.1-3-1.4-3-2.8c-0.1-1.5,1.4-3,2.9-3C184.5,44.3,185.9,45.7,186,47.2z"/>
	<path class="st0" d="M418.3,261.7c0,1.5-1.5,2.9-2.9,2.9c-1.5,0-3-1.5-2.9-3c0-1.5,1.5-2.9,3.1-2.9
		C416.9,258.8,418.3,260.3,418.3,261.7z"/>
	<path class="st0" d="M385.6,172.3c0-1.6,1.3-2.9,2.9-2.9c1.5,0,2.9,1.4,2.9,2.9c0,1.5-1.3,3-2.8,3
		C387,175.3,385.4,173.8,385.6,172.3z"/>
	<path class="st0" d="M364.7,100.9c0,1.5-1.4,2.9-2.9,2.9c-1.4,0-2.9-1.4-3-2.9c0-1.5,1.5-3,3-3C363.2,98,364.7,99.4,364.7,100.9z"
		/>
	<path class="st0" d="M397.5,223c1.5,0,2.9,1.4,2.9,2.9c0,1.5-1.5,3-3,3c-1.5,0-2.9-1.5-2.9-2.9C394.5,224.4,396,223,397.5,223z"/>
	<path class="st0" d="M439.2,100.8c0-1.6,1.3-2.9,2.8-2.9c1.5,0,2.8,1.3,2.9,2.9c0.1,1.5-1.4,3.1-2.9,3
		C440.5,103.7,439,102.2,439.2,100.8z"/>
	<path class="st0" d="M457.1,100.8c0-1.6,1.4-2.9,2.9-2.9c1.5,0,2.9,1.4,2.8,2.9c0,1.5-1.4,3-2.9,2.9
		C458.5,103.8,456.9,102.4,457.1,100.8z"/>
	<path class="st0" d="M415.3,184.2c-1.6,0-2.9-1.4-2.9-2.9c0-1.6,1.4-2.8,3-2.9c1.5,0,2.8,1.5,2.9,2.8
		C418.3,182.7,416.8,184.2,415.3,184.2z"/>
	<path class="st0" d="M427.1,172.3c0,1.5-1.4,3-2.9,2.9c-1.5,0-3-1.4-2.9-3c0.1-1.5,1.4-2.9,2.9-2.8
		C425.8,169.4,427.1,170.8,427.1,172.3z"/>
	<path class="st0" d="M403.5,172.3c0-1.6,1.4-2.9,2.9-2.9c1.5,0,2.9,1.4,2.9,2.9c0,1.5-1.3,3-2.8,3
		C404.9,175.3,403.3,173.8,403.5,172.3z"/>
	<path class="st0" d="M385.6,208.1c0-1.6,1.3-2.9,2.8-2.9c1.5,0,2.9,1.3,2.9,2.9c0,1.6-1.4,3.1-2.9,3
		C386.8,210.9,385.4,209.4,385.6,208.1z"/>
	<path class="st0" d="M272.3,175.3c-1.5,0-2.9-1.5-2.9-3c0-1.5,1.5-3,3.1-2.9c1.5,0.1,2.9,1.5,2.8,3
		C275.3,173.9,273.8,175.3,272.3,175.3z"/>
	<path class="st0" d="M415.3,160.5c1.8-0.1,3,1.7,3,2.8c0,1.5-1.4,2.9-2.9,2.9c-1.6,0-3-1.3-3-2.9
		C412.4,161.8,413.7,160.5,415.3,160.5z"/>
	<path class="st0" d="M257.4,118.7c0,1.5-1.4,2.9-2.9,2.9c-1.4,0-2.9-1.4-3-2.9c0-1.5,1.5-3,3-3C256,115.8,257.4,117.3,257.4,118.7z
		"/>
	<path class="st0" d="M293.2,118.7c0,1.5-1.4,2.9-2.9,2.9c-1.4,0-2.9-1.4-3-2.9c0-1.5,1.5-3,3-3
		C291.8,115.8,293.2,117.3,293.2,118.7z"/>
	<path class="st0" d="M308,121.7c-1.5,0-2.9-1.5-2.9-3c0-1.5,1.5-3,3.1-2.9c1.5,0.1,2.9,1.6,2.8,3C311,120.3,309.5,121.7,308,121.7z
		"/>
	<path class="st0" d="M328.9,118.8c0,1.5-1.5,2.9-3,2.9c-1.4,0-2.9-1.5-2.9-2.9c0-1.5,1.5-3,3-2.9
		C327.5,115.8,328.9,117.3,328.9,118.8z"/>
	<path class="st0" d="M486.8,294.5c1.5,0,3,1.4,3,3c0,1.5-1.5,2.9-2.9,2.9c-1.5,0-2.9-1.4-3-2.8C483.8,296,485.2,294.5,486.8,294.5z
		"/>
	<path class="st0" d="M427.1,118.7c0,1.5-1.4,3-2.9,2.9c-1.5,0-3-1.4-2.9-3c0.1-1.5,1.4-2.9,2.9-2.8
		C425.8,115.8,427.1,117.2,427.1,118.7z"/>
	<path class="st0" d="M439.2,118.7c0-1.6,1.3-2.9,2.9-2.9c1.5,0,2.9,1.4,2.9,2.9c0,1.5-1.3,3-2.8,3
		C440.6,121.7,439,120.2,439.2,118.7z"/>
	<path class="st0" d="M343.9,97.9c1.5,0,2.9,1.5,2.9,3c0,1.5-1.5,2.9-3,2.9c-1.5,0-2.9-1.5-2.9-2.9
		C340.9,99.3,342.4,97.9,343.9,97.9z"/>
	<path class="st0" d="M168.1,83c0,1.5-1.4,2.9-2.9,2.9c-1.4,0-2.9-1.4-3-2.9c0-1.5,1.5-3,3-3C166.7,80.1,168.1,81.5,168.1,83z"/>
	<path class="st0" d="M427.1,154.4c0,1.5-1.3,3-2.8,3c-1.6,0-3.1-1.5-3-3c0.1-1.6,1.3-2.9,2.9-2.9
		C425.8,151.5,427.1,152.9,427.1,154.4z"/>
	<path class="st0" d="M183,85.9c-1.5,0-2.9-1.5-2.9-3c0-1.5,1.5-3,3.1-2.9c1.5,0.1,2.9,1.5,2.8,3C185.9,84.5,184.4,86,183,85.9z"/>
	<path class="st0" d="M147.4,62.2c1.5,0,2.9,1.5,2.9,3c0,1.5-1.5,2.9-3,2.9c-1.5,0-3-1.6-2.9-3.1C144.4,63.5,145.9,62.2,147.4,62.2z
		"/>
	<path class="st0" d="M433.2,240.9c1.5,0,2.9,1.4,2.9,2.9c0,1.5-1.5,3-3,3c-1.5,0-2.9-1.4-2.9-2.9
		C430.2,242.3,431.7,240.9,433.2,240.9z"/>
	<path class="st0" d="M165.2,62.2c1.5,0.1,2.9,1.5,2.8,3c0,1.5-1.5,2.9-3,2.9c-1.5,0-2.9-1.5-2.9-2.9
		C162.2,63.6,163.7,62.1,165.2,62.2z"/>
	<path class="st0" d="M427.1,136.5c0.2,1.5-1.4,3.1-2.9,3c-1.6,0-2.9-1.6-2.9-2.9c0.1-1.6,1.3-2.9,2.9-2.9
		C425.7,133.6,427.1,135,427.1,136.5z"/>
	<path class="st0" d="M183,68.1c-1.5,0-2.9-1.5-2.9-3c0-1.5,1.5-3,3.1-2.9c1.5,0.1,2.9,1.5,2.8,3C185.9,66.7,184.4,68.1,183,68.1z"
		/>
	<path class="st0" d="M272.3,80.1c1.5,0,2.9,1.4,3,2.9c0.1,1.5-1.4,3-3,3c-1.5,0-2.9-1.5-2.9-2.9C269.4,81.5,270.9,80.1,272.3,80.1z
		"/>
	<path class="st0" d="M203.8,65.1c0,1.5-1.4,2.9-2.9,3c-1.4,0.1-3-1.4-3-2.8c-0.1-1.4,1.3-3,2.8-3C202.3,62.1,203.8,63.5,203.8,65.1
		z"/>
	<path class="st0" d="M272.3,68.1c-1.5,0-2.9-1.5-2.9-3c0-1.5,1.5-3,3.1-2.9c1.5,0.1,2.9,1.6,2.8,3
		C275.2,66.7,273.8,68.1,272.3,68.1z"/>
	<path class="st0" d="M415.3,214.1c1.8-0.1,3,1.7,2.9,2.8c0,1.5-1.4,2.9-2.9,2.9c-1.6,0-3-1.3-3-2.9
		C412.4,215.4,413.7,214.2,415.3,214.1z"/>
	<path class="st0" d="M308,85.9c-1.5,0-2.9-1.5-2.9-3c0-1.5,1.5-3,3.1-2.9c1.5,0.1,2.9,1.6,2.8,3C311,84.5,309.5,86,308,85.9z"/>
	<path class="st0" d="M343.8,85.9c-1.5,0-2.9-1.5-2.9-3c0-1.5,1.5-3,3.1-2.9c1.5,0.1,2.9,1.5,2.8,3C346.7,84.5,345.2,86,343.8,85.9z
		"/>
	<path class="st0" d="M457.1,136.6c0-1.6,1.3-2.9,2.8-2.9c1.5,0,2.9,1.3,2.9,2.8c0,1.6-1.4,3.1-2.9,3
		C458.3,139.5,456.9,137.9,457.1,136.6z"/>
	<path class="st0" d="M364.6,82.9c0,1.5-1.4,2.9-2.9,3c-1.4,0.1-3-1.4-3-2.8c-0.1-1.5,1.4-3,2.9-3C363.2,80.1,364.6,81.5,364.6,82.9
		z"/>
	<path class="st0" d="M415.3,148.4c-1.6,0-2.9-1.3-2.9-2.9c0-1.6,1.4-2.9,3-2.9c1.7-0.1,2.9,1.7,2.9,2.9
		C418.2,147.1,416.8,148.4,415.3,148.4z"/>
	<path class="st0" d="M272.4,133.7c1.5,0,2.9,1.5,2.9,3c0,1.5-1.5,2.9-2.9,2.9c-1.5,0-3-1.6-2.9-3C269.5,135,271,133.6,272.4,133.7z
		"/>
	<path class="st0" d="M415.3,276.6c1.5,0,2.9,1.4,2.9,2.9c0,1.5-1.5,3-3,3c-1.5,0-2.9-1.4-2.9-2.9
		C412.3,278.1,413.8,276.6,415.3,276.6z"/>
	<path class="st0" d="M451.1,276.6c1.5,0,2.9,1.5,2.9,2.9c0,1.5-1.5,3-3,2.9c-1.5-0.1-2.9-1.5-2.9-2.9
		C448.1,278,449.6,276.6,451.1,276.6z"/>
	<path class="st0" d="M409.3,190.1c0,1.6-1.4,3.1-2.9,3c-1.6-0.1-2.9-1.6-2.9-2.9c0.1-1.6,1.3-2.9,2.9-2.9
		C407.9,187.3,409.2,188.6,409.3,190.1z"/>
	<path class="st0" d="M96.6,83c0,1.4-1.5,2.9-2.9,2.9c-1.4,0-2.9-1.5-3-2.9c0-1.5,1.4-3,2.9-3C95.1,80.1,96.6,81.5,96.6,83z"/>
	<path class="st0" d="M415.3,124.8c1.8-0.1,3,1.7,3,2.8c0,1.5-1.4,2.9-2.9,2.9c-1.6,0-3-1.3-3-2.9
		C412.4,126.1,413.7,124.8,415.3,124.8z"/>
	<path class="st0" d="M22.1,80.1c1.5,0,3,1.4,3.1,2.9c0,1.4-1.4,2.9-2.9,3c-1.4,0-2.9-1.4-3-2.9C19.2,81.6,20.6,80.1,22.1,80.1z"/>
	<path class="st0" d="M421.4,100.8c0-1.6,1.3-2.9,2.9-2.9c1.5,0,2.8,1.4,2.9,2.9c0.1,1.3-1.3,3-2.9,3
		C422.7,103.8,421.2,102.3,421.4,100.8z"/>
	<path class="st0" d="M60.9,83c0,1.5-1.5,2.9-2.9,2.9c-1.4,0-2.9-1.5-3-2.9c0-1.5,1.4-3,2.9-3C59.4,80.1,60.9,81.5,60.9,83z"/>
	<path class="st1" d="M78.7,83c0,1.5-1.4,2.9-2.9,2.9c-1.4,0-2.9-1.4-3-2.9c0-1.5,1.4-3,2.8-3C77.2,80,78.7,81.5,78.7,83z"/>
	<path class="st0" d="M111.5,50.2c-1.5,0-2.9-1.5-2.9-3c0-1.5,1.5-2.9,2.9-2.9c1.6,0,3,1.5,3,3C114.4,48.8,112.9,50.2,111.5,50.2z"
		/>
	<path class="st0" d="M445,172.3c0.2,1.3-1.3,3-2.8,3c-1.6,0-3-1.5-2.9-3c0.1-1.6,1.4-2.9,2.9-2.9C443.7,169.4,445,170.8,445,172.3z
		"/>
	<path class="st0" d="M307.9,139.5c-1.5-0.1-2.9-1.7-2.7-3.1c0.1-1.5,1.7-2.9,3.2-2.7c1.4,0.1,2.8,1.7,2.7,3.2
		C310.9,138.3,309.3,139.7,307.9,139.5z"/>
	<path class="st0" d="M391.4,136.6c0,1.5-1.4,3-2.9,2.9c-1.5,0-3-1.4-2.9-3c0.1-1.5,1.4-2.9,2.9-2.8
		C390.1,133.7,391.4,135.1,391.4,136.6z"/>
	<path class="st0" d="M96.6,100.8c0,1.4-1.4,2.9-2.9,3c-1.4,0.1-3-1.3-3-2.8c-0.1-1.4,1.4-3,2.8-3C95.1,97.9,96.6,99.3,96.6,100.8z"
		/>
	<path class="st0" d="M114.5,82.9c0,1.4-1.4,2.9-2.9,3c-1.4,0.1-3-1.4-3-2.8c-0.1-1.4,1.4-3,2.8-3C112.9,80,114.4,81.4,114.5,82.9z"
		/>
	<path class="st0" d="M114.5,100.9c0,1.5-1.4,2.9-2.9,2.9c-1.4,0-2.9-1.4-3-2.9c0-1.5,1.4-3,2.9-3C113,97.9,114.5,99.4,114.5,100.9z
		"/>
	<path class="st0" d="M397.4,202c-1.6,0-2.9-1.4-2.9-2.9c0-1.6,1.4-2.8,3-2.9c1.5,0,2.8,1.5,2.9,2.8
		C400.4,200.6,399,202.1,397.4,202z"/>
	<path class="st0" d="M385.6,100.8c0-1.6,1.3-2.9,2.9-2.9c1.5,0,2.8,1.3,2.9,2.9c0.1,1.4-1.4,3.1-3,3
		C386.9,103.7,385.4,102.2,385.6,100.8z"/>
	<path class="st0" d="M397.5,219.9c-1.6,0-2.9-1.3-3-2.8c-0.1-1.2,1.1-3,2.9-3c1.8,0,3,1.7,3,2.8C400.4,218.5,399,219.9,397.5,219.9
		z"/>
	<path class="st0" d="M367.8,83c0-1.6,1.3-2.9,2.8-2.9c1.5,0,2.8,1.3,2.9,2.9c0.1,1.4-1.4,3.1-2.9,3C369,85.9,367.6,84.3,367.8,83z"
		/>
	<path class="st0" d="M361.7,187.3c1.5,0,2.9,1.4,2.9,2.9c0,1.5-1.4,2.9-2.9,2.9c-1.4,0-2.9-1.4-3-2.9
		C358.7,188.8,360.2,187.3,361.7,187.3z"/>
	<path class="st0" d="M305.2,208.1c0-1.5,1.5-3,3-3c1.5,0,2.9,1.5,2.9,3c0,1.5-1.5,2.9-2.9,2.9C306.6,211,305.2,209.5,305.2,208.1z"
		/>
	<path class="st0" d="M293.2,208c0,1.5-1.4,2.9-2.9,3c-1.4,0.1-3-1.4-3-2.9c-0.1-1.5,1.4-3,3-3C291.7,205.1,293.1,206.6,293.2,208z"
		/>
	<path class="st0" d="M445,82.9c0.2,1.5-1.4,3-2.8,3c-1.6,0-3-1.3-2.9-3c0-1.6,1.3-2.9,2.9-2.9C443.6,80,445,81.4,445,82.9z"/>
	<path class="st0" d="M462.9,82.9c0.2,1.5-1.3,3-2.8,3c-1.6,0-3-1.3-3-2.9c0-1.6,1.3-2.9,2.8-2.9C461.5,80,462.8,81.4,462.9,82.9z"
		/>
	<path class="st0" d="M415.3,94.8c-1.6,0-2.9-1.3-2.9-2.9c0-1.6,1.4-2.9,3-2.9c1.8,0,2.9,1.7,2.9,2.9
		C418.2,93.4,416.8,94.8,415.3,94.8z"/>
	<path class="st0" d="M326,133.7c1.5,0,2.9,1.4,2.9,2.9c0,1.5-1.4,2.9-2.9,2.9c-1.4,0-2.9-1.4-3-2.9
		C323,135.2,324.5,133.7,326,133.7z"/>
	<path class="st0" d="M415.3,76.9c-1.6,0-2.9-1.4-2.9-2.9c0-1.6,1.4-2.9,3-2.9c1.5,0,2.8,1.3,2.9,2.8
		C418.3,75.5,416.8,77,415.3,76.9z"/>
	<path class="st0" d="M75.8,68.1c-1.4,0-2.9-1.5-2.9-2.9c0-1.5,1.4-3,2.9-3c1.6,0,3,1.4,3,3C78.7,66.6,77.3,68.1,75.8,68.1z"/>
	<path class="st0" d="M275.3,208.1c0,1.5-1.4,2.9-2.9,2.9c-1.4,0-2.9-1.4-3-2.9c0-1.5,1.4-3,3-3
		C273.8,205.1,275.3,206.6,275.3,208.1z"/>
	<path class="st0" d="M93.6,62.2c1.5,0,3,1.4,3.1,2.9c0,1.4-1.4,2.9-2.9,3c-1.4,0-2.9-1.4-3-2.9C90.7,63.7,92.1,62.2,93.6,62.2z"/>
	<path class="st0" d="M403.5,136.5c0-1.6,1.3-2.9,2.9-2.9c1.5,0,2.8,1.4,2.9,2.9c0.1,1.3-1.3,3-2.9,3
		C404.9,139.5,403.3,138.1,403.5,136.5z"/>
	<path class="st0" d="M114.5,65.1c0,1.4-1.4,2.9-2.9,3c-1.4,0.1-3-1.4-3-2.8c-0.1-1.4,1.4-3,2.8-3C113,62.1,114.4,63.6,114.5,65.1z"
		/>
	<path class="st0" d="M343.9,193.1c-1.4,0-2.9-1.4-3-2.9c0-1.5,1.4-3,3-3c1.5,0,2.9,1.5,2.9,2.9
		C346.8,191.7,345.4,193.1,343.9,193.1z"/>
	<path class="st0" d="M343.8,139.5c-1.4,0-2.9-1.5-3-2.9c0-1.5,1.5-3,3-3c1.5,0,2.9,1.5,2.9,3C346.8,138.1,345.3,139.5,343.8,139.5z
		"/>
	<path class="st0" d="M367.8,172.3c0-1.6,1.4-2.9,2.9-2.9c1.5,0,2.8,1.4,2.9,2.9c0.1,1.2-1.3,3-2.9,3
		C369.1,175.3,367.6,173.8,367.8,172.3z"/>
	<path class="st0" d="M364.6,172.3c0,1.5-1.3,2.9-2.9,3c-1.4,0.1-3-1.4-3-2.8c-0.1-1.5,1.4-3,2.9-3
		C363.2,169.4,364.6,170.8,364.6,172.3z"/>
	<path class="st0" d="M343.9,169.4c1.4,0,2.9,1.5,2.9,3c0,1.5-1.5,2.9-3,2.9c-1.5,0-2.9-1.5-2.9-2.9
		C340.9,170.8,342.4,169.4,343.9,169.4z"/>
	<path class="st0" d="M397.5,112.7c-1.6,0-2.9-1.3-3-2.8c0-1.6,1.3-2.9,3-2.9c1.8-0.1,2.9,1.7,2.9,2.9
		C400.4,111.3,399,112.7,397.5,112.7z"/>
	<path class="st0" d="M326,169.4c1.5,0,2.9,1.4,2.9,2.9c0,1.5-1.4,2.9-2.9,3c-1.4,0-2.9-1.4-3-2.9C323,170.9,324.5,169.4,326,169.4z
		"/>
	<path class="st0" d="M415.3,112.7c-1.6,0-2.9-1.3-2.9-2.9c0-1.6,1.4-2.9,3-2.9c1.7,0,2.9,1.7,2.9,2.9
		C418.2,111.3,416.8,112.7,415.3,112.7z"/>
	<path class="st0" d="M290.2,175.3c-1.4,0-2.9-1.5-3-2.9c0-1.5,1.5-3,3-3c1.5,0,2.9,1.5,2.9,3C293.2,173.8,291.7,175.3,290.2,175.3z
		"/>
	<path class="st0" d="M433.3,112.7c-1.6,0-3-1.3-3-2.8c-0.1-1.6,1.3-3,2.9-3c1.6,0,3,1.3,3,2.8C436.1,111.2,434.7,112.7,433.3,112.7
		z"/>
	<path class="st0" d="M403.5,100.8c0-1.6,1.3-2.9,2.9-2.9c1.5,0,2.8,1.4,2.9,2.9c0.1,1.3-1.3,3-2.9,3
		C404.9,103.8,403.3,102.3,403.5,100.8z"/>
	<path class="st0" d="M111.5,175.3c-1.5,0-2.9-1.5-2.9-3c0-1.5,1.5-2.9,2.9-2.9c1.6,0,3,1.5,3,3
		C114.4,173.9,112.9,175.3,111.5,175.3z"/>
	<path class="st0" d="M93.6,175.3c-1.5,0-2.9-1.5-2.9-3c0-1.5,1.5-2.9,2.9-2.9c1.6,0,3,1.5,3,3C96.6,173.9,95.1,175.3,93.6,175.3z"
		/>
	<path class="st0" d="M25.1,118.7c0,1.4-1.4,2.9-2.9,2.9c-1.4,0-2.9-1.4-3-2.9c0-1.5,1.4-3,2.8-3C23.6,115.8,25.1,117.2,25.1,118.7z
		"/>
	<path class="st1" d="M78.7,172.3c0,1.4-1.4,2.9-2.9,3c-1.4,0.1-3-1.4-3-2.8c-0.1-1.4,1.4-3,2.8-3C77.2,169.4,78.7,170.8,78.7,172.3
		z"/>
	<path class="st1" d="M43,118.7c0,1.5-1.4,2.9-2.9,2.9c-1.4,0-2.9-1.4-3-2.9c0-1.5,1.4-3,2.8-3C41.5,115.8,43,117.2,43,118.7z"/>
	<path class="st1" d="M60.9,118.7c0,1.4-1.4,2.9-2.9,3c-1.4,0.1-3-1.4-3-2.8c-0.1-1.4,1.4-3,2.8-3C59.3,115.8,60.8,117.2,60.9,118.7
		z"/>
	<path class="st0" d="M275.3,190.2c0,1.5-1.4,2.9-2.9,3c-1.4,0-2.9-1.4-3-2.9c0-1.5,1.4-3,3-3C273.8,187.3,275.3,188.7,275.3,190.2z
		"/>
	<path class="st1" d="M75.8,115.8c1.6,0,3,1.5,3,3c0,1.5-1.5,2.9-3,2.9c-1.5,0-2.9-1.5-2.9-2.9C72.9,117.3,74.3,115.8,75.8,115.8z"
		/>
	<path class="st0" d="M93.6,115.8c1.5,0,3,1.4,3.1,2.9c0,1.5-1.4,2.9-2.9,3c-1.4,0-2.9-1.4-3-2.9C90.7,117.4,92.1,115.8,93.6,115.8z
		"/>
	<path class="st0" d="M129.4,115.8c1.6,0,3,1.5,2.9,3c-0.1,1.5-1.6,2.9-3,2.8c-1.5,0-2.9-1.5-2.9-3
		C126.5,117.2,128,115.8,129.4,115.8z"/>
	<path class="st0" d="M290.2,193.1c-1.5,0-2.9-1.5-2.9-3c0-1.5,1.5-2.9,3.1-2.9c1.5,0,2.9,1.5,2.8,3
		C293.1,191.8,291.6,193.2,290.2,193.1z"/>
	<path class="st0" d="M218.7,193.1c-1.5,0-2.9-1.5-2.9-3c0-1.5,1.5-2.9,3.1-2.9c1.5,0,2.9,1.5,2.8,3
		C221.6,191.8,220.2,193.2,218.7,193.1z"/>
	<path class="st1" d="M75.7,97.9c1.6,0,3,1.5,3,3c0,1.4-1.5,2.9-2.9,2.9c-1.4,0-2.9-1.5-2.9-2.9C72.8,99.4,74.3,97.9,75.7,97.9z"/>
	<path class="st0" d="M311,190.2c0,1.5-1.4,2.9-2.9,2.9c-1.4,0-2.9-1.4-3-2.9c0-1.5,1.4-3,3-3C309.6,187.3,311,188.7,311,190.2z"/>
	<path class="st0" d="M57.9,103.8c-1.4,0-2.9-1.5-2.9-2.9c0-1.5,1.5-2.9,2.9-2.9c1.6,0,3,1.5,3,3C60.8,102.4,59.4,103.8,57.9,103.8z
		"/>
	<path class="st0" d="M343.9,115.8c1.5,0,2.9,1.5,2.8,3c0,1.5-1.5,2.9-3,2.9c-1.5,0-2.9-1.5-2.9-2.9
		C340.9,117.2,342.4,115.8,343.9,115.8z"/>
	<path class="st0" d="M397.5,160.5c1.7-0.1,2.9,1.7,2.9,2.9c0,1.5-1.4,2.9-2.9,2.9c-1.6,0-3-1.4-3-3
		C394.5,161.8,395.9,160.5,397.5,160.5z"/>
	<path class="st0" d="M367.8,100.8c0-1.6,1.4-2.9,2.9-2.9c1.5,0,2.8,1.4,2.9,2.9c0.1,1.2-1.3,3-2.9,3
		C369.1,103.8,367.6,102.3,367.8,100.8z"/>
	<path class="st0" d="M373.5,118.8c0,1.5-1.4,3-2.9,2.9c-1.5,0-3-1.4-2.9-3.1c0.1-1.5,1.4-2.9,3-2.8
		C372.2,115.8,373.5,117.2,373.5,118.8z"/>
	<path class="st1" d="M43,100.9c0,1.5-1.5,2.9-2.9,2.9c-1.4,0-2.9-1.4-3-2.9c0-1.5,1.4-3,2.9-3C41.5,97.9,43,99.4,43,100.9z"/>
	<path class="st0" d="M391.4,118.7c0,1.5-1.4,3-2.9,2.9c-1.5,0-3-1.4-2.9-3c0.1-1.5,1.4-2.9,2.9-2.8
		C390.1,115.8,391.4,117.2,391.4,118.7z"/>
	<path class="st1" d="M22.2,103.8c-1.4,0-2.9-1.4-3-2.9c0-1.5,1.4-3,2.9-3c1.6,0,3,1.4,3,2.9C25.1,102.3,23.7,103.8,22.2,103.8z"/>
	<path class="st0" d="M403.5,118.7c0-1.6,1.3-2.9,2.9-2.9c1.5,0,2.8,1.3,2.9,2.9c0.1,1.4-1.4,3.1-3,3
		C404.7,121.6,403.3,120.1,403.5,118.7z"/>
	<path class="st0" d="M328.9,190.2c0,1.5-1.4,2.9-2.9,2.9c-1.4,0-2.9-1.4-3-2.9c0-1.5,1.4-3,3-3
		C327.5,187.3,328.9,188.7,328.9,190.2z"/>
	<path class="st0" d="M475,100.8c0-1.6,1.3-2.9,2.9-2.9c1.5,0,2.8,1.4,2.9,2.9c0.1,1.3-1.3,3-2.9,3
		C476.4,103.8,474.8,102.3,475,100.8z"/>
	<path class="st0" d="M129.4,97.9c1.6,0,3,1.5,3,3c0,1.5-1.5,2.9-3,2.9c-1.4,0-2.9-1.5-2.9-2.9C126.5,99.4,127.9,97.9,129.4,97.9z"
		/>
	<path class="st0" d="M129.3,187.3c1.5,0,3,1.4,3,2.9c0,1.5-1.4,2.9-2.9,2.9c-1.4,0-2.9-1.4-3-2.9
		C126.4,188.8,127.9,187.3,129.3,187.3z"/>
	<path class="st0" d="M403.5,154.4c0-1.5,1.4-2.9,2.9-2.8c1.5,0,2.8,1.4,2.8,2.9c0,1.5-1.4,3-2.9,2.9
		C404.9,157.4,403.3,156,403.5,154.4z"/>
	<path class="st0" d="M96.6,190.3c0,1.5-1.5,2.9-3,2.9c-1.5,0-2.9-1.5-2.9-2.9c0-1.5,1.5-2.9,2.9-2.9
		C95.2,187.3,96.6,188.8,96.6,190.3z"/>
	<path class="st0" d="M385.6,154.4c0-1.6,1.3-2.9,2.9-2.9c1.5,0,2.8,1.3,2.9,2.9c0.1,1.3-1.4,3.1-3,3
		C386.9,157.3,385.4,155.8,385.6,154.4z"/>
	<path class="st0" d="M433.2,148.4c-1.6,0-3-1.3-3-2.8c-0.1-1.6,1.3-3,2.9-3c1.6,0,3,1.3,3,2.8C436.1,147,434.7,148.4,433.2,148.4z"
		/>
	<path class="st0" d="M367.8,154.4c0-1.6,1.3-2.9,2.9-2.9c1.5,0,2.8,1.4,2.9,2.9c0.1,1.3-1.3,3-2.9,3
		C369.1,157.4,367.6,155.9,367.8,154.4z"/>
	<path class="st0" d="M364.6,154.5c0,1.5-1.5,2.9-3,2.9c-1.5,0-2.9-1.5-2.9-2.9c0-1.5,1.5-3,3-2.9
		C363.2,151.6,364.7,153.1,364.6,154.5z"/>
	<path class="st0" d="M346.8,154.5c0,1.5-1.5,2.9-2.9,2.9c-1.4,0-2.9-1.5-3-2.9c0-1.5,1.5-3,3-3C345.4,151.5,346.8,153,346.8,154.5z
		"/>
	<path class="st0" d="M328.9,154.4c0,1.5-1.4,2.9-2.9,3c-1.4,0.1-3-1.4-3-2.8c-0.1-1.5,1.4-3,2.9-3
		C327.4,151.5,328.9,152.9,328.9,154.4z"/>
	<path class="st0" d="M308.1,157.4c-1.4,0-2.9-1.4-3-2.9c0-1.5,1.5-3,3-3c1.5,0,2.9,1.5,2.9,2.9C311,155.9,309.6,157.4,308.1,157.4z
		"/>
	<path class="st0" d="M293.2,154.5c0,1.5-1.5,2.9-3,2.9c-1.4,0-2.9-1.5-2.9-2.9c0-1.5,1.5-3,3-2.9
		C291.8,151.6,293.2,153,293.2,154.5z"/>
	<path class="st0" d="M275.3,154.4c0,1.5-1.4,2.9-2.9,3c-1.4,0.1-3-1.4-3-2.8c-0.1-1.5,1.4-3,3-3C273.8,151.5,275.3,153,275.3,154.4
		z"/>
	<path class="st0" d="M257.4,154.5c0,1.5-1.4,2.9-2.9,2.9c-1.4,0-2.9-1.4-3-2.9c0-1.5,1.4-3,3-3C256,151.5,257.4,153,257.4,154.5z"
		/>
	<path class="st0" d="M236.6,151.5c1.5,0,2.9,1.4,2.9,2.9c0,1.5-1.4,2.9-2.9,3c-1.4,0.1-3-1.4-3-2.8
		C233.6,153.1,235.1,151.6,236.6,151.5z"/>
	<path class="st0" d="M364.6,118.7c0,1.5-1.4,2.9-2.9,2.9c-1.4,0-2.9-1.5-3-2.9c0-1.5,1.5-3,3-3
		C363.2,115.8,364.7,117.3,364.6,118.7z"/>
	<path class="st0" d="M221.7,154.5c0,1.5-1.5,2.9-2.9,2.9c-1.4,0-2.9-1.5-3-2.9c0-1.5,1.5-3,3-3C220.3,151.5,221.7,153,221.7,154.5z
		"/>
	<path class="st0" d="M132.3,154.5c0,1.5-1.5,2.9-3,2.9c-1.5,0-2.9-1.5-2.9-3c0-1.5,1.5-2.9,2.9-2.9
		C130.9,151.6,132.4,153,132.3,154.5z"/>
	<path class="st0" d="M111.5,151.5c1.6,0,3,1.5,3,3c0,1.5-1.5,2.9-3,2.9c-1.5,0-2.9-1.5-2.9-3C108.6,153,110.1,151.5,111.5,151.5z"
		/>
	<path class="st0" d="M60.9,136.7c0,1.4-1.5,2.9-3,2.9c-1.5,0-2.9-1.5-2.9-2.9c0-1.5,1.5-2.9,2.9-2.9
		C59.4,133.7,60.9,135.1,60.9,136.7z"/>
	<path class="st0" d="M93.7,151.5c1.6,0,3,1.5,2.9,3c-0.1,1.5-1.6,2.9-3,2.8c-1.5,0-2.9-1.5-2.9-3C90.8,153,92.2,151.5,93.7,151.5z"
		/>
	<path class="st1" d="M75.7,133.7c1.5,0,3,1.4,3.1,2.9c0,1.4-1.4,2.9-2.9,3c-1.4,0-2.9-1.4-3-2.9C72.8,135.2,74.2,133.7,75.7,133.7z
		"/>
	<path class="st1" d="M75.7,151.5c1.6,0,3,1.4,3,2.9c0,1.5-1.4,2.9-2.9,2.9c-1.4,0-2.9-1.4-3-2.9C72.8,153.1,74.3,151.6,75.7,151.5z
		"/>
	<path class="st0" d="M93.6,133.7c1.6,0,3,1.4,3,3c0,1.4-1.5,2.9-2.9,2.9c-1.4,0-2.9-1.5-2.9-2.9C90.7,135.2,92.2,133.7,93.6,133.7z
		"/>
	<path class="st0" d="M126.5,136.6c0-1.5,1.4-3,2.9-3c1.6,0,3,1.4,3,3c0,1.4-1.5,2.9-2.9,2.9C128,139.5,126.5,138.1,126.5,136.6z"/>
	<path class="st0" d="M397.5,148.4c-1.6,0-2.9-1.3-3-2.8c0-1.6,1.3-2.9,3-2.9c1.7-0.1,2.9,1.7,2.9,2.9
		C400.4,147,399,148.4,397.5,148.4z"/>
	<path class="st0" d="M239.6,136.6c0,1.5-1.4,2.9-2.9,3c-1.4,0.1-3-1.4-3-2.9c-0.1-1.5,1.4-3,3-3
		C238.1,133.7,239.5,135.1,239.6,136.6z"/>
	<path class="st0" d="M254.5,133.7c1.5,0,2.9,1.4,2.9,2.9c0,1.5-1.4,2.9-2.9,3c-1.4,0-3-1.4-3-2.9
		C251.5,135.2,253,133.7,254.5,133.7z"/>
	<path class="st0" d="M364.7,136.6c0,1.5-1.4,2.9-2.9,2.9c-1.4,0-2.9-1.4-3-2.9c0-1.5,1.4-3,3-3
		C363.2,133.7,364.7,135.1,364.7,136.6z"/>
	<path class="st0" d="M287.3,136.4c0.1-1.5,1.7-2.9,3.2-2.7c1.4,0.1,2.8,1.7,2.7,3.2c-0.1,1.5-1.7,2.8-3.1,2.7
		C288.5,139.4,287.2,137.8,287.3,136.4z"/>
	<path class="st0" d="M451.1,273.5c-1.6,0-3-1.4-3-3c0-1.5,1.4-2.7,3-2.8c1.6-0.1,2.9,1.5,2.9,2.7
		C454.1,272,452.6,273.5,451.1,273.5z"/>
	<path class="st0" d="M397.5,178.4c1.7-0.1,2.9,1.6,2.9,2.9c-0.1,1.5-1.5,2.9-3,2.9c-1.6,0-2.9-1.3-2.9-2.9
		C394.5,179.7,395.9,178.4,397.5,178.4z"/>
	<path class="st0" d="M367.8,136.6c0-1.6,1.3-2.9,2.8-2.9c1.5,0,2.8,1.3,3,2.8c0.1,1.4-1.4,3.1-2.9,3
		C369,139.5,367.6,137.9,367.8,136.6z"/>
	<path class="st0" d="M93.6,94.8c-1.5,0-2.9-1.4-2.9-2.9c0-1.5,1.4-2.8,2.9-2.8c1.6,0,3,1.3,3,2.8C96.6,93.4,95.2,94.8,93.6,94.8z"
		/>
	<path class="st0" d="M147.3,219.9c-1.6,0-3-1.4-2.9-3c0-1.5,1.4-2.7,2.9-2.8c1.9-0.1,3,1.6,3,2.8
		C150.3,218.4,148.8,219.9,147.3,219.9z"/>
	<path class="st0" d="M111.6,94.8c-1.6,0-3-1.4-3-3c0-1.4,1.4-2.8,2.8-2.8c1.6,0,3,1.2,3,2.7C114.5,93.3,113.1,94.8,111.6,94.8z"/>
	<path class="st0" d="M165.1,94.8c-1.5,0-2.9-1.4-2.9-2.9c0-1.5,1.4-2.9,3-2.9c1.5,0,2.8,1.3,2.8,2.8
		C168.1,93.4,166.7,94.8,165.1,94.8z"/>
	<path class="st0" d="M183,89.1c1.6,0,2.9,1.3,2.9,2.8c0,1.5-1.5,3-3,2.9c-1.5,0-2.9-1.4-2.9-2.9C180.1,90.4,181.5,89.1,183,89.1z"
		/>
	<path class="st0" d="M272.3,89.1c1.6,0,3,1.3,3,2.8c0,1.5-1.4,3-3,3c-1.5,0-2.9-1.3-2.9-2.9C269.4,90.5,270.8,89.1,272.3,89.1z"/>
	<path class="st0" d="M290.3,94.8c-1.6,0-3-1.3-3-2.9c0-1.4,1.3-2.8,2.8-2.8c1.6,0,3.1,1.3,3.1,2.8
		C293.2,93.4,291.8,94.8,290.3,94.8z"/>
	<path class="st0" d="M254.3,211c-1.5-0.1-2.9-1.7-2.7-3.1c0.1-1.5,1.7-2.9,3.2-2.7c1.5,0.2,2.8,1.7,2.7,3.2
		C257.3,209.8,255.7,211.1,254.3,211z"/>
	<path class="st0" d="M343.8,94.8c-1.6,0-3-1.4-2.9-3c0-1.5,1.4-2.7,2.9-2.8c1.6,0,3,1.3,3,2.8C346.8,93.3,345.4,94.8,343.8,94.8z"
		/>
	<path class="st0" d="M361.7,94.8c-1.6,0-3-1.4-3-3c0-1.4,1.4-2.8,2.8-2.8c1.6,0,3.1,1.3,3,2.9C364.6,93.4,363.2,94.8,361.7,94.8z"
		/>
	<path class="st0" d="M111.5,205.1c1.5,0,2.9,1.4,3,2.9c0,1.5-1.5,3-3,3c-1.5,0-2.9-1.5-2.9-2.9
		C108.6,206.6,110.1,205.2,111.5,205.1z"/>
	<path class="st0" d="M379.6,89.1c1.8-0.1,2.9,1.7,2.9,2.9c-0.1,1.5-1.4,2.9-2.9,2.9c-1.6,0-3-1.4-3-3C376.7,90.3,378,89,379.6,89.1
		z"/>
	<path class="st0" d="M397.5,94.8c-1.6,0-3-1.4-3-3c0-1.5,1.4-2.7,3-2.8c1.8-0.1,2.9,1.7,2.9,2.9C400.3,93.4,398.9,94.8,397.5,94.8z
		"/>
	<path class="st0" d="M308.1,202c-1.5,0-2.9-1.3-2.9-2.9c0-1.5,1.4-2.9,3-2.9c1.5,0,2.8,1.3,2.9,2.8
		C311.1,200.6,309.6,202,308.1,202z"/>
	<path class="st0" d="M379.6,184.2c-1.6,0-3-1.4-3-3c0-1.5,1.4-2.7,3-2.8c1.7-0.1,2.9,1.6,2.9,2.9
		C382.5,182.8,381.1,184.2,379.6,184.2z"/>
	<path class="st0" d="M361.7,184.2c-1.6,0-3-1.4-3-3c0-1.5,1.4-2.8,2.9-2.8c1.6,0,3,1.2,3,2.7C364.7,182.7,363.3,184.1,361.7,184.2z
		"/>
	<path class="st0" d="M343.8,178.4c1.6,0,3,1.3,3,2.8c0,1.5-1.4,3-3,3c-1.5,0-2.9-1.4-2.9-2.9C340.9,179.8,342.2,178.4,343.8,178.4z
		"/>
	<path class="st0" d="M325.9,184.2c-1.6,0-3-1.5-2.9-3c0.1-1.5,1.4-2.8,3-2.7c1.5,0,2.8,1.3,2.9,2.8
		C328.9,182.7,327.5,184.2,325.9,184.2z"/>
	<path class="st0" d="M308.1,178.4c1.6,0,3,1.3,3,2.8c0,1.5-1.4,3-3,3c-1.5,0-2.9-1.4-2.9-2.9C305.1,179.8,306.5,178.4,308.1,178.4z
		"/>
	<path class="st0" d="M290.3,184.2c-1.6,0-3-1.4-3-3c0-1.5,1.3-2.8,2.8-2.8c1.6,0,3.1,1.3,3,2.8
		C293.1,182.8,291.8,184.1,290.3,184.2z"/>
	<path class="st0" d="M165.1,112.7c-1.5,0-2.9-1.3-2.9-2.9c0-1.5,1.4-2.9,3-2.9c1.5,0,2.8,1.3,2.9,2.8
		C168.1,111.2,166.7,112.7,165.1,112.7z"/>
	<path class="st0" d="M236.6,184.2c-1.5,0-2.9-1.4-2.9-2.9c0-1.5,1.4-2.9,3-2.9c1.5,0,2.8,1.3,2.8,2.8
		C239.6,182.7,238.1,184.2,236.6,184.2z"/>
	<path class="st0" d="M218.7,112.7c-1.5,0-2.9-1.3-2.9-2.9c0-1.5,1.4-2.9,3-2.9c1.5,0,2.8,1.3,2.9,2.8
		C221.7,111.2,220.3,112.7,218.7,112.7z"/>
	<path class="st0" d="M254.5,112.7c-1.5,0-2.9-1.3-2.9-2.9c0-1.5,1.4-2.9,3-2.9c1.5,0,2.8,1.3,2.9,2.8
		C257.5,111.2,256,112.7,254.5,112.7z"/>
	<path class="st0" d="M257.4,190.2c0,1.5-1.4,2.9-2.9,2.9c-1.4,0-2.9-1.4-3-2.9c0-1.5,1.5-3,3-3C256,187.3,257.4,188.8,257.4,190.2z
		"/>
	<path class="st0" d="M290.3,112.7c-1.6,0-3-1.4-3-3c0-1.4,1.4-2.8,2.8-2.8c1.6,0,3.1,1.3,3,2.9
		C293.1,111.3,291.8,112.7,290.3,112.7z"/>
	<path class="st0" d="M308.1,112.7c-1.6,0-3-1.4-2.9-3c0-1.5,1.4-2.7,2.9-2.8c1.6,0,3,1.3,3,2.8
		C311.1,111.2,309.6,112.7,308.1,112.7z"/>
	<path class="st0" d="M221.7,208.1c0,1.5-1.5,2.9-2.9,2.9c-1.4,0-2.9-1.4-3-2.9c0-1.5,1.5-3,3-3
		C220.3,205.2,221.7,206.6,221.7,208.1z"/>
	<path class="st0" d="M325.9,106.9c1.6,0,3,1.3,3,2.8c0,1.5-1.4,3-3,3c-1.5,0-2.9-1.4-2.9-2.9C323,108.3,324.4,106.9,325.9,106.9z"
		/>
	<path class="st0" d="M147.3,273.5c-1.6,0-3-1.4-3-3c0-1.4,1.4-2.7,2.9-2.8c1.6,0,3,1.2,3,2.7C150.3,272,148.8,273.5,147.3,273.5z"
		/>
	<path class="st0" d="M361.6,112.7c-1.5,0-2.9-1.4-2.9-2.9c0-1.5,1.4-2.9,3.1-2.8c1.5,0,2.8,1.4,2.8,2.8
		C364.6,111.3,363.2,112.7,361.6,112.7z"/>
	<path class="st0" d="M379.6,106.9c1.8-0.1,2.9,1.7,2.9,2.9c0,1.5-1.4,2.9-2.9,2.9c-1.6,0-3-1.4-3-3
		C376.6,108.2,378,106.9,379.6,106.9z"/>
	<path class="st0" d="M165.1,41.2c-1.5,0-2.9-1.4-2.9-2.9c0-1.5,1.4-2.9,3.1-2.8c1.5,0,2.8,1.4,2.8,2.8
		C168.1,39.8,166.6,41.2,165.1,41.2z"/>
	<path class="st0" d="M462.9,261.7c0,1.5-1.4,3-2.8,3c-1.6,0-2.9-1.4-2.9-3c0-1.5,1.3-2.9,2.9-2.9
		C461.5,258.8,462.9,260.1,462.9,261.7z"/>
	<path class="st0" d="M183,41.2c-1.6,0-3-1.4-2.9-3c0-1.5,1.4-2.7,2.9-2.8c1.6,0,3,1.3,3,2.8C186,39.7,184.6,41.2,183,41.2z"/>
	<path class="st0" d="M445,261.7c0,1.5-1.4,2.9-2.9,2.9c-1.6,0-2.9-1.4-2.9-3.1c0-1.5,1.4-2.9,2.9-2.8
		C443.7,258.8,445,260.1,445,261.7z"/>
	<path class="st0" d="M427.1,261.6c0,1.5-1.3,3-2.8,3c-1.5,0-2.9-1.4-2.9-3c0-1.5,1.3-2.9,2.9-2.9
		C425.8,258.7,427.1,260.1,427.1,261.6z"/>
	<path class="st0" d="M385.6,47.2c0-1.6,1.3-2.9,2.9-2.9c1.5,0,2.8,1.3,2.9,2.9c0.1,1.3-1.4,3-2.8,3
		C386.9,50.2,385.6,48.8,385.6,47.2z"/>
	<path class="st0" d="M409.3,261.7c0,1.5-1.4,3-2.8,3c-1.6,0-2.9-1.4-2.9-3c0-1.5,1.4-2.9,2.9-2.9
		C407.9,258.8,409.3,260.1,409.3,261.7z"/>
	<path class="st0" d="M451.1,112.7c-1.6,0-3-1.4-3-3c0-1.5,1.4-2.8,3-2.8c1.8-0.1,2.9,1.7,2.9,2.9
		C454,111.3,452.6,112.7,451.1,112.7z"/>
	<path class="st0" d="M111.5,59.1c-1.5,0-2.9-1.4-2.9-2.9c0-1.5,1.4-2.8,2.9-2.8c1.6,0,3,1.3,3,2.8C114.5,57.7,113,59.1,111.5,59.1z
		"/>
	<path class="st0" d="M468.9,112.7c-1.6,0-3-1.4-2.9-3c0-1.5,1.4-2.8,3-2.7c1.6,0,2.9,1.4,2.9,2.9
		C471.8,111.3,470.4,112.7,468.9,112.7z"/>
	<path class="st0" d="M468.9,255.6c-1.6,0-3-1.4-2.9-3c0-1.5,1.4-2.7,3-2.8c1.6-0.1,2.9,1.5,2.9,2.8
		C471.9,254.2,470.5,255.6,468.9,255.6z"/>
	<path class="st0" d="M486.9,106.9c1.6,0,2.9,1.4,2.9,2.9c-0.1,1.5-1.5,2.9-3,2.8c-1.6,0-3-1.4-2.9-3
		C483.9,108.2,485.3,106.9,486.9,106.9z"/>
	<path class="st0" d="M10.4,118.7c0-1.6,1.4-2.9,2.9-2.9c1.5,0,2.9,1.4,2.9,2.9c0,1.6-1.4,3-3,3C11.7,121.6,10.2,120.2,10.4,118.7z"
		/>
	<path class="st0" d="M451.1,255.6c-1.6,0-3-1.4-3-3c0-1.5,1.4-2.7,3-2.8c1.7-0.1,2.9,1.7,2.9,2.9
		C454,254.3,452.6,255.6,451.1,255.6z"/>
	<path class="st0" d="M147.3,59.1c-1.6,0-3-1.4-3-3c0-1.4,1.4-2.8,2.8-2.8c1.6,0,3.1,1.3,3,2.9C150.2,57.7,148.8,59.1,147.3,59.1z"
		/>
	<path class="st0" d="M433.2,255.6c-1.6,0-3-1.4-3-3c0-1.5,1.4-2.7,3-2.8c1.6-0.1,2.9,1.5,2.9,2.8
		C436.2,254.2,434.7,255.6,433.2,255.6z"/>
	<path class="st0" d="M451,166.3c-1.6,0-3-1.5-2.9-3c0.1-1.5,1.5-2.7,3-2.7c1.5,0,2.8,1.5,2.8,2.8C454,164.9,452.6,166.3,451,166.3z
		"/>
	<path class="st0" d="M165.1,59.1c-1.5,0-2.9-1.4-2.9-2.9c0-1.5,1.4-2.9,3.1-2.8c1.5,0,2.8,1.4,2.8,2.8
		C168.1,57.7,166.6,59.1,165.1,59.1z"/>
	<path class="st0" d="M415.3,255.6c-1.6,0-3-1.4-3-3c0-1.5,1.4-2.7,3-2.8c1.7-0.1,2.9,1.7,2.9,2.9
		C418.2,254.3,416.8,255.6,415.3,255.6z"/>
	<path class="st0" d="M183.1,59.1c-1.6,0-3-1.4-3-2.9c0-1.4,1.3-2.8,2.8-2.8c1.6,0,3.1,1.3,3.1,2.8
		C185.9,57.6,184.6,59.1,183.1,59.1z"/>
	<path class="st0" d="M379.6,166.3c-1.6,0-3-1.3-3-2.9c0-1.5,1.4-2.8,3-2.8c1.7-0.1,3,1.7,2.9,2.8
		C382.5,164.9,381.1,166.3,379.6,166.3z"/>
	<path class="st0" d="M272.3,255.6c-1.5,0-2.9-1.4-2.9-2.9c0-1.5,1.4-2.9,3.1-2.8c1.5,0,2.8,1.4,2.8,2.8
		C275.3,254.3,273.8,255.7,272.3,255.6z"/>
	<path class="st0" d="M361.7,166.3c-1.6,0-3-1.4-2.9-3c0-1.5,1.4-2.7,2.9-2.8c1.6,0,3,1.2,3,2.7
		C364.7,164.8,363.3,166.3,361.7,166.3z"/>
	<path class="st0" d="M343.8,166.3c-1.5,0-2.9-1.4-2.9-2.9c0-1.5,1.4-2.9,3-2.9c1.5,0,2.8,1.3,2.8,2.8
		C346.8,164.9,345.4,166.3,343.8,166.3z"/>
	<path class="st0" d="M200.9,59.1c-1.6,0-3-1.4-2.9-3c0-1.5,1.4-2.7,3-2.8c1.6,0,2.8,1.6,2.9,2.8C203.9,57.6,202.4,59.1,200.9,59.1z
		"/>
	<path class="st0" d="M325.9,166.3c-1.5,0-2.9-1.4-2.9-2.9c0-1.5,1.4-2.9,3-2.9c1.5,0,2.8,1.3,2.9,2.8
		C328.9,164.9,327.5,166.3,325.9,166.3z"/>
	<path class="st0" d="M308.1,166.3c-1.6,0-3-1.4-3-3c0-1.5,1.4-2.8,2.9-2.8c1.6,0,3.1,1.3,3,2.9C311,164.9,309.6,166.3,308.1,166.3z
		"/>
	<path class="st0" d="M343.8,106.9c1.6,0,3,1.3,3,2.8c0,1.5-1.4,3-3,2.9c-1.5,0-2.9-1.4-2.9-2.9
		C340.9,108.3,342.3,106.9,343.8,106.9z"/>
	<path class="st0" d="M272.4,166.3c-1.6,0-3-1.4-2.9-3c0-1.5,1.4-2.7,2.9-2.8c1.6,0,3,1.2,3,2.7
		C275.3,164.8,273.9,166.3,272.4,166.3z"/>
	<path class="st0" d="M254.4,166.3c-1.5,0-2.9-1.4-2.9-2.9c0-1.5,1.4-2.9,3.1-2.8c1.5,0,2.8,1.4,2.8,2.8
		C257.4,164.9,256,166.3,254.4,166.3z"/>
	<path class="st0" d="M379.5,59.1c-1.6,0-3-1.4-2.9-3c0-1.5,1.4-2.7,3-2.8c1.6,0,2.8,1.6,2.9,2.8C382.5,57.6,381.1,59.1,379.5,59.1z
		"/>
	<path class="st0" d="M218.7,166.3c-1.5,0-2.9-1.4-2.9-2.9c0-1.5,1.4-2.9,3.1-2.8c1.5,0,2.8,1.3,2.8,2.8
		C221.7,164.9,220.3,166.3,218.7,166.3z"/>
	<path class="st0" d="M254.5,255.6c-1.6,0-3-1.4-3-3c0-1.4,1.4-2.7,2.9-2.8c1.9-0.1,3,1.6,3,2.7C257.5,254.1,256,255.6,254.5,255.6z
		"/>
	<path class="st0" d="M397.4,59.1c-1.6,0-3-1.4-2.9-3c0-1.5,1.4-2.7,3-2.8c1.6,0,2.8,1.6,2.9,2.8C400.4,57.6,399,59.1,397.4,59.1z"
		/>
	<path class="st0" d="M165.1,255.6c-1.6,0-3-1.5-2.9-3c0.1-1.5,1.5-2.8,3-2.7c1.5,0,2.8,1.3,2.9,2.8
		C168.1,254.2,166.7,255.7,165.1,255.6z"/>
	<path class="st0" d="M147.3,255.6c-1.6,0-3-1.4-3-3c0-1.4,1.4-2.8,2.8-2.8c1.6,0,3,1.2,3,2.7C150.3,254.1,148.8,255.6,147.3,255.6z
		"/>
	<path class="st0" d="M462.9,243.8c0,1.5-1.4,2.9-2.8,3c-1.6,0-2.9-1.4-2.9-3c0-1.5,1.4-2.9,2.9-2.9
		C461.5,240.9,462.9,242.3,462.9,243.8z"/>
	<path class="st0" d="M445,243.8c0,1.5-1.3,3-2.8,3c-1.5,0-2.9-1.4-2.9-3c0-1.5,1.3-2.9,2.9-2.9C443.6,240.9,445,242.2,445,243.8z"
		/>
	<path class="st0" d="M275.3,243.9c0,1.5-1.5,2.9-3,2.9c-1.5,0-2.9-1.5-2.9-2.9c0-1.5,1.5-3,3-2.9
		C273.9,240.9,275.3,242.4,275.3,243.9z"/>
	<path class="st0" d="M367.8,65.1c0-1.6,1.3-2.9,2.9-2.9c1.5,0,2.8,1.3,2.9,2.9c0.1,1.3-1.4,3-2.8,3
		C369.1,68.1,367.8,66.7,367.8,65.1z"/>
	<path class="st0" d="M385.6,65.1c0-1.6,1.3-2.9,2.9-2.9c1.5,0,2.8,1.3,2.9,2.9c0.1,1.3-1.4,3-2.8,3
		C386.9,68.1,385.6,66.7,385.6,65.1z"/>
	<path class="st0" d="M290.2,237.8c-1.5,0-2.9-1.4-2.9-2.9c0-1.5,1.4-2.9,3.1-2.8c1.5,0,2.8,1.4,2.8,2.8
		C293.2,236.4,291.7,237.8,290.2,237.8z"/>
	<path class="st0" d="M308.1,148.4c-1.6,0-3-1.4-3-3c0-1.5,1.4-2.8,2.9-2.8c1.6,0,3,1.2,3,2.7C311.1,146.9,309.7,148.4,308.1,148.4z
		"/>
	<path class="st0" d="M272.3,232c1.6,0,3,1.3,3,2.8c0,1.5-1.4,3-3,3c-1.5,0-2.9-1.3-2.9-2.9C269.4,233.4,270.7,232,272.3,232z"/>
	<path class="st0" d="M10.4,100.9c0-1.6,1.3-2.9,2.8-2.9c1.5,0,2.9,1.3,2.9,2.8c0,1.6-1.3,3-2.9,3C11.7,103.8,10.2,102.3,10.4,100.9
		z"/>
	<path class="st0" d="M254.5,232c1.8-0.1,3,1.6,3,2.8c0,1.5-1.5,3-3,2.9c-1.5,0-2.9-1.4-2.9-2.9C251.5,233.4,252.9,232,254.5,232z"
		/>
	<path class="st0" d="M290.3,148.4c-1.6,0-3-1.4-3-2.9c0-1.4,1.3-2.8,2.8-2.8c1.6,0,3.1,1.3,3.1,2.8
		C293.2,147,291.8,148.4,290.3,148.4z"/>
	<path class="st0" d="M183,237.8c-1.6,0-3-1.4-3-3c0-1.4,1.4-2.7,2.9-2.8c1.6,0,3,1.2,3,2.7C186,236.3,184.6,237.8,183,237.8z"/>
	<path class="st0" d="M486.8,94.8c-1.6,0-3-1.4-3-3c0-1.5,1.4-2.7,3-2.8c1.8-0.1,2.9,1.7,2.9,2.9C489.7,93.4,488.3,94.8,486.8,94.8z
		"/>
	<path class="st0" d="M218.8,196.3c1.8-0.1,2.9,1.7,2.9,2.8c0,1.5-1.5,2.9-3,2.9c-1.5,0-2.9-1.4-2.9-2.9
		C215.8,197.6,217.2,196.3,218.8,196.3z"/>
	<path class="st0" d="M165.1,237.8c-1.6,0-3-1.4-2.9-3c0-1.5,1.4-2.7,3-2.8c1.5,0,2.8,1.5,2.9,2.8
		C168.1,236.3,166.7,237.8,165.1,237.8z"/>
	<path class="st0" d="M468.9,94.8c-1.6,0-3-1.4-3-3c0-1.5,1.4-2.7,3-2.8c1.7-0.1,2.9,1.7,2.9,2.9C471.8,93.4,470.4,94.8,468.9,94.8z
		"/>
	<path class="st0" d="M236.6,196.3c1.8-0.1,3,1.7,3,2.8c0,1.5-1.5,3-3,2.9c-1.5,0-2.9-1.4-2.9-2.9
		C233.7,197.6,235,196.3,236.6,196.3z"/>
	<path class="st0" d="M165.1,76.9c-1.5,0-2.9-1.4-2.9-2.9c0-1.5,1.4-2.9,3.1-2.8c1.5,0,2.8,1.4,2.8,2.8
		C168.1,75.6,166.6,77,165.1,76.9z"/>
	<path class="st0" d="M147.3,237.8c-1.6,0-3-1.4-3-3c0-1.4,1.4-2.8,2.8-2.8c1.6,0,3,1.2,3,2.7C150.3,236.3,148.8,237.8,147.3,237.8z
		"/>
	<path class="st0" d="M451.1,94.8c-1.6,0-3-1.4-3-3c0-1.5,1.4-2.7,3-2.8c1.8-0.1,2.9,1.8,2.9,2.9C454,93.4,452.6,94.8,451.1,94.8z"
		/>
	<path class="st0" d="M254.4,202c-1.5,0-2.9-1.4-2.9-2.9c0-1.5,1.4-2.9,3.1-2.8c1.5,0,2.8,1.4,2.8,2.8
		C257.4,200.6,256,202.1,254.4,202z"/>
	<path class="st0" d="M183,76.9c-1.6,0-3-1.4-3-3c0-1.4,1.3-2.8,2.8-2.8c1.6,0,3.1,1.3,3,2.8C185.9,75.5,184.5,76.9,183,76.9z"/>
	<path class="st0" d="M457.1,225.9c0-1.5,1.3-2.9,2.9-2.9c1.5,0,2.9,1.3,2.9,2.9c0,1.5-1.3,3-2.8,3
		C458.5,228.9,457.1,227.5,457.1,225.9z"/>
	<path class="st0" d="M236.6,148.4c-1.5,0-2.9-1.3-2.9-2.9c0-1.5,1.4-2.9,3-2.9c1.5,0,2.8,1.3,2.9,2.8
		C239.6,147,238.1,148.4,236.6,148.4z"/>
	<path class="st0" d="M326,76.9c-1.6,0-3-1.4-3-2.9c0-1.4,1.3-2.8,2.8-2.8c1.6,0,3.1,1.3,3.1,2.8C328.9,75.5,327.5,76.9,326,76.9z"
		/>
	<path class="st0" d="M147.3,124.8c1.8-0.1,3,1.7,2.9,2.8c0,1.5-1.5,3-3,2.9c-1.5,0-2.9-1.4-2.9-2.9
		C144.3,126.1,145.7,124.8,147.3,124.8z"/>
	<path class="st0" d="M343.8,76.9c-1.5,0-2.9-1.4-2.9-2.9c0-1.5,1.4-2.9,3.1-2.8c1.5,0,2.8,1.4,2.8,2.8
		C346.8,75.6,345.3,77,343.8,76.9z"/>
	<path class="st0" d="M236.6,130.6c-1.5,0-2.9-1.4-2.9-2.9c0-1.5,1.4-2.9,3.1-2.8c1.5,0,2.8,1.3,2.8,2.8
		C239.6,129.1,238.1,130.6,236.6,130.6z"/>
	<path class="st0" d="M254.4,124.8c1.6,0,3,1.3,3,2.8c0,1.5-1.4,3-3,3c-1.5,0-2.9-1.3-2.9-2.9C251.5,126.2,252.9,124.8,254.4,124.8z
		"/>
	<path class="st0" d="M272.3,130.6c-1.6,0-3-1.5-2.9-3c0.1-1.5,1.4-2.8,3-2.7c1.5,0,2.8,1.3,2.9,2.8
		C275.3,129.1,273.9,130.6,272.3,130.6z"/>
	<path class="st0" d="M361.7,76.9c-1.6,0-3-1.5-2.9-3c0.1-1.5,1.5-2.8,3-2.7c1.5,0,2.8,1.3,2.9,2.8C364.7,75.5,363.2,77,361.7,76.9z
		"/>
	<path class="st0" d="M290.2,130.6c-1.5,0-2.9-1.4-2.9-2.9c0-1.5,1.4-2.9,3.1-2.8c1.5,0,2.8,1.3,2.8,2.8
		C293.2,129.1,291.7,130.6,290.2,130.6z"/>
	<path class="st0" d="M409.3,225.9c0,1.5-1.4,3-2.8,3c-1.6,0-2.9-1.4-2.9-3c0-1.5,1.4-2.9,2.9-2.9
		C407.9,223,409.3,224.4,409.3,225.9z"/>
	<path class="st0" d="M308.1,130.6c-1.5,0-2.9-1.3-2.9-2.9c0-1.5,1.4-2.9,3-2.9c1.5,0,2.8,1.3,2.9,2.8
		C311.1,129.1,309.6,130.6,308.1,130.6z"/>
	<path class="st0" d="M379.6,76.9c-1.6,0-3-1.3-3-2.9c0-1.5,1.4-2.8,2.9-2.8c1.6,0,3,1.3,2.9,2.8C382.5,75.5,381.1,76.9,379.6,76.9z
		"/>
	<path class="st0" d="M325.9,130.6c-1.5,0-2.9-1.4-2.9-2.9c0-1.5,1.4-2.9,3.1-2.8c1.5,0,2.8,1.4,2.8,2.8
		C328.9,129.2,327.5,130.6,325.9,130.6z"/>
	<path class="st0" d="M397.4,76.9c-1.6,0-3-1.4-2.9-3c0-1.5,1.4-2.7,3-2.8c1.7,0,2.9,1.7,2.9,2.9C400.3,75.6,398.9,77,397.4,76.9z"
		/>
	<path class="st0" d="M343.8,130.6c-1.5,0-2.9-1.4-2.9-2.9c0-1.5,1.4-2.9,3-2.9c1.5,0,2.8,1.3,2.8,2.8
		C346.8,129.1,345.4,130.6,343.8,130.6z"/>
	<path class="st0" d="M293.2,225.9c0,1.5-1.4,2.9-2.9,3c-1.4,0-2.9-1.4-3-2.9c0-1.5,1.4-3,3-3C291.7,223,293.2,224.5,293.2,225.9z"
		/>
	<path class="st0" d="M361.7,124.8c1.6,0,3,1.3,2.9,2.8c0,1.5-1.5,3-3,2.9c-1.5,0-2.9-1.4-2.9-2.9
		C358.8,126.1,360.1,124.8,361.7,124.8z"/>
	<path class="st0" d="M275.3,225.9c0,1.5-1.4,2.9-2.9,3c-1.4,0-2.9-1.4-3-2.9c-0.1-1.5,1.4-3,3-3C273.8,223,275.3,224.4,275.3,225.9
		z"/>
	<path class="st0" d="M379.6,130.6c-1.6,0-3-1.4-2.9-3c0-1.5,1.4-2.7,3-2.8c1.6-0.1,2.9,1.6,2.9,2.9
		C382.5,129.2,381.1,130.6,379.6,130.6z"/>
	<path class="st0" d="M257.4,225.9c0,1.5-1.4,2.9-2.9,3c-1.4,0.1-2.9-1.3-3-2.8c-0.1-1.5,1.4-3,2.9-3
		C255.9,223,257.4,224.4,257.4,225.9z"/>
	<path class="st0" d="M397.5,130.6c-1.6,0-3-1.3-3-2.9c0-1.5,1.4-2.8,2.9-2.8c1.8-0.1,3,1.7,3,2.8
		C400.4,129.1,399,130.5,397.5,130.6z"/>
	<path class="st0" d="M451.1,76.9c-1.6,0-3-1.3-3-2.9c0-1.5,1.4-2.8,3-2.8c1.6,0,2.9,1.4,2.9,2.8C454,75.5,452.6,76.9,451.1,76.9z"
		/>
	<path class="st0" d="M10.4,83c0-1.6,1.3-2.9,2.8-2.9c1.5,0,2.9,1.3,2.9,2.9c0,1.6-1.4,3-2.9,3C11.7,85.9,10.2,84.4,10.4,83z"/>
	<path class="st0" d="M239.6,226c0,1.5-1.5,2.9-2.9,2.9c-1.4,0-2.9-1.5-3-2.9c0-1.5,1.5-3,3-3C238.1,223,239.6,224.5,239.6,226z"/>
	<path class="st0" d="M433.2,124.8c1.6,0,3,1.3,3,2.8c0,1.5-1.4,2.9-2.9,2.9c-1.6,0-3-1.3-3-2.9
		C430.2,126.1,431.6,124.8,433.2,124.8z"/>
	<path class="st0" d="M221.7,225.9c0,1.5-1.4,2.9-2.9,3c-1.4,0-2.9-1.4-3-2.9c-0.1-1.5,1.4-3,3-3C220.2,223,221.7,224.4,221.7,225.9
		z"/>
	<path class="st0" d="M469,130.6c-1.6,0-3-1.3-3-2.9c0-1.5,1.4-2.8,2.9-2.8c1.8-0.1,3,1.7,3,2.8C471.9,129.1,470.5,130.5,469,130.6z
		"/>
	<path class="st0" d="M165.2,240.9c1.5,0,2.9,1.4,2.9,2.9c0,1.5-1.4,2.9-2.9,3c-1.4,0-2.9-1.4-3-2.9
		C162.1,242.4,163.6,240.9,165.2,240.9z"/>
	<path class="st0" d="M165.2,228.9c-1.4,0-2.9-1.4-3-2.9c0-1.5,1.5-3,3-3c1.5,0,2.9,1.5,2.9,2.9
		C168.1,227.4,166.6,228.9,165.2,228.9z"/>
	<path class="st0" d="M147.2,228.9c-1.5,0-2.9-1.5-2.9-2.9c0-1.5,1.5-3,3-2.9c1.4,0,2.9,1.5,2.8,3
		C150.2,227.5,148.7,228.9,147.2,228.9z"/>
	<path class="st0" d="M132.3,226c0,1.5-1.5,2.9-3,2.9c-1.5,0-2.9-1.5-2.9-2.9c0-1.5,1.5-2.9,2.9-2.9
		C130.9,223,132.4,224.5,132.3,226z"/>
	<path class="st0" d="M451,219.9c-1.6,0-3-1.4-2.9-3c0-1.5,1.4-2.7,3-2.8c1.5,0,2.8,1.5,2.9,2.8C454,218.5,452.6,219.9,451,219.9z"
		/>
	<path class="st0" d="M385.6,82.9c0-1.5,1.4-2.9,2.9-2.8c1.5,0,2.8,1.4,2.8,2.9c0,1.5-1.5,3-2.9,2.9
		C386.7,85.8,385.4,84.2,385.6,82.9z"/>
	<path class="st0" d="M236.6,211c-1.4,0-2.9-1.5-3-2.9c0-1.5,1.4-2.9,2.9-3c1.5,0,3,1.4,3,3C239.6,209.6,238.1,211,236.6,211z"/>
	<path class="st0" d="M239.6,190.2c0,1.5-1.5,2.9-2.9,2.9c-1.4,0-2.9-1.5-3-2.9c0-1.5,1.5-3,3-3
		C238.2,187.3,239.6,188.8,239.6,190.2z"/>
	<path class="st0" d="M403.5,82.9c0-1.6,1.3-2.9,2.9-2.9c1.5,0,2.8,1.4,2.9,2.9c0.1,1.3-1.4,3-2.9,3
		C404.8,85.9,403.5,84.6,403.5,82.9z"/>
	<path class="st0" d="M421.4,82.9c0-1.6,1.4-2.9,2.9-2.9c1.5,0,2.8,1.4,2.9,2.9c0.1,1.3-1.4,3-2.9,3
		C422.4,85.8,421.2,84.2,421.4,82.9z"/>
	<path class="st0" d="M379.6,148.4c-1.6,0-3-1.4-2.9-3c0-1.5,1.4-2.7,3-2.8c1.6-0.1,2.9,1.6,2.9,2.9
		C382.5,147.1,381.1,148.4,379.6,148.4z"/>
	<path class="st0" d="M290.3,214.2c1.6,0,2.9,1.4,2.9,2.9c-0.1,1.5-1.5,2.9-3,2.8c-1.6,0-3-1.5-2.9-3
		C287.3,215.4,288.7,214.1,290.3,214.2z"/>
	<path class="st0" d="M361.7,148.4c-1.6,0-3-1.4-3-3c0-1.5,1.4-2.8,2.9-2.8c1.6,0,3.1,1.3,3,2.9C364.6,147,363.2,148.4,361.7,148.4z
		"/>
	<path class="st0" d="M272.4,214.2c1.7-0.1,2.9,1.6,2.9,2.9c0,1.5-1.4,2.9-2.9,2.9c-1.6,0-3-1.4-3-3
		C269.4,215.4,270.8,214.1,272.4,214.2z"/>
	<path class="st0" d="M343.8,148.4c-1.5,0-2.9-1.4-2.9-2.9c0-1.5,1.4-2.9,3.1-2.8c1.5,0,2.8,1.4,2.8,2.8
		C346.8,147,345.3,148.4,343.8,148.4z"/>
	<path class="st0" d="M272.4,148.4c-1.6,0-3-1.4-3-2.9c0-1.4,1.3-2.8,2.8-2.8c1.6,0,3.1,1.3,3.1,2.8
		C275.3,147,273.9,148.4,272.4,148.4z"/>
	<path class="st0" d="M325.9,142.7c1.6,0,3,1.3,3,2.8c0,1.5-1.4,3-3,3c-1.5,0-2.9-1.3-2.9-2.9C323,144.1,324.4,142.7,325.9,142.7z"
		/>
	<path class="st0" d="M254.5,214.2c1.7-0.1,2.9,1.6,2.9,2.8c0,1.5-1.5,3-3,2.9c-1.5,0-2.9-1.4-2.9-2.9
		C251.6,215.5,252.9,214.1,254.5,214.2z"/>
	<path class="st0" d="M165.1,273.5c-1.5,0-2.9-1.4-2.9-2.9c0-1.5,1.4-2.9,3.1-2.8c1.5,0,2.8,1.4,2.8,2.8
		C168.1,272.1,166.6,273.5,165.1,273.5z"/>
	<path class="st0" d="M254.5,273.5c-1.6,0-3-1.5-2.9-3c0.1-1.5,1.5-2.8,3-2.7c1.5,0,2.8,1.3,2.9,2.8
		C257.5,272.1,256,273.5,254.5,273.5z"/>
	<path class="st0" d="M272.4,267.8c1.7-0.1,2.9,1.6,2.9,2.9c0,1.5-1.4,2.9-2.9,2.9c-1.6,0-3-1.4-3-3
		C269.4,269,270.8,267.7,272.4,267.8z"/>
	<path class="st0" d="M290.2,267.8c1.8-0.1,3,1.6,3,2.8c0,1.5-1.5,3-3,2.9c-1.5,0-2.9-1.4-2.9-2.9
		C287.3,269.1,288.7,267.8,290.2,267.8z"/>
	<path class="st0" d="M415.4,267.8c1.7-0.1,2.9,1.7,2.9,2.9c-0.1,1.5-1.4,2.9-2.9,2.9c-1.6,0-3-1.4-3-3
		C412.4,269,413.8,267.7,415.4,267.8z"/>
	<path class="st0" d="M433.2,273.5c-1.6,0-3-1.4-2.9-3c0-1.5,1.4-2.7,3-2.8c1.6-0.1,2.9,1.5,2.9,2.8
		C436.2,272,434.7,273.5,433.2,273.5z"/>
	<path class="st0" d="M236.6,219.9c-1.6,0-3-1.5-2.9-3c0.1-1.5,1.4-2.8,3-2.7c1.5,0,2.8,1.3,2.9,2.8
		C239.6,218.5,238.1,219.9,236.6,219.9z"/>
	<path class="st0" d="M469,273.5c-1.6,0-3-1.3-3-2.9c0-1.5,1.4-2.8,2.9-2.8c1.8-0.1,3,1.7,3,2.8C471.9,272.1,470.5,273.5,469,273.5z
		"/>
	<path class="st0" d="M275.3,279.5c0,1.5-1.4,2.9-2.9,3c-1.4,0.1-2.9-1.3-3-2.8c-0.1-1.5,1.4-3,2.9-3
		C273.8,276.6,275.3,278,275.3,279.5z"/>
	<path class="st0" d="M293.2,279.5c0,1.5-1.4,2.9-2.9,3c-1.4,0-2.9-1.4-3-2.9c-0.1-1.5,1.4-3,3-3C291.7,276.6,293.2,278,293.2,279.5
		z"/>
	<path class="st0" d="M403.5,279.6c0-1.6,1.3-2.9,2.8-2.9c1.5,0,2.8,1.3,2.9,2.8c0.1,1.4-1.4,3.1-2.9,3
		C404.8,282.5,403.5,281.1,403.5,279.6z"/>
	<path class="st0" d="M254.5,148.4c-1.6,0-3-1.4-3-3c0-1.5,1.3-2.8,2.8-2.8c1.6,0,3.1,1.3,3,2.8C257.4,147,256,148.4,254.5,148.4z"
		/>
	<path class="st0" d="M445,279.5c0,1.6-1.4,3.1-2.9,3c-1.5,0-2.8-1.4-2.8-3c0-1.5,1.3-2.9,2.8-2.9C443.6,276.6,445,277.9,445,279.5z
		"/>
	<path class="st0" d="M218.7,219.9c-1.5,0-2.9-1.3-2.9-2.9c0-1.5,1.4-2.9,3-2.9c1.5,0,2.8,1.3,2.9,2.8
		C221.7,218.5,220.3,219.9,218.7,219.9z"/>
	<path class="st0" d="M457.1,279.5c0-1.5,1.3-2.9,2.9-2.9c1.5,0,2.9,1.3,2.9,2.9c0,1.5-1.3,3-2.8,3
		C458.5,282.6,457.1,281.1,457.1,279.5z"/>
	<path class="st0" d="M272.3,202c-1.5,0-2.9-1.3-2.9-2.9c0-1.5,1.4-2.9,3-2.9c1.5,0,2.8,1.3,2.9,2.8
		C275.3,200.6,273.9,202,272.3,202z"/>
	<path class="st0" d="M147.3,291.4c-1.6,0-3-1.3-3-2.9c0-1.4,1.3-2.8,2.8-2.8c1.6,0,3.1,1.3,3.1,2.8
		C150.2,289.9,148.8,291.4,147.3,291.4z"/>
	<path class="st0" d="M254.4,291.4c-1.5,0-2.9-1.4-2.9-2.9c0-1.5,1.4-2.9,3.1-2.8c1.5,0,2.8,1.4,2.8,2.8
		C257.4,290,256,291.4,254.4,291.4z"/>
	<path class="st0" d="M451,291.4c-1.6,0-3-1.4-2.9-3c0-1.5,1.4-2.7,3-2.8c1.5,0,2.8,1.5,2.9,2.8C454,289.9,452.6,291.4,451,291.4z"
		/>
	<path class="st0" d="M486.8,291.4c-1.6,0-3-1.4-3-3c0-1.5,1.4-2.7,3-2.8c1.7-0.1,2.9,1.7,2.9,2.9
		C489.7,290,488.3,291.4,486.8,291.4z"/>
	<path class="st0" d="M433.2,94.8c-1.6,0-3-1.3-3-2.9c0-1.5,1.4-2.8,2.9-2.8c1.6,0,3,1.3,3,2.8C436.1,93.4,434.7,94.8,433.2,94.8z"
		/>
	<path class="st0" d="M93.7,148.4c-1.6,0-3-1.4-3-3c0-1.5,1.4-2.7,2.8-2.8c1.5-0.1,3,1.2,3,2.7C96.7,146.9,95.2,148.4,93.7,148.4z"
		/>
	<path class="st0" d="M111.5,148.4c-1.5,0-2.9-1.4-2.9-2.9c0-1.5,1.4-2.9,3.1-2.8c1.5,0,2.8,1.4,2.8,2.8
		C114.5,147,113,148.4,111.5,148.4z"/>
	<path class="st0" d="M129.3,148.4c-1.5,0-2.9-1.4-2.9-2.9c0-1.5,1.4-2.9,3.1-2.8c1.5,0.1,2.8,1.4,2.8,2.8
		C132.3,147,130.9,148.4,129.3,148.4z"/>
	<path class="st0" d="M75.8,166.3c-1.6,0-3-1.3-3-2.9c0-1.4,1.3-2.7,2.8-2.8c1.6-0.1,3.1,1.4,3.1,2.8
		C78.7,164.9,77.3,166.3,75.8,166.3z"/>
	<path class="st0" d="M93.6,166.3c-1.6,0-3-1.4-2.9-3c0-1.5,1.4-2.7,2.9-2.8c1.4-0.1,3,1.2,3,2.8C96.6,164.8,95.2,166.3,93.6,166.3z
		"/>
	<path class="st0" d="M111.6,160.5c1.6,0,2.9,1.4,2.9,2.9c0,1.6-1.5,2.9-3.1,2.9c-1.5,0-2.8-1.5-2.8-3
		C108.6,161.8,110,160.5,111.6,160.5z"/>
	<path class="st0" d="M75.8,184.2c-1.6,0-3-1.4-2.9-3c0-1.5,1.4-2.7,2.9-2.8c1.4-0.1,3,1.2,3,2.8C78.8,182.7,77.3,184.2,75.8,184.2z
		"/>
	<path class="st0" d="M93.7,184.2c-1.6,0-3-1.4-2.9-3c0-1.5,1.4-2.7,2.9-2.8c1.4-0.1,3,1.2,3,2.8C96.7,182.7,95.2,184.2,93.7,184.2z
		"/>
	<path class="st0" d="M93.6,196.3c1.4-0.2,2.9,1.2,3,2.8c0,1.5-1.4,3-3,3c-1.5,0-2.9-1.4-2.9-2.9C90.7,197.6,92.1,196.3,93.6,196.3z
		"/>
	<path class="st0" d="M111.5,202c-1.6,0-3-1.4-2.9-3c0-1.5,1.4-2.7,2.9-2.8c1.4-0.1,3,1.2,3,2.8C114.5,200.6,113.1,202,111.5,202z"
		/>
	<path class="st0" d="M129.4,214.2c1.6,0,2.9,1.4,2.9,2.9c0,1.5-1.5,2.9-3.1,2.9c-1.5,0-2.9-1.4-2.8-3
		C126.5,215.4,127.9,214.1,129.4,214.2z"/>
	<path class="st0" d="M129.4,237.8c-1.5,0-2.9-1.3-2.9-2.9c0-1.5,1.4-2.8,2.9-2.9c1.4-0.1,2.9,1.2,3,2.8
		C132.4,236.3,130.9,237.8,129.4,237.8z"/>
	<path class="st0" d="M132.3,243.8c0,1.5-1.5,2.9-2.9,2.9c-1.4,0-2.9-1.5-2.9-2.9c0-1.5,1.5-3,3-3
		C130.9,240.9,132.4,242.4,132.3,243.8z"/>
	<path class="st0" d="M150.2,243.8c0,1.5-1.5,2.9-2.9,2.9c-1.5,0-2.9-1.5-2.9-2.9c0-1.5,1.5-3,3-3
		C148.8,240.9,150.2,242.4,150.2,243.8z"/>
	<path class="st0" d="M186,243.8c0,1.5-1.4,2.9-2.9,3c-1.4,0.1-2.9-1.3-3-2.8c-0.1-1.5,1.4-3,2.9-3
		C184.5,240.9,185.9,242.3,186,243.8z"/>
	<path class="st0" d="M129.4,255.6c-1.6,0-3-1.4-3-3c0-1.4,1.3-2.7,2.8-2.8c1.5-0.1,3,1.2,3,2.7C132.4,254.1,131,255.6,129.4,255.6z
		"/>
	<path class="st0" d="M150.2,261.7c0,1.5-1.4,2.9-2.9,3c-1.4,0-2.9-1.4-3-2.9c-0.1-1.5,1.4-3,3-3
		C148.8,258.8,150.2,260.2,150.2,261.7z"/>
	<path class="st0" d="M165.2,264.6c-1.4,0-2.9-1.4-3-2.9c0-1.4,1.4-2.9,2.9-3c1.5-0.1,3,1.4,3,2.9
		C168.1,263.2,166.6,264.6,165.2,264.6z"/>
	<path class="st0" d="M257.4,261.7c0,1.5-1.4,2.9-2.9,3c-1.4,0-2.9-1.4-3-2.9c-0.1-1.5,1.4-3,3-3C256,258.8,257.4,260.2,257.4,261.7
		z"/>
	<path class="st0" d="M275.3,261.7c0,1.5-1.5,2.9-2.9,2.9c-1.4,0-2.9-1.5-2.9-2.9c0-1.5,1.5-3,3-2.9
		C273.9,258.8,275.3,260.3,275.3,261.7z"/>
	<path class="st0" d="M75.8,76.9c-1.5,0-2.9-1.3-2.9-2.9c0-1.5,1.4-2.8,2.9-2.9c1.5-0.1,3,1.3,3,2.8C78.8,75.5,77.3,77,75.8,76.9z"
		/>
	<path class="st0" d="M93.6,76.9c-1.5,0-2.9-1.4-2.9-2.9c0-1.5,1.4-2.8,2.9-2.8c1.6,0,3,1.3,3,2.8C96.6,75.5,95.2,77,93.6,76.9z"/>
	<path class="st0" d="M111.5,76.9c-1.5,0-2.9-1.4-2.9-2.9c0-1.5,1.4-2.9,2.9-2.9c1.6,0,3,1.3,3,2.8C114.5,75.5,113,77,111.5,76.9z"
		/>
	<path class="st0" d="M22.1,89.1c1.5-0.1,3,1.3,3,2.7c0.1,1.5-1.4,3-2.9,3c-1.5,0-2.9-1.3-3-2.8C19.2,90.5,20.6,89.1,22.1,89.1z"/>
	<path class="st0" d="M40,89.1c1.4-0.1,2.9,1.3,3,2.8c0,1.5-1.4,3-3,2.9c-1.5,0-2.9-1.4-2.9-2.9C37.1,90.4,38.5,89.1,40,89.1z"/>
	<path class="st0" d="M58,94.8c-1.6,0-3-1.3-3-2.9c0-1.4,1.3-2.7,2.8-2.8c1.6-0.1,3.1,1.4,3.1,2.8C60.9,93.4,59.5,94.8,58,94.8z"/>
	<path class="st0" d="M75.8,94.8c-1.6,0-3-1.4-3-3c0-1.4,1.4-2.7,2.8-2.8c1.6-0.1,3.1,1.4,3.1,2.9C78.7,93.4,77.3,94.8,75.8,94.8z"
		/>
	<path class="st0" d="M22.1,106.9c1.4-0.1,3,1.3,3,2.8c0,1.5-1.4,3-3,3c-1.5,0-2.9-1.3-2.9-2.9C19.2,108.3,20.6,106.9,22.1,106.9z"
		/>
	<path class="st0" d="M147.3,282.5c-1.4,0-2.9-1.4-3-2.9c0-1.4,1.4-2.9,2.9-3c1.5-0.1,3,1.4,3,2.9
		C150.2,281,148.8,282.5,147.3,282.5z"/>
	<path class="st0" d="M254.4,282.5c-1.5,0-2.9-1.5-2.9-3c0-1.5,1.6-3,3.1-2.9c1.5,0.1,2.9,1.6,2.8,3
		C257.4,281.1,255.9,282.5,254.4,282.5z"/>
	<path class="st0" d="M40,106.9c1.5-0.1,3,1.3,3,2.8c0,1.5-1.4,3-3,3c-1.5,0-2.9-1.3-2.9-2.9C37.1,108.3,38.4,106.9,40,106.9z"/>
	<path class="st0" d="M57.9,106.9c1.5-0.1,3,1.3,3,2.8c0,1.5-1.4,3-3,3c-1.5,0-2.9-1.3-2.9-2.9C54.9,108.3,56.3,106.9,57.9,106.9z"
		/>
	<path class="st0" d="M75.7,106.9c1.5-0.1,3,1.3,3,2.7c0.1,1.5-1.4,3-2.9,3c-1.5,0-2.9-1.3-2.9-2.8C72.8,108.4,74.2,107,75.7,106.9z
		"/>
	<path class="st0" d="M93.7,112.7c-1.6,0-3-1.4-3-3c0-1.4,1.4-2.7,2.8-2.8c1.5-0.1,3,1.3,3,2.7C96.7,111.2,95.2,112.7,93.7,112.7z"
		/>
	<path class="st0" d="M129.4,106.9c1.6,0,3,1.4,2.9,2.8c0,1.5-1.5,2.9-3,2.9c-1.5,0-2.9-1.4-2.9-2.9
		C126.5,108.2,127.9,106.9,129.4,106.9z"/>
	<path class="st0" d="M40,124.8c1.4-0.2,3,1.2,3,2.8c0,1.5-1.4,3-3,3c-1.5,0-2.9-1.3-2.9-2.9C37.1,126.2,38.5,124.8,40,124.8z"/>
	<path class="st0" d="M58,130.6c-1.6,0-3-1.4-3-2.9c0-1.4,1.3-2.7,2.8-2.8c1.6-0.1,3.1,1.4,3.1,2.9C60.9,129.1,59.5,130.5,58,130.6z
		"/>
	<path class="st0" d="M75.8,124.8c1.4-0.2,2.9,1.2,3,2.8c0,1.5-1.4,3-3,3c-1.5,0-2.9-1.3-2.9-2.9C72.8,126.2,74.2,124.8,75.8,124.8z
		"/>
	<path class="st0" d="M129.4,285.6c1.4-0.2,3,1.2,3,2.8c0,1.5-1.4,3-3,3c-1.5,0-2.9-1.3-2.9-2.9C126.4,287,127.8,285.6,129.4,285.6z
		"/>
	<path class="st0" d="M93.6,124.8c1.4-0.2,3,1.2,3,2.8c0,1.5-1.4,3-3,3c-1.5,0-2.9-1.3-2.9-2.9C90.7,126.2,92,124.8,93.6,124.8z"/>
	<path class="st0" d="M129.4,124.8c1.3-0.1,2.9,1.2,3,2.8c0,1.5-1.4,3-3,2.9c-1.5,0-2.9-1.4-2.9-2.9
		C126.4,126.2,127.8,124.8,129.4,124.8z"/>
	<path class="st0" d="M57.9,142.7c1.4-0.2,3,1.2,3,2.8c0,1.5-1.4,3-3,3c-1.5,0-2.9-1.3-2.9-2.9C54.9,144.1,56.3,142.7,57.9,142.7z"
		/>
	<path class="st0" d="M75.7,148.4c-1.5,0-2.9-1.4-2.9-2.9c0-1.5,1.4-2.8,2.9-2.9c1.3-0.1,2.9,1.2,3,2.8
		C78.8,147,77.3,148.4,75.7,148.4z"/>
	<path class="st0" d="M132.3,297.4c0,1.5-1.5,2.9-2.9,2.9c-1.4,0-2.9-1.4-2.9-2.9c0-1.5,1.5-3,3-3
		C130.9,294.5,132.4,296,132.3,297.4z"/>
	<path class="st0" d="M254.5,240.9c1.5,0,2.9,1.4,2.9,2.9c0,1.5-1.5,3-3,3c-1.5-0.1-2.9-1.5-2.9-3
		C251.6,242.3,253.1,240.9,254.5,240.9z"/>
	<path class="st0" d="M129.4,309.2c-1.6,0-3-1.4-2.9-3c0-1.4,1.4-2.7,2.9-2.8c1.4-0.1,3,1.2,3,2.8
		C132.4,307.8,131,309.2,129.4,309.2z"/>
	<path class="st0" d="M129.4,312.4c1.5,0,2.9,1.5,2.9,2.9c0,1.5-1.5,3-3,3c-1.5-0.1-2.9-1.5-2.9-3
		C126.5,313.8,128,312.3,129.4,312.4z"/>
	<path class="st0" d="M302,172.3c0,1.6-1.3,3-2.9,3c-1.4,0-2.8-1.4-2.8-3c0-1.5,1.3-2.9,2.9-2.9C300.7,169.4,302,170.7,302,172.3z"
		/>
	<path class="st0" d="M349.9,172.3c0-1.5,1.4-2.9,2.9-2.9c1.5,0,2.9,1.3,2.9,2.9c0,1.6-1.3,3-2.9,3
		C351.3,175.3,349.9,173.8,349.9,172.3z"/>
	<path class="st0" d="M284.2,208c0,1.6-1.3,3-2.9,3c-1.4,0-2.8-1.5-2.8-3c0-1.5,1.4-2.9,2.9-2.9C282.8,205.2,284.2,206.5,284.2,208z
		"/>
	<path class="st0" d="M355.6,190.2c0,1.6-1.3,3-2.9,3c-1.4,0-2.8-1.5-2.8-3c0-1.5,1.3-2.9,2.9-2.9
		C354.3,187.3,355.6,188.6,355.6,190.2z"/>
	<path class="st0" d="M319.9,190.1c0,1.6-1.3,3-2.9,3c-1.4,0-2.8-1.4-2.8-3c0-1.5,1.3-2.9,2.9-2.9
		C318.5,187.3,319.9,188.6,319.9,190.1z"/>
	<path class="st0" d="M337.8,172.4c0,1.6-1.4,3-3,2.9c-1.4,0-2.8-1.5-2.7-3c0-1.5,1.4-2.9,2.9-2.8
		C336.5,169.5,337.8,170.8,337.8,172.4z"/>
	<path class="st0" d="M87.6,190.2c0,1.6-1.4,3-3,3c-1.4,0-2.8-1.5-2.8-3c0-1.5,1.4-2.9,2.9-2.9C86.3,187.3,87.6,188.6,87.6,190.2z"
		/>
	<path class="st0" d="M355.6,154.5c0,1.6-1.5,3-3,2.9c-1.4,0-2.8-1.5-2.7-3.1c0-1.5,1.4-2.9,3-2.8
		C354.4,151.6,355.7,152.9,355.6,154.5z"/>
	<path class="st0" d="M284.2,83c0,1.6-1.4,3-3,2.9c-1.4,0-2.8-1.5-2.8-3c0-1.5,1.4-2.9,2.9-2.8C282.9,80.1,284.2,81.4,284.2,83z"/>
	<path class="st0" d="M355.6,83c0,1.6-1.5,3-3,2.9c-1.4,0-2.8-1.5-2.7-3c0-1.5,1.4-2.9,2.9-2.8C354.4,80.1,355.7,81.5,355.6,83z"/>
	<path class="st0" d="M355.6,100.9c0,1.6-1.5,3-3,2.9c-1.4-0.1-2.8-1.5-2.7-3.1c0-1.5,1.4-2.9,3-2.8
		C354.4,98,355.7,99.3,355.6,100.9z"/>
	<path class="st0" d="M224.8,190.2c0-1.5,1.3-2.9,2.8-2.9c1.5,0,2.9,1.3,2.9,2.8c0,1.6-1.3,3-2.9,3
		C226.2,193.2,224.8,191.7,224.8,190.2z"/>
	<path class="st0" d="M337.8,100.9c0,1.6-1.5,3-3,2.9c-1.4-0.1-2.8-1.5-2.7-3.1c0-1.5,1.4-2.9,3-2.8
		C336.5,98,337.8,99.3,337.8,100.9z"/>
	<path class="st0" d="M248.4,190.1c0,1.6-1.3,3-2.9,3c-1.4,0-2.8-1.4-2.8-2.9c0-1.5,1.3-2.9,2.8-2.9
		C247.1,187.3,248.4,188.6,248.4,190.1z"/>
	<path class="st0" d="M159.1,83c0,1.6-1.5,3-3,2.9c-1.4-0.1-2.8-1.5-2.7-3.1c0-1.5,1.4-2.9,3-2.8C157.8,80.1,159.1,81.5,159.1,83z"
		/>
	<path class="st0" d="M135.5,225.9c0-1.5,1.3-2.9,2.8-2.9c1.5,0,2.9,1.3,2.9,2.8c0,1.6-1.3,3-2.9,3
		C136.9,228.9,135.5,227.5,135.5,225.9z"/>
	<path class="st0" d="M337.8,118.8c0,1.6-1.5,3-3,2.9c-1.4-0.1-2.8-1.5-2.7-3.1c0-1.5,1.4-2.9,3-2.8
		C336.5,115.8,337.8,117.2,337.8,118.8z"/>
	<path class="st0" d="M319.9,118.7c0,1.6-1.4,3-3,3c-1.4,0-2.8-1.5-2.8-3c0-1.5,1.4-2.9,2.9-2.9
		C318.6,115.8,319.9,117.2,319.9,118.7z"/>
	<path class="st0" d="M171.2,83c0-1.5,1.3-2.9,2.9-2.9c1.5,0,2.9,1.3,2.9,2.9c0,1.6-1.3,3-2.9,3C172.6,85.9,171.2,84.5,171.2,83z"/>
	<path class="st0" d="M194.8,83c0,1.6-1.4,3-3,2.9c-1.4,0-2.8-1.5-2.8-3c0-1.5,1.4-2.9,2.9-2.8C193.5,80.1,194.8,81.4,194.8,83z"/>
	<path class="st0" d="M319.9,100.8c0,1.6-1.3,3-2.9,3c-1.4,0-2.8-1.4-2.8-3c0-1.5,1.3-2.9,2.9-2.9
		C318.5,97.9,319.9,99.3,319.9,100.8z"/>
	<path class="st0" d="M266.3,190.2c0,1.6-1.4,3-3,3c-1.4,0-2.8-1.5-2.8-3c0-1.5,1.4-2.9,2.9-2.8C265,187.3,266.3,188.6,266.3,190.2z
		"/>
	<path class="st0" d="M302,100.9c0,1.6-1.5,3-3,2.9c-1.4,0-2.8-1.5-2.7-3c0-1.5,1.4-2.9,2.9-2.8C300.8,98,302.1,99.3,302,100.9z"/>
	<path class="st0" d="M284.2,190.1c0,1.6-1.3,3-2.9,3c-1.4,0-2.8-1.4-2.8-3c0-1.5,1.3-2.9,2.9-2.9
		C282.8,187.3,284.2,188.6,284.2,190.1z"/>
	<path class="st0" d="M284.2,100.8c0,1.6-1.3,3-2.9,3c-1.4,0-2.8-1.4-2.9-2.9c0-1.5,1.3-2.9,2.8-2.9
		C282.8,97.9,284.1,99.2,284.2,100.8z"/>
	<path class="st0" d="M302,118.6c0,1.6-1.3,3-2.9,3c-1.4,0-2.8-1.4-2.9-2.9c0-1.5,1.3-2.9,2.8-2.9C300.7,115.8,302,117.1,302,118.6z
		"/>
	<path class="st0" d="M302,190.2c0,1.6-1.4,3-2.9,3c-1.4,0-2.8-1.5-2.8-3c0-1.5,1.3-2.9,2.9-2.9C300.7,187.3,302,188.6,302,190.2z"
		/>
	<path class="st0" d="M284.2,118.7c0,1.6-1.3,3-2.9,3c-1.4,0-2.8-1.4-2.8-3c0-1.5,1.3-2.9,2.9-2.9
		C282.8,115.8,284.2,117.1,284.2,118.7z"/>
	<path class="st0" d="M266.3,118.7c0,1.6-1.4,3-2.9,3c-1.4,0-2.8-1.5-2.8-3c0-1.5,1.3-2.9,2.9-2.9
		C265,115.8,266.3,117.1,266.3,118.7z"/>
	<path class="st0" d="M266.3,100.8c0,1.6-1.4,3-3,3c-1.4,0-2.8-1.5-2.8-3c0-1.5,1.4-2.9,2.9-2.9C265,97.9,266.3,99.3,266.3,100.8z"
		/>
	<path class="st0" d="M248.4,118.7c0,1.6-1.4,3-3,2.9c-1.4,0-2.8-1.5-2.8-3c0-1.5,1.4-2.9,2.9-2.8
		C247.1,115.8,248.4,117.2,248.4,118.7z"/>
	<path class="st0" d="M171.2,100.8c0-1.5,1.3-2.9,2.9-2.9c1.5,0,2.9,1.3,2.9,2.9c0,1.6-1.3,3-2.9,3
		C172.6,103.8,171.2,102.4,171.2,100.8z"/>
	<path class="st0" d="M141.2,118.7c0,1.6-1.5,3-3,2.9c-1.4,0-2.8-1.5-2.7-3c0-1.5,1.4-2.9,2.9-2.8
		C139.9,115.8,141.2,117.2,141.2,118.7z"/>
	<path class="st0" d="M123.3,100.9c0,1.6-1.5,3-3,2.9c-1.4,0-2.8-1.5-2.7-3.1c0-1.5,1.4-2.9,2.9-2.8
		C122.1,98,123.4,99.3,123.3,100.9z"/>
	<path class="st0" d="M123.3,118.8c0,1.5-1.5,2.9-3,2.8c-1.7,0-2.9-1.8-2.8-3.1c0.1-1.5,1.4-2.8,2.9-2.7
		C122.1,115.8,123.4,117.2,123.3,118.8z"/>
	<path class="st0" d="M105.5,118.7c0,1.6-1.3,3-2.9,3c-1.4,0-2.8-1.4-2.8-3c0-1.5,1.3-2.9,2.8-2.9
		C104.1,115.8,105.5,117.1,105.5,118.7z"/>
	<path class="st0" d="M105.5,100.9c0,1.6-1.5,3-3,2.9c-1.4,0-2.8-1.5-2.7-3c0-1.5,1.4-2.9,2.9-2.8C104.2,98,105.5,99.3,105.5,100.9z
		"/>
	<path class="st0" d="M87.6,118.7c0,1.6-1.4,3-2.9,3c-1.4,0-2.8-1.4-2.8-3c0-1.5,1.4-2.9,2.9-2.9C86.3,115.8,87.6,117.1,87.6,118.7z
		"/>
	<path class="st0" d="M81.9,100.8c0-1.5,1.4-2.9,2.9-2.8c1.5,0,2.8,1.4,2.8,2.9c0,1.6-1.4,3-3,2.9C83.2,103.8,81.8,102.3,81.9,100.8
		z"/>
	<path class="st0" d="M69.7,100.8c0,1.6-1.3,3-2.9,3c-1.4,0-2.8-1.4-2.9-2.9c0-1.5,1.3-2.9,2.8-2.9C68.3,97.9,69.7,99.2,69.7,100.8z
		"/>
	<path class="st0" d="M69.7,118.7c0,1.6-1.4,3-2.9,3c-1.4,0-2.8-1.5-2.8-3c0-1.5,1.4-2.9,2.9-2.9C68.4,115.8,69.7,117.1,69.7,118.7z
		"/>
	<path class="st0" d="M34,100.9c0,1.6-1.4,3-3,2.9c-1.4,0-2.8-1.5-2.8-3c0-1.5,1.4-2.9,2.9-2.8C32.7,98,34,99.3,34,100.9z"/>
	<path class="st0" d="M46.1,118.8c0-1.5,1.3-2.9,2.8-3c1.5,0,2.9,1.3,2.9,2.8c0,1.6-1.3,3-2.9,3C47.6,121.7,46.1,120.3,46.1,118.8z"
		/>
	<path class="st0" d="M69.7,172.3c0,1.6-1.4,3-2.9,3c-1.4,0-2.8-1.5-2.8-3c0-1.5,1.4-2.9,2.9-2.9C68.4,169.4,69.7,170.8,69.7,172.3z
		"/>
	<path class="st0" d="M34,118.6c0,1.6-1.3,3-2.9,3c-1.4,0-2.8-1.4-2.9-2.9c0-1.5,1.3-2.9,2.8-2.9C32.6,115.8,34,117.1,34,118.6z"/>
	<path class="st0" d="M87.6,172.3c0,1.6-1.3,3-2.9,3c-1.4,0-2.8-1.4-2.8-2.9c0-1.5,1.3-2.9,2.8-2.9
		C86.2,169.4,87.6,170.7,87.6,172.3z"/>
	<path class="st0" d="M355.6,136.5c0,1.6-1.3,3-2.9,3c-1.4,0-2.8-1.4-2.8-3c0-1.5,1.3-2.9,2.9-2.9
		C354.3,133.7,355.6,135,355.6,136.5z"/>
	<path class="st0" d="M99.7,172.3c0-1.5,1.3-2.9,2.8-2.9c1.5,0,2.9,1.3,2.9,2.8c0,1.6-1.3,3-2.9,3
		C101.1,175.3,99.7,173.9,99.7,172.3z"/>
	<path class="st0" d="M212.7,208c0,1.6-1.3,3-2.9,3c-1.4,0-2.8-1.4-2.8-2.9c0-1.5,1.3-2.9,2.8-2.9
		C211.3,205.1,212.7,206.5,212.7,208z"/>
	<path class="st0" d="M117.6,172.3c0-1.5,1.3-2.9,2.8-2.9c1.5,0,2.9,1.3,2.9,2.9c0,1.6-1.3,3-2.9,3
		C119,175.3,117.6,173.8,117.6,172.3z"/>
	<path class="st0" d="M266.3,208.1c0,1.6-1.4,3-3,3c-1.4,0-2.8-1.5-2.8-3c0-1.5,1.4-2.9,2.9-2.9C265,205.2,266.3,206.5,266.3,208.1z
		"/>
	<path class="st0" d="M230.6,208.1c0,1.6-1.5,3-3,2.9c-1.4,0-2.8-1.5-2.8-3c0-1.5,1.4-2.9,2.9-2.8
		C229.3,205.2,230.6,206.5,230.6,208.1z"/>
	<path class="st0" d="M46.1,100.8c0-1.5,1.4-2.9,2.9-2.9c1.5,0,2.8,1.4,2.8,2.9c0,1.6-1.4,3-3,3C47.5,103.8,46.1,102.3,46.1,100.8z"
		/>
	<path class="st0" d="M314.2,172.3c0-1.5,1.3-2.9,2.9-2.9c1.5,0,2.9,1.3,2.9,2.9c0,1.6-1.3,3-2.9,3
		C315.6,175.3,314.2,173.8,314.2,172.3z"/>
	<path class="st0" d="M337.8,136.5c0,1.6-1.3,3-2.9,3c-1.4,0-2.8-1.4-2.9-2.9c0-1.5,1.3-2.9,2.8-2.9
		C336.4,133.6,337.8,135,337.8,136.5z"/>
	<path class="st0" d="M302,154.5c0,1.6-1.4,3-3,2.9c-1.4,0-2.8-1.5-2.8-3c0-1.5,1.4-2.9,2.9-2.8C300.8,151.6,302.1,152.9,302,154.5z
		"/>
	<path class="st0" d="M248.4,208.1c0,1.6-1.4,3-3,2.9c-1.4,0-2.8-1.5-2.8-3c0-1.5,1.4-2.9,2.9-2.8
		C247.1,205.2,248.4,206.5,248.4,208.1z"/>
	<path class="st0" d="M159.1,225.9c0,1.6-1.3,3-2.9,3c-1.4,0-2.8-1.4-2.9-2.9c0-1.5,1.3-2.9,2.8-2.9
		C157.7,223,159.1,224.3,159.1,225.9z"/>
	<path class="st0" d="M105.5,83c0,1.6-1.5,3-3,2.9c-1.4,0-2.8-1.5-2.7-3c0-1.5,1.4-2.9,2.9-2.8C104.2,80.1,105.5,81.5,105.5,83z"/>
	<path class="st0" d="M87.6,82.9c0,1.6-1.4,3-2.9,3c-1.4,0-2.8-1.4-2.8-3c0-1.5,1.4-2.9,2.9-2.9C86.3,80.1,87.6,81.4,87.6,82.9z"/>
	<path class="st0" d="M230.6,225.8c0,1.6-1.3,3-2.9,3c-1.4,0-2.8-1.4-2.9-2.9c0-1.5,1.3-2.9,2.8-2.9
		C229.2,223,230.5,224.3,230.6,225.8z"/>
	<path class="st0" d="M34,83c0,1.6-1.4,3-3,2.9c-1.4,0-2.8-1.5-2.8-3c0-1.5,1.4-2.9,2.9-2.8C32.7,80.1,34,81.4,34,83z"/>
	<path class="st0" d="M248.4,225.9c0,1.6-1.4,3-3,2.9c-1.4,0-2.8-1.5-2.8-3c0-1.5,1.4-2.9,2.9-2.8
		C247.1,223,248.4,224.4,248.4,225.9z"/>
	<path class="st0" d="M266.3,225.9c0,1.6-1.4,3-3,3c-1.4,0-2.8-1.5-2.8-3c0-1.5,1.4-2.9,2.9-2.9C265,223,266.3,224.4,266.3,225.9z"
		/>
	<path class="st0" d="M278.4,226c0-1.5,1.3-2.9,2.8-2.9c1.5,0,2.9,1.3,2.9,2.8c0,1.6-1.3,3-2.9,3C279.9,228.9,278.4,227.5,278.4,226
		z"/>
	<path class="st0" d="M302,225.9c0,1.6-1.4,3-3,3c-1.4,0-2.8-1.5-2.8-3c0-1.5,1.4-2.9,2.9-2.9C300.7,223,302,224.4,302,225.9z"/>
	<path class="st0" d="M117.6,243.8c0-1.5,1.3-2.9,2.9-2.9c1.5,0,2.9,1.3,2.9,2.9c0,1.6-1.3,3-2.9,3
		C119,246.8,117.6,245.3,117.6,243.8z"/>
	<path class="st0" d="M319.9,136.6c0,1.6-1.4,3-3,3c-1.4,0-2.8-1.5-2.8-3c0-1.5,1.4-2.9,2.9-2.9C318.6,133.7,319.9,135,319.9,136.6z
		"/>
	<path class="st0" d="M141.2,243.8c0,1.6-1.5,3-3,2.9c-1.4,0-2.8-1.5-2.7-3c0-1.5,1.4-2.9,2.9-2.8
		C139.9,240.9,141.2,242.3,141.2,243.8z"/>
	<path class="st0" d="M159.1,243.8c0,1.6-1.4,3-3,3c-1.4,0-2.8-1.5-2.8-3c0-1.5,1.4-2.9,2.9-2.9
		C157.8,240.9,159.1,242.2,159.1,243.8z"/>
	<path class="st0" d="M177,243.8c0,1.6-1.5,3-3,2.9c-1.4,0-2.8-1.5-2.7-3c0-1.5,1.4-2.9,2.9-2.8C175.7,240.9,177,242.3,177,243.8z"
		/>
	<path class="st0" d="M296.3,136.5c0-1.5,1.4-2.9,2.9-2.8c1.5,0,2.8,1.4,2.8,2.9c0,1.6-1.4,3-3,2.9
		C297.6,139.5,296.3,138,296.3,136.5z"/>
	<path class="st0" d="M248.4,243.7c0,1.6-1.3,3-2.9,3c-1.4,0.1-2.8-1.4-2.9-2.9c0-1.5,1.3-2.9,2.8-2.9
		C247,240.9,248.4,242.2,248.4,243.7z"/>
	<path class="st0" d="M355.6,118.7c0,1.6-1.4,3-2.9,3c-1.4,0-2.8-1.5-2.8-3c0-1.5,1.3-2.9,2.9-2.9
		C354.3,115.8,355.6,117.1,355.6,118.7z"/>
	<path class="st0" d="M260.6,243.7c0-1.5,1.4-2.9,2.9-2.9c1.5,0,2.9,1.4,2.8,2.9c0,1.6-1.4,3-3,3
		C261.9,246.7,260.5,245.3,260.6,243.7z"/>
	<path class="st0" d="M284.2,243.7c0,1.6-1.3,3-2.9,3c-1.4,0-2.8-1.4-2.9-2.9c0-1.5,1.3-2.9,2.8-2.9
		C282.8,240.9,284.2,242.2,284.2,243.7z"/>
	<path class="st0" d="M141.2,136.5c0,1.6-1.3,3-2.9,3c-1.4,0-2.8-1.4-2.8-3c0-1.5,1.3-2.9,2.9-2.9
		C139.8,133.7,141.2,135,141.2,136.5z"/>
	<path class="st0" d="M135.5,261.7c0-1.5,1.3-2.9,2.8-3c1.5,0,2.9,1.3,2.9,2.8c0,1.6-1.3,3-2.9,3
		C136.9,264.7,135.5,263.2,135.5,261.7z"/>
	<path class="st0" d="M284.2,136.6c0,1.6-1.5,3-3,2.9c-1.4-0.1-2.8-1.5-2.7-3.1c0-1.5,1.4-2.9,3-2.8
		C282.9,133.7,284.2,135.1,284.2,136.6z"/>
	<path class="st0" d="M153.3,261.6c0-1.5,1.4-2.9,2.9-2.9c1.5,0,2.9,1.4,2.8,2.9c0,1.6-1.4,3-3,3
		C154.7,264.6,153.3,263.1,153.3,261.6z"/>
	<path class="st0" d="M177,261.7c0,1.6-1.4,3-3,3c-1.4,0-2.8-1.5-2.8-3c0-1.5,1.4-2.9,2.9-2.9C175.6,258.8,177,260.1,177,261.7z"/>
	<path class="st0" d="M266.3,136.6c0,1.6-1.4,3-2.9,3c-1.4,0-2.8-1.5-2.8-3c0-1.5,1.4-2.9,2.9-2.9C265,133.7,266.3,135,266.3,136.6z
		"/>
	<path class="st0" d="M266.3,261.6c0,1.6-1.3,3-2.9,3c-1.4,0-2.8-1.4-2.9-2.9c0-1.5,1.3-2.9,2.8-2.9
		C264.9,258.7,266.3,260.1,266.3,261.6z"/>
	<path class="st0" d="M284.2,261.6c0,1.6-1.3,3-2.9,3c-1.4,0-2.8-1.4-2.9-2.9c0-1.5,1.3-2.9,2.8-2.9
		C282.8,258.7,284.2,260.1,284.2,261.6z"/>
	<path class="st0" d="M248.4,136.5c0,1.6-1.4,3-2.9,3c-1.4,0-2.8-1.5-2.8-3c0-1.5,1.3-2.9,2.9-2.9
		C247.1,133.7,248.4,135,248.4,136.5z"/>
	<path class="st0" d="M230.6,136.5c0,1.6-1.3,3-2.9,3c-1.4,0-2.8-1.4-2.8-3c0-1.5,1.3-2.9,2.9-2.9
		C229.2,133.7,230.5,135,230.6,136.5z"/>
	<path class="st0" d="M123.3,136.6c0,1.6-1.5,3-3,2.9c-1.4,0-2.8-1.5-2.7-3c0-1.5,1.4-2.9,2.9-2.8
		C122.1,133.7,123.4,135.1,123.3,136.6z"/>
	<path class="st0" d="M141.2,279.5c0,1.6-1.3,3-2.9,3c-1.4,0-2.8-1.4-2.9-2.9c0-1.5,1.3-2.9,2.8-2.9
		C139.8,276.6,141.2,277.9,141.2,279.5z"/>
	<path class="st0" d="M105.5,136.5c0,1.6-1.3,3-2.9,3c-1.4,0-2.8-1.4-2.8-2.9c0-1.5,1.3-2.9,2.8-2.9
		C104.1,133.7,105.5,135,105.5,136.5z"/>
	<path class="st0" d="M159.1,279.5c0,1.6-1.4,3-2.9,3c-1.4,0-2.8-1.4-2.8-3c0-1.5,1.3-2.9,2.9-2.9
		C157.7,276.6,159.1,278,159.1,279.5z"/>
	<path class="st0" d="M69.7,154.4c0,1.6-1.3,3-2.9,3c-1.4,0-2.8-1.4-2.8-2.9c0-1.5,1.3-2.9,2.8-2.9
		C68.4,151.5,69.7,152.9,69.7,154.4z"/>
	<path class="st0" d="M260.6,279.5c0-1.5,1.4-2.9,2.9-2.9c1.5,0,2.9,1.3,2.9,2.9c0,1.6-1.4,3-2.9,3
		C261.9,282.5,260.5,281,260.6,279.5z"/>
	<path class="st0" d="M87.6,136.6c0,1.6-1.5,3-3,2.9c-1.4,0-2.8-1.5-2.7-3.1c0-1.5,1.4-2.9,2.9-2.8
		C86.4,133.7,87.6,135.1,87.6,136.6z"/>
	<path class="st0" d="M81.9,154.5c0-1.5,1.3-2.9,2.8-3c1.5,0,2.9,1.3,2.9,2.8c0,1.6-1.3,3-2.9,3C83.3,157.5,81.9,156,81.9,154.5z"/>
	<path class="st0" d="M64,136.6c0-1.5,1.3-2.9,2.8-2.9c1.5,0,2.9,1.3,2.9,2.9c0,1.6-1.3,3-2.9,3C65.4,139.6,64,138.1,64,136.6z"/>
	<path class="st0" d="M99.7,154.4c0-1.5,1.4-2.9,2.9-2.9c1.5,0,2.9,1.4,2.9,2.9c0,1.6-1.4,3-3,3C101.1,157.4,99.7,155.9,99.7,154.4z
		"/>
	<path class="st0" d="M51.9,136.6c0,1.6-1.4,3-3,2.9c-1.4,0-2.8-1.5-2.8-3c0-1.5,1.4-2.9,2.9-2.8C50.6,133.7,51.9,135.1,51.9,136.6z
		"/>
	<path class="st0" d="M123.3,154.4c0,1.6-1.4,3-2.9,3c-1.4,0-2.8-1.5-2.8-3c0-1.5,1.4-2.9,2.9-2.9
		C122,151.5,123.3,152.9,123.3,154.4z"/>
	<path class="st0" d="M337.8,154.4c0,1.6-1.3,3-2.9,3c-1.4,0-2.8-1.4-2.8-2.9c0-1.5,1.3-2.9,2.8-2.9
		C336.4,151.5,337.8,152.9,337.8,154.4z"/>
	<path class="st0" d="M135.5,154.4c0-1.5,1.4-2.9,2.9-2.9c1.5,0,2.8,1.4,2.8,2.9c0,1.6-1.4,3-3,3
		C136.8,157.4,135.4,155.9,135.5,154.4z"/>
	<path class="st0" d="M230.6,154.4c0,1.6-1.4,3-3,3c-1.4,0-2.8-1.5-2.8-3c0-1.5,1.4-2.9,2.9-2.9
		C229.2,151.6,230.6,152.9,230.6,154.4z"/>
	<path class="st0" d="M248.4,154.5c0,1.6-1.4,3-3,2.9c-1.4,0-2.8-1.5-2.8-3c0-1.5,1.4-2.9,2.9-2.8
		C247.1,151.6,248.4,152.9,248.4,154.5z"/>
	<path class="st0" d="M266.3,154.5c0,1.6-1.5,3-3,2.9c-1.4-0.1-2.8-1.5-2.7-3.1c0-1.5,1.4-2.9,3-2.8
		C265,151.6,266.3,152.9,266.3,154.5z"/>
	<path class="st0" d="M135.5,297.4c0-1.5,1.3-2.9,2.8-2.9c1.5,0,2.9,1.3,2.9,2.8c0,1.6-1.3,3-2.9,3
		C136.9,300.4,135.5,298.9,135.5,297.4z"/>
	<path class="st0" d="M284.2,154.4c0,1.6-1.3,3-2.9,3c-1.4,0-2.8-1.4-2.8-3c0-1.5,1.3-2.9,2.9-2.9
		C282.8,151.5,284.2,152.9,284.2,154.4z"/>
	<path class="st0" d="M135.5,315.2c0-1.5,1.4-2.9,2.9-2.8c1.5,0,2.8,1.4,2.8,2.9c0,1.6-1.4,3-3,2.9
		C136.8,318.2,135.4,316.7,135.5,315.2z"/>
	<path class="st0" d="M245.6,178.4c1.6,0,2.9,1.3,2.9,2.9c0,1.7-1.3,2.9-3,2.9c-1.6,0-2.8-1.3-2.8-2.9
		C242.7,179.7,244,178.4,245.6,178.4z"/>
	<path class="st0" d="M263.2,184.2c-1.6-0.1-2.7-1.4-2.7-3c0.1-1.6,1.4-2.8,3-2.7c1.6,0.1,2.8,1.4,2.7,3.1
		C266.2,183.1,264.9,184.2,263.2,184.2z"/>
	<path class="st0" d="M284.2,181.3c0,1.6-1.2,2.9-2.8,2.9c-1.6,0-2.9-1.3-2.9-2.9c0-1.6,1.3-2.8,2.9-2.8
		C282.9,178.4,284.2,179.7,284.2,181.3z"/>
	<path class="st0" d="M141.2,109.8c0,1.6-1.2,2.9-2.8,2.9c-1.6,0-3-1.2-3-2.9c0-1.6,1.3-2.9,2.9-2.9
		C139.9,106.9,141.2,108.2,141.2,109.8z"/>
	<path class="st0" d="M302,181.3c0,1.6-1.3,2.8-2.9,2.8c-1.6,0-2.9-1.3-2.9-3c0-1.6,1.4-2.8,3-2.8
		C300.8,178.4,302.1,179.7,302,181.3z"/>
	<path class="st0" d="M123.3,109.7c0,1.6-1.2,2.9-2.8,2.9c-1.6,0-3-1.2-3-2.9c0-1.6,1.3-2.9,2.9-2.9
		C122,106.9,123.3,108.2,123.3,109.7z"/>
	<path class="st0" d="M102.6,112.7c-1.6,0-2.9-1.3-2.9-2.9c0-1.6,1.2-2.9,2.8-2.9c1.7,0,2.9,1.3,2.9,2.9
		C105.5,111.4,104.2,112.7,102.6,112.7z"/>
	<path class="st0" d="M337.8,181.3c0,1.6-1.2,2.9-2.8,2.9c-1.6,0-2.9-1.3-2.9-2.9c0-1.6,1.3-2.8,2.9-2.8
		C336.5,178.4,337.8,179.7,337.8,181.3z"/>
	<path class="st0" d="M87.6,109.8c0,1.6-1.3,2.8-2.9,2.9c-1.6,0-2.9-1.3-2.9-3c0-1.6,1.3-2.8,2.9-2.8
		C86.4,107,87.6,108.2,87.6,109.8z"/>
	<path class="st0" d="M355.6,181.3c0,1.6-1.2,2.9-2.8,2.9c-1.6,0-2.9-1.3-2.9-2.9c0-1.6,1.3-2.8,2.9-2.8
		C354.4,178.4,355.6,179.7,355.6,181.3z"/>
	<path class="st0" d="M69.7,109.8c0,1.6-1.2,2.9-2.8,2.9c-1.6,0-2.9-1.3-2.9-2.9c0-1.6,1.3-2.8,2.9-2.8
		C68.5,107,69.7,108.2,69.7,109.8z"/>
	<path class="st0" d="M370.7,184.2c-1.6,0-2.9-1.2-2.9-2.8c0-1.7,1.2-2.9,2.9-2.9c1.6,0,2.8,1.3,2.8,2.9
		C373.5,182.9,372.3,184.2,370.7,184.2z"/>
	<path class="st0" d="M49,112.7c-1.6,0-2.9-1.2-2.9-2.8c0-1.6,1.2-2.9,2.8-3c1.7,0,3,1.2,3,2.9C51.9,111.4,50.6,112.7,49,112.7z"/>
	<path class="st0" d="M388.5,178.4c1.6,0,2.9,1.2,2.9,2.8c0,1.6-1.2,2.9-2.8,2.9c-1.7,0-3-1.2-3-2.9
		C385.6,179.7,386.9,178.4,388.5,178.4z"/>
	<path class="st0" d="M31.1,112.7c-1.6,0-2.9-1.3-2.9-2.9c0-1.6,1.2-2.9,2.8-2.9c1.7,0,3,1.3,2.9,2.9
		C34,111.4,32.7,112.7,31.1,112.7z"/>
	<path class="st0" d="M403.5,181.3c0-1.6,1.2-2.9,2.8-2.9c1.6,0,2.9,1.2,2.9,2.8c0,1.7-1.2,3-2.9,3
		C404.7,184.2,403.5,182.9,403.5,181.3z"/>
	<path class="st0" d="M16.1,109.8c0,1.6-1.3,2.8-2.9,2.9c-1.7,0-2.9-1.3-2.9-3c0-1.6,1.3-2.8,2.9-2.8
		C14.9,107,16.1,108.2,16.1,109.8z"/>
	<path class="st0" d="M102.5,202c-1.6,0-2.8-1.3-2.8-2.9c0-1.6,1.3-2.8,2.9-2.8c1.7,0,2.9,1.3,2.9,3
		C105.4,200.8,104.1,202.1,102.5,202z"/>
	<path class="st0" d="M266.3,145.5c0,1.6-1.2,2.9-2.8,2.9c-1.6,0-2.9-1.3-2.9-2.9c0-1.6,1.3-2.8,2.9-2.8
		C265.1,142.7,266.3,143.9,266.3,145.5z"/>
	<path class="st0" d="M209.8,196.3c1.6,0,2.8,1.2,2.9,2.8c0.1,1.6-1.6,3.1-2.9,3c-1.6-0.1-2.8-1.3-2.9-2.9
		C206.9,197.6,208.2,196.3,209.8,196.3z"/>
	<path class="st0" d="M477.9,89.1c1.6,0,2.8,1.3,2.8,2.9c0,1.6-1.3,2.8-2.9,2.8c-1.7,0-2.9-1.3-2.9-3C475,90.2,476.3,89,477.9,89.1z
		"/>
	<path class="st0" d="M227.7,196.3c1.6,0,2.8,1.3,2.8,2.9c0,1.7-1.3,2.9-3,2.9c-1.6,0-2.8-1.3-2.8-2.9
		C224.8,197.5,226.1,196.3,227.7,196.3z"/>
	<path class="st0" d="M460,89.1c1.6,0,2.9,1.2,2.9,2.8c0,1.6-1.2,2.9-2.8,2.9c-1.7,0-3-1.2-3-2.9C457.1,90.3,458.4,89.1,460,89.1z"
		/>
	<path class="st0" d="M245.4,202c-1.5-0.1-2.7-1.4-2.7-3c0.1-1.6,1.4-2.8,3-2.7c1.6,0.1,2.8,1.4,2.7,3.1
		C248.3,200.9,247,202.1,245.4,202z"/>
	<path class="st0" d="M442.2,89.1c1.6,0,2.8,1.3,2.8,2.9c0,1.6-1.3,2.8-2.9,2.8c-1.7,0-2.9-1.3-2.9-3
		C439.3,90.2,440.6,89,442.2,89.1z"/>
	<path class="st0" d="M263.4,202c-1.6,0-2.8-1.3-2.8-2.9c0-1.6,1.3-2.9,2.9-2.9c1.7,0,2.9,1.3,2.9,3C266.3,200.8,265,202,263.4,202z
		"/>
	<path class="st0" d="M427.1,91.9c0,1.6-1.2,2.9-2.9,2.9c-1.7,0-2.9-1.3-2.9-3c0-1.6,1.3-2.8,2.9-2.8
		C425.9,89.1,427.1,90.3,427.1,91.9z"/>
	<path class="st0" d="M284.2,199.2c0,1.6-1.3,2.8-2.9,2.8c-1.6,0-2.9-1.3-2.9-3c0-1.6,1.4-2.8,3-2.8
		C283,196.3,284.2,197.6,284.2,199.2z"/>
	<path class="st0" d="M299.3,196.3c1.6,0,2.8,1.3,2.8,2.9c0,1.6-1.4,2.9-3,2.8c-1.6-0.1-2.8-1.4-2.7-3
		C296.3,197.5,297.7,196.2,299.3,196.3z"/>
	<path class="st0" d="M409.3,92c0,1.6-1.3,2.8-2.9,2.8c-1.7,0-2.9-1.3-2.9-3c0-1.6,1.3-2.8,2.9-2.8C408,89.1,409.3,90.4,409.3,92z"
		/>
	<path class="st0" d="M319.9,199.3c-0.1,1.6-1.3,2.8-3,2.8c-1.6,0-2.9-1.4-2.8-3.1c0.1-1.5,1.4-2.7,3-2.7
		C318.8,196.3,320,197.7,319.9,199.3z"/>
	<path class="st0" d="M355.6,199.1c0,1.6-1.2,2.9-2.8,2.9c-1.6,0-3-1.3-2.9-2.9c0-1.6,1.3-2.8,2.9-2.8
		C354.4,196.3,355.6,197.5,355.6,199.1z"/>
	<path class="st0" d="M391.4,199.1c0,1.6-1.2,2.9-2.8,2.9c-1.7,0-3-1.2-3-2.9c0-1.6,1.2-2.9,2.8-2.9
		C390.1,196.3,391.4,197.5,391.4,199.1z"/>
	<path class="st0" d="M391.4,91.9c0,1.6-1.2,2.9-2.8,2.9c-1.7,0-2.9-1.2-2.9-2.9c0-1.6,1.3-2.8,2.9-2.8
		C390.1,89.1,391.4,90.3,391.4,91.9z"/>
	<path class="st0" d="M370.7,89.1c1.6,0,2.8,1.3,2.8,2.9c0,1.6-1.2,2.9-2.8,2.9c-1.7,0-2.9-1.2-2.9-2.9
		C367.8,90.3,369,89.1,370.7,89.1z"/>
	<path class="st0" d="M352.8,89.1c1.6,0,2.9,1.2,2.9,2.8c0,1.7-1.3,2.9-2.9,2.9c-1.6,0-2.8-1.3-2.8-2.9
		C349.9,90.3,351.2,89.1,352.8,89.1z"/>
	<path class="st0" d="M334.9,89.1c1.6,0,2.9,1.2,2.9,2.8c0,1.7-1.2,3-2.9,3c-1.6,0-2.9-1.3-2.9-2.9C332,90.4,333.3,89.1,334.9,89.1z
		"/>
	<path class="st0" d="M317.1,94.8c-1.6,0-2.9-1.2-2.9-2.8c0-1.6,1.2-2.9,2.8-3c1.7,0,3,1.2,3,2.9C319.9,93.5,318.7,94.8,317.1,94.8z
		"/>
	<path class="st0" d="M284.2,92c0,1.6-1.2,2.9-2.9,2.9c-1.6,0-2.9-1.3-2.9-3c0-1.6,1.3-2.8,2.9-2.8C282.9,89.1,284.2,90.3,284.2,92z
		"/>
	<path class="st0" d="M263.4,94.8c-1.6,0-2.9-1.2-2.9-2.8c0-1.6,1.2-2.9,2.8-2.9c1.7,0,3,1.2,3,2.9C266.3,93.6,265,94.8,263.4,94.8z
		"/>
	<path class="st0" d="M194.8,92c0,1.6-1.3,2.8-2.9,2.8c-1.6,0-2.9-1.3-2.9-3c0-1.6,1.3-2.8,2.9-2.8C193.6,89.1,194.8,90.4,194.8,92z
		"/>
	<path class="st0" d="M177,91.9c0,1.6-1.2,2.9-2.9,2.9c-1.6,0-2.9-1.3-2.9-3c0-1.6,1.3-2.8,2.9-2.8C175.7,89.1,177,90.3,177,91.9z"
		/>
	<path class="st0" d="M120.5,94.8c-1.6,0-2.9-1.2-2.9-2.8c0-1.6,1.2-2.9,2.8-3c1.7,0,3,1.2,3,2.9C123.3,93.5,122.1,94.8,120.5,94.8z
		"/>
	<path class="st0" d="M120.5,219.9c-1.6,0-2.9-1.2-2.9-2.8c0-1.6,1.2-2.9,2.8-2.9c1.7,0,3,1.2,2.9,2.9
		C123.3,218.6,122.1,219.9,120.5,219.9z"/>
	<path class="st0" d="M138.4,214.2c1.6,0,2.8,1.3,2.8,2.9c0,1.7-1.3,2.9-3,2.9c-1.6,0-2.8-1.3-2.8-2.9
		C135.5,215.4,136.8,214.1,138.4,214.2z"/>
	<path class="st0" d="M102.5,94.8c-1.6,0-2.8-1.3-2.8-2.9c0-1.6,1.3-2.9,2.9-2.8c1.7,0,2.9,1.3,2.9,3
		C105.4,93.6,104.1,94.8,102.5,94.8z"/>
	<path class="st0" d="M159.1,217c0,1.6-1.2,2.9-2.8,2.9c-1.7,0-3-1.2-3-2.9c0-1.6,1.3-2.9,2.9-2.9
		C157.8,214.1,159.1,215.4,159.1,217z"/>
	<path class="st0" d="M209.8,219.9c-1.6,0-2.8-1.3-2.8-2.9c0-1.6,1.3-2.9,2.8-2.9c1.7,0,2.9,1.3,2.9,2.9
		C212.7,218.7,211.4,219.9,209.8,219.9z"/>
	<path class="st0" d="M87.6,91.9c0,1.6-1.2,2.9-2.8,2.9c-1.6,0-2.9-1.2-2.9-2.9c0-1.6,1.3-2.9,2.9-2.8
		C86.3,89.1,87.6,90.3,87.6,91.9z"/>
	<path class="st0" d="M227.7,214.2c1.6,0,2.9,1.3,2.9,2.8c0,1.7-1.3,2.9-2.9,2.9c-1.6,0-2.8-1.3-2.8-2.9
		C224.8,215.4,226.1,214.1,227.7,214.2z"/>
	<path class="st0" d="M69.7,92c0,1.6-1.3,2.8-2.9,2.9c-1.6,0-2.9-1.3-2.9-3c0-1.6,1.3-2.8,2.9-2.8C68.5,89.1,69.7,90.4,69.7,92z"/>
	<path class="st0" d="M248.4,216.9c0,1.6-1.2,2.9-2.8,3c-1.7,0-3-1.2-3-2.9c0-1.6,1.2-2.9,2.8-2.9
		C247.1,214.1,248.4,215.4,248.4,216.9z"/>
	<path class="st0" d="M51.9,91.9c0,1.6-1.2,2.9-2.8,2.9c-1.6,0-2.9-1.3-2.9-2.9c0-1.6,1.3-2.8,2.9-2.8
		C50.6,89.1,51.9,90.3,51.9,91.9z"/>
	<path class="st0" d="M266.3,217.1c-0.1,1.6-1.3,2.8-3,2.8c-1.6,0-2.9-1.4-2.8-3.1c0.1-1.5,1.4-2.7,3-2.7
		C265.2,214.2,266.4,215.5,266.3,217.1z"/>
	<path class="st0" d="M28.2,91.8c0.1-1.6,1.4-2.8,3-2.7c1.6,0.1,2.8,1.4,2.7,3c0,1.6-1.4,2.9-3.1,2.8C29.4,94.7,28.2,93.4,28.2,91.8
		z"/>
	<path class="st0" d="M278.4,216.9c0-1.6,1.3-2.8,2.9-2.8c1.6,0,2.8,1.3,2.8,2.9c0,1.7-1.3,2.9-3,2.9
		C279.6,219.9,278.4,218.5,278.4,216.9z"/>
	<path class="st0" d="M16.1,92c0,1.6-1.3,2.8-2.9,2.8c-1.7,0-2.9-1.3-2.9-3c0-1.6,1.3-2.8,2.9-2.8C14.9,89.1,16.1,90.4,16.1,92z"/>
	<path class="st0" d="M302,217c0,1.6-1.2,2.9-2.8,2.9c-1.7,0-3-1.2-3-2.9c0-1.6,1.2-2.9,2.8-2.9C300.7,214.1,302,215.4,302,217z"/>
	<path class="st0" d="M427.1,217.1c0,1.6-1.3,2.8-2.9,2.8c-1.7,0-2.9-1.3-2.9-3c0-1.6,1.3-2.8,3-2.8
		C425.9,214.2,427.1,215.5,427.1,217.1z"/>
	<path class="st0" d="M337.8,127.7c0,1.6-1.2,2.9-2.8,2.9c-1.6,0-2.9-1.3-2.9-2.9c0-1.6,1.3-2.8,2.9-2.8
		C336.5,124.8,337.8,126.1,337.8,127.7z"/>
	<path class="st0" d="M317,130.6c-1.6,0-2.8-1.3-2.8-2.9c0-1.6,1.3-2.9,2.8-2.9c1.7,0,2.9,1.3,2.9,2.9
		C319.9,129.3,318.6,130.6,317,130.6z"/>
	<path class="st0" d="M299.2,130.6c-1.6,0-2.9-1.3-2.9-2.9c0-1.6,1.2-2.9,2.8-2.9c1.7,0,2.9,1.2,2.9,2.9
		C302,129.3,300.8,130.6,299.2,130.6z"/>
	<path class="st0" d="M281.3,130.6c-1.6,0-2.9-1.3-2.9-2.8c0-1.6,1.2-2.9,2.8-2.9c1.7,0,3,1.2,2.9,2.9
		C284.2,129.3,282.9,130.5,281.3,130.6z"/>
	<path class="st0" d="M227.7,130.6c-1.6,0-2.9-1.3-2.9-2.8c0-1.6,1.2-2.9,2.8-2.9c1.7,0,3,1.2,2.9,2.9
		C230.5,129.3,229.3,130.6,227.7,130.6z"/>
	<path class="st0" d="M141.2,127.7c0,1.6-1.3,2.8-2.9,2.8c-1.6,0-2.9-1.3-2.9-3c0-1.6,1.3-2.8,2.9-2.8
		C140,124.8,141.2,126.1,141.2,127.7z"/>
	<path class="st0" d="M442.1,71.2c1.6,0,2.9,1.2,2.9,2.8c0,1.6-1.2,2.9-2.8,3c-1.7,0-3-1.2-3-2.9C439.2,72.5,440.5,71.2,442.1,71.2z
		"/>
	<path class="st0" d="M123.3,127.7c0,1.6-1.2,2.9-2.8,2.9c-1.6,0-2.9-1.3-2.9-2.9c0-1.6,1.3-2.8,2.9-2.8
		C122.1,124.8,123.3,126.1,123.3,127.7z"/>
	<path class="st0" d="M427.1,74c0,1.6-1.2,2.9-2.8,2.9c-1.7,0-3-1.2-3-2.9c0-1.6,1.2-2.9,2.8-2.9C425.8,71.2,427.1,72.4,427.1,74z"
		/>
	<path class="st0" d="M87.6,127.7c0,1.6-1.3,2.8-2.9,2.9c-1.6,0-2.9-1.3-2.9-3c0-1.6,1.3-2.8,2.9-2.8
		C86.4,124.8,87.6,126.1,87.6,127.7z"/>
	<path class="st0" d="M409.3,74c0,1.6-1.2,2.9-2.8,2.9c-1.7,0-2.9-1.2-2.9-2.9c0-1.6,1.3-2.8,2.9-2.8C408,71.2,409.2,72.4,409.3,74z
		"/>
	<path class="st0" d="M69.7,127.7c0,1.6-1.3,2.8-2.9,2.8c-1.6,0-2.9-1.3-2.9-3c0-1.6,1.4-2.8,3-2.8
		C68.5,124.8,69.8,126.1,69.7,127.7z"/>
	<path class="st0" d="M391.4,74.1c0,1.6-1.2,2.9-2.8,2.9c-1.7,0-2.9-1.2-2.9-2.9c0-1.6,1.3-2.8,2.9-2.8
		C390.1,71.2,391.4,72.5,391.4,74.1z"/>
	<path class="st0" d="M370.6,71.2c1.6,0,2.9,1.2,2.9,2.8c0,1.6-1.2,2.9-2.8,3c-1.7,0-3-1.2-3-2.9C367.8,72.5,369,71.2,370.6,71.2z"
		/>
	<path class="st0" d="M355.6,74c0,1.6-1.2,2.9-2.8,2.9c-1.6,0-3-1.3-2.9-2.9c0-1.6,1.3-2.9,2.9-2.9C354.4,71.2,355.6,72.4,355.6,74z
		"/>
	<path class="st0" d="M317,71.2c1.6,0,2.9,1.2,2.9,2.8c0,1.7-1.3,2.9-2.9,2.9c-1.6,0-2.8-1.3-2.8-2.9
		C314.2,72.5,315.4,71.2,317,71.2z"/>
	<path class="st0" d="M191.9,71.2c1.6,0,2.9,1.2,2.9,2.8c0,1.7-1.2,3-2.9,2.9c-1.6,0-2.8-1.3-2.9-2.9
		C189.1,72.5,190.3,71.2,191.9,71.2z"/>
	<path class="st0" d="M120.6,232c1.6,0,2.8,1.4,2.8,2.9c0,1.6-1.4,2.9-3,2.8c-1.5-0.1-2.8-1.4-2.7-3C117.6,233.2,119,232,120.6,232z
		"/>
	<path class="st0" d="M281.2,148.4c-1.6,0-2.8-1.3-2.8-2.9c0-1.6,1.3-2.9,2.9-2.9c1.7,0,2.9,1.3,2.9,3
		C284.1,147.2,282.9,148.4,281.2,148.4z"/>
	<path class="st0" d="M141.2,234.8c0,1.6-1.2,2.9-2.8,2.9c-1.6,0-3-1.2-3-2.9c0-1.6,1.2-2.9,2.8-2.9
		C139.9,232,141.2,233.2,141.2,234.8z"/>
	<path class="st0" d="M174.1,76.9c-1.6,0-2.9-1.2-2.9-2.8c0-1.6,1.2-2.9,2.8-3c1.7,0,3,1.2,3,2.9C177,75.7,175.7,76.9,174.1,76.9z"
		/>
	<path class="st0" d="M156.3,232c1.6,0,2.8,1.3,2.8,2.9c0,1.6-1.4,2.9-3,2.8c-1.6-0.1-2.8-1.4-2.7-3
		C153.4,233.2,154.7,232,156.3,232z"/>
	<path class="st0" d="M156.2,71.2c1.6,0,2.9,1.2,2.9,2.8c0,1.7-1.3,2.9-2.9,2.9c-1.6,0-2.8-1.3-2.8-2.9
		C153.3,72.5,154.6,71.2,156.2,71.2z"/>
	<path class="st0" d="M174,237.8c-1.6,0-2.8-1.3-2.8-2.9c0-1.6,1.3-2.9,2.9-2.9c1.7,0,2.9,1.3,2.9,2.9
		C176.9,236.6,175.6,237.8,174,237.8z"/>
	<path class="st0" d="M123.3,74c0,1.6-1.2,2.9-2.8,2.9c-1.6,0-3-1.2-3-2.9c0-1.6,1.3-2.9,2.9-2.9C122.1,71.2,123.3,72.4,123.3,74z"
		/>
	<path class="st0" d="M245.6,232c1.6,0,2.8,1.3,2.8,2.9c0,1.7-1.3,2.9-3,2.9c-1.6,0-2.8-1.4-2.8-3C242.7,233.2,244,232,245.6,232z"
		/>
	<path class="st0" d="M105.5,74.1c0,1.6-1.2,2.9-2.8,2.9c-1.6,0-2.9-1.3-2.9-2.9c0-1.6,1.3-2.8,2.9-2.8
		C104.2,71.2,105.5,72.5,105.5,74.1z"/>
	<path class="st0" d="M266.3,234.9c0,1.6-1.2,2.9-2.8,2.9c-1.6,0-2.9-1.3-2.9-2.9c0-1.6,1.3-2.8,2.9-2.8
		C265.1,232,266.3,233.3,266.3,234.9z"/>
	<path class="st0" d="M87.6,74c0,1.6-1.2,2.9-2.8,2.9c-1.6,0-2.9-1.2-2.9-2.9c0-1.6,1.3-2.9,2.9-2.8C86.3,71.2,87.6,72.4,87.6,74z"
		/>
	<path class="st0" d="M284.2,234.9c0,1.6-1.2,2.9-2.8,2.9c-1.6,0-2.9-1.3-2.9-2.9c0-1.6,1.3-2.8,2.9-2.8
		C282.9,232,284.2,233.3,284.2,234.9z"/>
	<path class="st0" d="M69.7,74.1c0,1.6-1.3,2.9-2.9,2.9c-1.6,0-2.9-1.3-2.9-3c0-1.6,1.3-2.8,2.9-2.8C68.5,71.2,69.7,72.5,69.7,74.1z
		"/>
	<path class="st0" d="M406.4,237.8c-1.6,0-2.8-1.2-2.9-2.9c0-1.7,1.3-2.9,3-2.9c1.6,0,2.8,1.3,2.8,2.9
		C409.2,236.5,408,237.8,406.4,237.8z"/>
	<path class="st0" d="M459.9,237.8c-1.6,0-2.8-1.3-2.8-2.9c0-1.6,1.3-2.9,3-2.8c1.6,0.1,2.8,1.4,2.7,3
		C462.8,236.6,461.5,237.8,459.9,237.8z"/>
	<path class="st0" d="M48.9,124.8c1.6,0,2.9,1.2,2.9,2.8c0,1.7-1.2,3-2.9,3c-1.6,0-2.9-1.3-2.9-2.8
		C46.1,126.1,47.3,124.8,48.9,124.8z"/>
	<path class="st0" d="M13.2,124.8c1.6,0,2.9,1.3,2.9,2.8c0,1.7-1.3,2.9-2.9,2.9c-1.6,0-2.8-1.3-2.8-2.9
		C10.4,126,11.6,124.8,13.2,124.8z"/>
	<path class="st0" d="M66.8,160.5c1.6,0,2.9,1.2,2.9,2.8c0,1.7-1.3,2.9-2.9,2.9c-1.6,0-2.8-1.3-2.8-2.9
		C64,161.8,65.3,160.5,66.8,160.5z"/>
	<path class="st0" d="M299.1,142.7c1.6,0,2.9,1.2,2.9,2.8c0,1.7-1.2,3-2.9,3c-1.6,0-2.9-1.3-2.9-2.9
		C296.3,144,297.5,142.7,299.1,142.7z"/>
	<path class="st0" d="M120.4,148.4c-1.6,0-2.8-1.3-2.9-2.9c0-1.6,1.2-2.9,2.8-2.9c1.7,0,2.9,1.3,2.9,2.9
		C123.3,147.2,122.1,148.4,120.4,148.4z"/>
	<path class="st0" d="M189.1,65.1c0-1.5,1.3-2.9,2.8-2.9c1.5,0,2.9,1.3,2.9,2.8c0,1.6-1.4,3-2.9,3C190.4,68,189.1,66.7,189.1,65.1z"
		/>
	<path class="st0" d="M84.8,160.5c1.6,0,2.8,1.3,2.8,2.9c0,1.7-1.3,2.9-3,2.9c-1.6,0-2.8-1.3-2.8-2.9
		C81.9,161.8,83.2,160.5,84.8,160.5z"/>
	<path class="st0" d="M105.5,145.5c0,1.6-1.2,2.9-2.8,2.9c-1.6,0-2.9-1.3-2.9-2.9c0-1.6,1.3-2.8,2.9-2.8
		C104.2,142.7,105.5,144,105.5,145.5z"/>
	<path class="st0" d="M105.5,163.5c0,1.6-1.3,2.8-2.9,2.8c-1.6,0-2.9-1.3-2.9-3c0-1.6,1.4-2.8,3-2.8
		C104.3,160.6,105.5,161.9,105.5,163.5z"/>
	<path class="st0" d="M141.2,145.5c0,1.6-1.2,2.9-2.8,2.9c-1.6,0-3-1.2-3-2.9c0-1.6,1.3-2.9,2.9-2.9
		C139.9,142.7,141.2,143.9,141.2,145.5z"/>
	<path class="st0" d="M120.4,160.5c1.6,0,2.9,1.2,2.9,2.8c0,1.7-1.2,3-2.9,3c-1.6,0-2.9-1.3-2.9-2.8
		C117.6,161.9,118.8,160.6,120.4,160.5z"/>
	<path class="st0" d="M171.2,65.1c0-1.5,1.4-2.9,2.9-2.9c1.5,0,2.9,1.3,2.9,2.9c0,1.6-1.4,3-2.9,3C172.5,68,171.2,66.6,171.2,65.1z"
		/>
	<path class="st0" d="M227.7,160.5c1.6,0,2.9,1.2,2.9,2.8c0,1.7-1.2,2.9-2.9,2.9c-1.6,0-2.8-1.3-2.8-2.9
		C224.8,161.8,226.1,160.5,227.7,160.5z"/>
	<path class="st0" d="M159.1,65.1c0,1.5-1.4,2.9-2.9,2.9c-1.6,0-2.9-1.4-2.9-3c0-1.5,1.4-2.9,2.9-2.8
		C157.8,62.2,159.1,63.6,159.1,65.1z"/>
	<path class="st0" d="M123.3,65c0,1.6-1.4,3-2.9,3c-1.5,0-2.8-1.4-2.8-2.9c0-1.5,1.3-2.9,2.9-2.9C122,62.2,123.3,63.5,123.3,65z"/>
	<path class="st0" d="M105.5,65c0,1.6-1.3,3-2.9,3c-1.5,0-2.8-1.4-2.9-2.9c0-1.5,1.3-2.9,2.8-2.9C104.1,62.2,105.5,63.5,105.5,65z"
		/>
	<path class="st0" d="M319.9,145.6c0,1.6-1.3,2.8-2.9,2.9c-1.6,0-2.9-1.3-2.9-3c0-1.6,1.3-2.8,2.9-2.8
		C318.7,142.7,319.9,144,319.9,145.6z"/>
	<path class="st0" d="M141.2,252.7c0,1.6-1.2,2.9-2.8,2.9c-1.6,0-2.9-1.3-2.9-2.9c0-1.6,1.3-2.8,2.9-2.8
		C139.9,249.9,141.2,251.1,141.2,252.7z"/>
	<path class="st0" d="M87.6,65.1c0,1.5-1.3,2.9-2.8,3c-1.5,0-2.9-1.4-2.9-3c0-1.5,1.4-2.9,2.9-2.9C86.3,62.2,87.6,63.5,87.6,65.1z"
		/>
	<path class="st0" d="M159.1,252.7c0,1.6-1.2,2.9-2.8,2.9c-1.6,0-2.9-1.3-2.9-2.9c0-1.6,1.3-2.8,2.9-2.8
		C157.8,249.9,159.1,251.1,159.1,252.7z"/>
	<path class="st0" d="M69.7,65.1c0.2,1.3-1.2,3-2.9,3c-1.5,0-2.8-1.4-2.8-2.9c0-1.5,1.3-2.9,2.9-2.9C68.4,62.2,69.7,63.5,69.7,65.1z
		"/>
	<path class="st0" d="M177,252.7c0,1.6-1.2,2.9-2.8,2.9c-1.6,0-2.9-1.3-2.9-2.9c0-1.6,1.3-2.8,2.9-2.8
		C175.7,249.9,176.9,251.1,177,252.7z"/>
	<path class="st0" d="M281.3,160.5c1.6,0,2.9,1.2,2.9,2.8c0,1.7-1.2,3-2.9,2.9c-1.6,0-2.8-1.3-2.9-2.9
		C278.4,161.8,279.7,160.6,281.3,160.5z"/>
	<path class="st0" d="M263.3,255.6c-1.6,0-2.8-1.3-2.8-3c0-1.6,1.3-2.8,2.9-2.8c1.6,0,2.9,1.3,2.8,3
		C266.2,254.5,264.9,255.7,263.3,255.6z"/>
	<path class="st0" d="M194.8,56.1c0,1.6-1.2,2.9-2.8,2.9c-1.6,0-3-1.2-3-2.9c0-1.6,1.3-2.9,2.9-2.9
		C193.5,53.3,194.8,54.5,194.8,56.1z"/>
	<path class="st0" d="M281.3,249.9c1.6,0,2.9,1.3,2.8,2.9c0,1.7-1.3,2.9-3,2.9c-1.6,0-2.8-1.3-2.8-2.9
		C278.4,251.1,279.7,249.9,281.3,249.9z"/>
	<path class="st0" d="M174.1,53.3c1.6,0,2.8,1.3,2.8,2.9c0,1.7-1.3,2.9-3,2.9c-1.6,0-2.8-1.3-2.8-2.9
		C171.2,54.6,172.5,53.3,174.1,53.3z"/>
	<path class="st0" d="M427.1,252.8c0,1.6-1.2,2.9-2.8,2.9c-1.7,0-2.9-1.2-2.9-2.9c0-1.6,1.3-2.8,2.9-2.8
		C425.9,249.9,427.1,251.1,427.1,252.8z"/>
	<path class="st0" d="M156.2,53.3c1.6,0,2.8,1.3,2.8,2.9c0,1.7-1.3,2.9-3,2.9c-1.6,0-2.8-1.3-2.8-2.9
		C153.4,54.6,154.6,53.3,156.2,53.3z"/>
	<path class="st0" d="M445,252.7c0,1.6-1.2,2.9-2.8,2.9c-1.7,0-3-1.2-3-2.9c0-1.6,1.2-2.8,2.9-2.9C443.7,249.9,445,251.1,445,252.7z
		"/>
	<path class="st0" d="M141.2,56.2c0,1.6-1.2,2.9-2.8,2.9c-1.6,0-2.9-1.3-2.9-2.9c0-1.6,1.3-2.8,2.9-2.8
		C140,53.3,141.2,54.6,141.2,56.2z"/>
	<path class="st0" d="M462.9,252.7c0,1.6-1.2,2.9-2.8,2.9c-1.7,0-2.9-1.2-2.9-2.9c0-1.6,1.2-2.8,2.9-2.8
		C461.6,249.9,462.9,251.1,462.9,252.7z"/>
	<path class="st0" d="M120.5,59.1c-1.6,0-2.8-1.3-2.9-2.9c0-1.6,1.2-2.9,2.8-2.9c1.7,0,2.9,1.3,2.9,2.9
		C123.3,57.8,122.1,59.1,120.5,59.1z"/>
	<path class="st0" d="M302,163.3c0,1.6-1.2,2.9-2.8,2.9c-1.7,0-3-1.2-3-2.9c0-1.6,1.2-2.9,2.8-2.9C300.8,160.5,302,161.8,302,163.3z
		"/>
	<path class="st0" d="M319.9,163.4c0,1.6-1.2,2.9-2.8,2.9c-1.6,0-3-1.2-3-2.9c0-1.6,1.3-2.9,2.9-2.9
		C318.6,160.5,319.9,161.8,319.9,163.4z"/>
	<path class="st0" d="M334.9,166.3c-1.6,0-2.9-1.3-2.9-2.8c0-1.6,1.2-2.9,2.8-2.9c1.7,0,3,1.2,2.9,2.9
		C337.8,165.1,336.5,166.3,334.9,166.3z"/>
	<path class="st0" d="M334.9,142.7c1.6,0,2.9,1.2,2.9,2.8c0,1.7-1.2,3-2.9,2.9c-1.6,0-2.8-1.3-2.9-2.9
		C332,144,333.3,142.7,334.9,142.7z"/>
	<path class="st0" d="M355.6,163.4c0,1.6-1.2,2.9-2.8,2.9c-1.6,0-3-1.2-3-2.9c0-1.6,1.3-2.8,2.9-2.9
		C354.4,160.5,355.6,161.8,355.6,163.4z"/>
	<path class="st0" d="M370.7,160.5c1.6,0,2.8,1.3,2.8,2.9c0,1.6-1.3,2.9-2.9,2.9c-1.7,0-2.9-1.3-2.9-3
		C367.8,161.7,369.1,160.5,370.7,160.5z"/>
	<path class="st0" d="M391.4,163.4c0,1.6-1.2,2.9-2.8,2.9c-1.7,0-3-1.2-2.9-2.9c0-1.6,1.2-2.8,2.9-2.8
		C390.1,160.5,391.4,161.8,391.4,163.4z"/>
	<path class="st0" d="M355.6,145.6c0,1.6-1.2,2.9-2.8,2.9c-1.6,0-2.9-1.3-2.9-3c0-1.6,1.3-2.8,2.9-2.8
		C354.4,142.7,355.7,143.9,355.6,145.6z"/>
	<path class="st0" d="M87.6,145.6c0,1.6-1.3,2.8-2.9,2.8c-1.6,0-2.9-1.3-2.9-3c0-1.6,1.4-2.8,2.9-2.8
		C86.4,142.7,87.6,144,87.6,145.6z"/>
	<path class="st0" d="M105.5,56.2c0,1.6-1.2,2.9-2.8,2.9c-1.6,0-2.9-1.3-2.9-2.9c0-1.6,1.3-2.8,2.9-2.8
		C104.2,53.3,105.5,54.6,105.5,56.2z"/>
	<path class="st0" d="M194.8,47.2c0,1.5-1.3,2.9-2.8,2.9c-1.6,0-2.9-1.4-2.9-3c0-1.5,1.4-2.9,2.9-2.8
		C193.5,44.3,194.8,45.7,194.8,47.2z"/>
	<path class="st0" d="M177,47.2c0,1.5-1.3,2.9-2.8,3c-1.5,0.1-2.9-1.4-2.9-3c0-1.5,1.4-2.9,2.9-2.9C175.6,44.3,176.9,45.7,177,47.2z
		"/>
	<path class="st0" d="M159.1,47.2c0,1.5-1.3,2.9-2.8,3c-1.6,0-2.9-1.4-2.9-3c0-1.5,1.4-2.9,2.9-2.9
		C157.8,44.3,159.1,45.7,159.1,47.2z"/>
	<path class="st0" d="M123.3,47.2c0.2,1.2-1.2,3-2.9,3c-1.5,0-2.8-1.4-2.8-3c0-1.5,1.4-2.9,2.9-2.9C122,44.3,123.3,45.7,123.3,47.2z
		"/>
	<path class="st0" d="M192,35.5c1.6,0,2.9,1.3,2.9,2.9c0,1.7-1.3,2.9-3,2.9c-1.6,0-2.8-1.3-2.8-2.9C189.1,36.7,190.4,35.4,192,35.5z
		"/>
	<path class="st0" d="M177,38.3c0,1.6-1.2,2.9-2.8,2.9c-1.7,0-3-1.3-2.9-2.9c0-1.6,1.3-2.9,2.9-2.8C175.7,35.5,176.9,36.7,177,38.3z
		"/>
	<path class="st0" d="M156.2,35.5c1.6,0,2.8,1.3,2.8,2.9c0,1.7-1.3,2.9-3,2.9c-1.6,0-2.8-1.3-2.8-2.9
		C153.4,36.7,154.6,35.4,156.2,35.5z"/>
	<path class="st0" d="M138.4,267.8c1.6,0,2.8,1.3,2.8,2.9c0,1.7-1.3,2.9-3,2.9c-1.6,0-2.8-1.3-2.8-2.9
		C135.5,269,136.8,267.7,138.4,267.8z"/>
	<path class="st0" d="M159.1,270.6c0,1.6-1.2,2.9-2.8,2.9c-1.6,0-3-1.2-3-2.9c0-1.6,1.3-2.9,2.9-2.9
		C157.8,267.8,159.1,269,159.1,270.6z"/>
	<path class="st0" d="M409.3,163.4c0,1.6-1.3,2.9-2.9,2.9c-1.7,0-2.9-1.3-2.9-3c0-1.6,1.3-2.8,2.9-2.8
		C408,160.6,409.3,161.8,409.3,163.4z"/>
	<path class="st0" d="M373.5,145.5c0,1.6-1.2,2.9-2.8,2.9c-1.7,0-3-1.2-3-2.9c0-1.6,1.2-2.8,2.9-2.9
		C372.2,142.7,373.5,143.9,373.5,145.5z"/>
	<path class="st0" d="M266.3,270.6c0,1.6-1.2,2.9-2.8,2.9c-1.6,0-2.9-1.3-2.9-2.9c0-1.6,1.3-2.8,2.9-2.8
		C265.1,267.8,266.3,269,266.3,270.6z"/>
	<path class="st0" d="M427.1,163.4c0,1.6-1.2,2.9-2.8,2.9c-1.7,0-2.9-1.2-2.9-2.9c0-1.6,1.3-2.8,2.9-2.8
		C425.9,160.5,427.1,161.8,427.1,163.4z"/>
	<path class="st0" d="M391.4,145.5c0,1.6-1.2,2.9-2.8,2.9c-1.7,0-2.9-1.2-2.9-2.9c0-1.6,1.2-2.8,2.9-2.8
		C390.1,142.7,391.4,143.9,391.4,145.5z"/>
	<path class="st0" d="M406.4,273.5c-1.6,0-2.9-1.2-2.9-2.8c0-1.7,1.2-3,2.9-3c1.6,0,2.9,1.2,2.9,2.8
		C409.3,272.2,408,273.5,406.4,273.5z"/>
	<path class="st0" d="M388.5,53.3c1.6,0,2.9,1.2,2.9,2.8c0,1.6-1.2,2.9-2.8,2.9c-1.7,0-3-1.2-3-2.9
		C385.6,54.6,386.9,53.3,388.5,53.3z"/>
	<path class="st0" d="M427.1,270.6c0,1.6-1.3,2.9-2.9,2.9c-1.7,0-2.9-1.3-2.9-3c0-1.6,1.3-2.8,2.9-2.8
		C425.9,267.8,427.1,269,427.1,270.6z"/>
	<path class="st0" d="M406.4,142.7c1.6,0,2.9,1.2,2.9,2.8c0,1.6-1.2,2.9-2.8,2.9c-1.7,0-3-1.2-3-2.9
		C403.5,143.9,404.7,142.7,406.4,142.7z"/>
	<path class="st0" d="M442.1,273.5c-1.6,0-2.8-1.2-2.9-2.9c0-1.7,1.3-2.9,3-2.9c1.6,0,2.8,1.3,2.8,2.9
		C445,272.3,443.7,273.5,442.1,273.5z"/>
	<path class="st0" d="M480.7,109.8c0,1.6-1.2,2.9-2.8,2.9c-1.7,0-3-1.2-3-2.9c0-1.6,1.2-2.9,2.9-2.9
		C479.4,106.9,480.7,108.2,480.7,109.8z"/>
	<path class="st0" d="M462.9,270.6c0,1.6-1.2,2.9-2.9,2.9c-1.7,0-2.9-1.3-2.9-3c0-1.6,1.3-2.8,2.9-2.8
		C461.6,267.8,462.9,269,462.9,270.6z"/>
	<path class="st0" d="M427.1,145.5c0,1.6-1.2,2.9-2.8,2.9c-1.7,0-2.9-1.2-2.9-2.9c0-1.6,1.2-2.8,2.9-2.8
		C425.9,142.7,427.1,143.9,427.1,145.5z"/>
	<path class="st0" d="M460,112.7c-1.6,0-2.9-1.2-2.9-2.8c0-1.7,1.2-3,2.9-2.9c1.6,0,2.9,1.3,2.9,2.9
		C462.9,111.4,461.6,112.7,460,112.7z"/>
	<path class="st0" d="M442.1,106.9c1.6,0,2.9,1.2,2.9,2.8c0,1.6-1.2,2.9-2.8,2.9c-1.7,0-2.9-1.2-2.9-2.9
		C439.3,108.2,440.5,106.9,442.1,106.9z"/>
	<path class="st0" d="M424.2,112.7c-1.6,0-2.9-1.2-2.9-2.9c0-1.7,1.3-2.9,2.9-2.9c1.6,0,2.8,1.3,2.8,2.9
		C427.1,111.5,425.8,112.7,424.2,112.7z"/>
	<path class="st0" d="M406.4,106.9c1.6,0,2.9,1.2,2.9,2.8c0,1.6-1.2,2.9-2.8,2.9c-1.7,0-3-1.2-3-2.9
		C403.5,108.2,404.7,106.9,406.4,106.9z"/>
	<path class="st0" d="M391.4,109.8c0,1.6-1.3,2.8-2.9,2.8c-1.7,0-2.9-1.3-2.9-3c0-1.6,1.3-2.8,2.9-2.8
		C390.2,107,391.4,108.2,391.4,109.8z"/>
	<path class="st0" d="M373.5,109.8c0,1.6-1.2,2.9-2.9,2.9c-1.7,0-2.9-1.3-2.9-2.9c0-1.6,1.3-2.8,2.9-2.8
		C372.3,106.9,373.5,108.2,373.5,109.8z"/>
	<path class="st0" d="M352.7,112.7c-1.6,0-2.8-1.3-2.8-2.9c0-1.6,1.3-2.9,2.8-2.9c1.7,0,2.9,1.3,2.9,2.9
		C355.6,111.5,354.3,112.7,352.7,112.7z"/>
	<path class="st0" d="M337.8,109.8c0,1.6-1.2,2.9-2.9,2.9c-1.6,0-2.9-1.3-2.9-3c0-1.6,1.3-2.8,2.9-2.8
		C336.5,107,337.8,108.2,337.8,109.8z"/>
	<path class="st0" d="M319.9,109.8c0,1.6-1.2,2.9-2.9,2.9c-1.6,0-2.9-1.3-2.9-3c0-1.6,1.3-2.8,2.9-2.8
		C318.7,107,319.9,108.2,319.9,109.8z"/>
	<path class="st0" d="M299.1,112.7c-1.6,0-2.8-1.3-2.8-2.9c0-1.6,1.3-2.9,2.9-2.9c1.7,0,2.9,1.3,2.9,3
		C302,111.5,300.7,112.7,299.1,112.7z"/>
	<path class="st0" d="M284.2,109.8c0,1.6-1.2,2.9-2.8,2.9c-1.6,0-2.9-1.3-2.9-2.9c0-1.6,1.3-2.8,2.9-2.8
		C282.9,106.9,284.2,108.2,284.2,109.8z"/>
	<path class="st0" d="M460,130.6c-1.6,0-2.9-1.2-2.9-2.8c0-1.7,1.2-2.9,2.9-2.9c1.6,0,2.8,1.3,2.8,2.9
		C462.9,129.3,461.6,130.6,460,130.6z"/>
	<path class="st0" d="M263.4,106.9c1.6,0,2.9,1.2,2.9,2.8c0,1.7-1.2,3-2.9,3c-1.6,0-2.9-1.3-2.9-2.8
		C260.5,108.2,261.8,107,263.4,106.9z"/>
	<path class="st0" d="M245.5,112.7c-1.6,0-2.8-1.3-2.8-2.9c0-1.6,1.3-2.9,2.9-2.9c1.7,0,2.9,1.3,2.9,3
		C248.4,111.5,247.1,112.7,245.5,112.7z"/>
	<path class="st0" d="M427.1,127.7c0,1.6-1.2,2.9-2.8,2.9c-1.7,0-2.9-1.3-2.9-2.9c0-1.6,1.3-2.8,2.9-2.8
		C425.9,124.8,427.1,126.1,427.1,127.7z"/>
	<path class="st0" d="M141.2,288.5c0,1.6-1.2,2.9-2.8,2.9c-1.6,0-2.9-1.3-2.9-3c0-1.6,1.3-2.8,2.9-2.8
		C140,285.6,141.2,286.9,141.2,288.5z"/>
	<path class="st0" d="M69.7,145.5c0,1.6-1.2,2.9-2.8,2.9c-1.6,0-2.9-1.3-2.9-2.9c0-1.6,1.3-2.8,2.9-2.8
		C68.5,142.7,69.7,143.9,69.7,145.5z"/>
	<path class="st0" d="M406.4,130.6c-1.6,0-2.9-1.2-2.9-2.8c0-1.7,1.2-2.9,2.9-2.9c1.6,0,2.8,1.3,2.8,2.9
		C409.2,129.3,408,130.6,406.4,130.6z"/>
	<path class="st0" d="M266.3,288.4c0,1.7-1.2,3-2.9,2.9c-1.6,0-2.8-1.3-2.8-2.9c0-1.6,1.3-2.9,2.8-2.9
		C265,285.6,266.3,286.8,266.3,288.4z"/>
	<path class="st0" d="M445,288.5c0,1.6-1.3,2.9-2.9,2.9c-1.7,0-2.9-1.3-2.9-3c0-1.6,1.3-2.8,2.9-2.8
		C443.8,285.6,445,286.9,445,288.5z"/>
	<path class="st0" d="M87.6,181.2c0,1.6-1.2,2.9-2.8,2.9c-1.6,0-2.9-1.3-2.9-2.9c0-1.6,1.3-2.8,2.9-2.8
		C86.3,178.4,87.6,179.7,87.6,181.2z"/>
	<path class="st0" d="M388.5,124.8c1.6,0,2.9,1.2,2.9,2.8c0,1.6-1.2,2.9-2.8,3c-1.7,0-3-1.2-3-2.9
		C385.6,126.1,386.9,124.8,388.5,124.8z"/>
	<path class="st0" d="M248.4,145.5c0,1.6-1.2,2.9-2.8,2.9c-1.7,0-3-1.2-3-2.9c0-1.6,1.2-2.9,2.8-2.9
		C247.1,142.7,248.4,143.9,248.4,145.5z"/>
	<path class="st0" d="M120.5,184.2c-1.6,0-2.9-1.2-2.9-2.8c0-1.6,1.2-2.9,2.8-2.9c1.7,0,3,1.2,2.9,2.9
		C123.3,182.9,122.1,184.2,120.5,184.2z"/>
	<path class="st0" d="M370.6,124.8c1.6,0,2.9,1.2,2.9,2.8c0,1.6-1.2,2.9-2.8,3c-1.7,0-3-1.2-3-2.9
		C367.8,126.1,369,124.8,370.6,124.8z"/>
	<path class="st0" d="M227.7,178.4c1.6,0,2.8,1.3,2.8,2.9c0,1.7-1.3,2.9-3,2.9c-1.6,0-2.8-1.4-2.8-3
		C224.8,179.6,226.1,178.4,227.7,178.4z"/>
	<path class="st0" d="M138.3,303.5c1.6,0,2.9,1.2,2.9,2.8c0,1.7-1.3,2.9-2.9,2.9c-1.6,0-2.8-1.3-2.8-2.9
		C135.5,304.8,136.7,303.5,138.3,303.5z"/>
	<path class="st0" d="M355.6,127.6c0,1.6-1.2,2.9-2.8,2.9c-1.6,0-3-1.3-2.9-2.9c0-1.6,1.3-2.8,2.9-2.8
		C354.4,124.8,355.6,126,355.6,127.6z"/>
	<path class="st0" d="M209.8,106.9c1.6,0,2.9,1.2,2.9,2.8c0,1.7-1.2,3-2.9,2.9c-1.6,0-2.8-1.3-2.9-2.9
		C206.9,108.2,208.2,106.9,209.8,106.9z"/>
	<path class="st0" d="M139.1,327.1c-0.5,0-1,0-1.5,0c-1.3-0.6-2.2-1.5-2.1-3.1c0.1-1.1,1.1-2.3,2.2-2.6c1.2-0.3,2.5,0.3,3.2,1.4
		c0.6,1,0.5,2.4-0.3,3.2C140.2,326.5,139.7,326.9,139.1,327.1z"/>
	<circle class="st0" cx="4.3" cy="100.9" r="2.9"/>
</g>
</svg>
