<?xml version="1.0" encoding="utf-8"?>
<!-- Generator: Adobe Illustrator 22.0.1, SVG Export Plug-In . SVG Version: 6.00 Build 0)  -->
<svg version="1.1" id="Layer_1" xmlns="http://www.w3.org/2000/svg" xmlns:xlink="http://www.w3.org/1999/xlink" x="0px" y="0px"
	 viewBox="0 0 220 150" style="enable-background:new 0 0 220 150;" xml:space="preserve">
<style type="text/css">
	.st0{fill:#FFFFFF;}
</style>
<g id="Hk_x5F_Logo_2_">
	<g>
		<path class="st0" d="M9.2,142.6h8.4V7.4H9.3c-1.4,0-2.5,1.1-2.5,2.5v130.2C6.8,141.5,7.9,142.6,9.2,142.6z"/>
		<polyline class="st0" points="189.6,7.4 177.1,7.4 137.6,80.1 137.6,7.4 126.8,7.4 126.8,100 116.8,118 116.8,95.6 116.8,95.6 
			116.8,85.6 116.8,85.6 116.8,7.4 106,7.4 106,7.4 105.9,7.4 105.9,74.7 96,74.7 85.1,74.7 38.3,74.7 38.3,7.4 27.4,7.4 27.4,85.6 
			105.9,85.6 105.9,95.6 27.4,95.6 27.4,142.4 38.3,142.4 38.3,106.4 85.1,106.4 96,106.4 105.9,106.4 105.9,142.6 115.9,142.6 
			115.9,142.6 116.8,142.6 		"/>
		<polygon class="st0" points="213.2,7.4 200.9,7.4 127.1,142.6 139.5,142.6 157.7,109 176.2,142.6 188.5,142.6 164,97.6 
			169.5,87.3 199.8,142.6 212.1,142.6 175.8,76 		"/>
	</g>
</g>
</svg>
