<?xml version="1.0" encoding="utf-8"?>
<!-- Generator: Adobe Illustrator 22.0.1, SVG Export Plug-In . SVG Version: 6.00 Build 0)  -->
<svg version="1.1" id="Layer_1" xmlns="http://www.w3.org/2000/svg" xmlns:xlink="http://www.w3.org/1999/xlink" x="0px" y="0px"
	 viewBox="0 0 100 100" style="enable-background:new 0 0 100 100;" xml:space="preserve">
<style type="text/css">
	.st0{fill:#272530;}
</style>
<g>
	<path class="st0" d="M89.5,0.7H10.5c-5.4,0-9.9,4.4-9.9,9.9v78.9c0,5.4,4.4,9.9,9.9,9.9h78.9c5.4,0,9.9-4.4,9.9-9.9V10.5
		C99.3,5.1,94.9,0.7,89.5,0.7L89.5,0.7z M50,30.3c10.9,0,19.7,8.9,19.7,19.7S60.9,69.7,50,69.7S30.3,60.9,30.3,50S39.1,30.3,50,30.3
		L50,30.3z M13,89.5c-1.5,0-2.5-1-2.5-2.5V45.1h10.4c-0.5,1.5-0.5,3.5-0.5,4.9c0,16.3,13.3,29.6,29.6,29.6S79.6,66.3,79.6,50
		c0-1.5,0-3.4-0.5-4.9h10.4V87c0,1.5-1,2.5-2.5,2.5H13z M89.5,22.9c0,1.5-1,2.5-2.5,2.5h-9.9c-1.5,0-2.5-1-2.5-2.5V13
		c0-1.5,1-2.5,2.5-2.5H87c1.5,0,2.5,1,2.5,2.5V22.9z M89.5,22.9"/>
</g>
</svg>
