<?xml version="1.0" encoding="utf-8"?>
<!-- Generator: Adobe Illustrator 22.0.1, SVG Export Plug-In . SVG Version: 6.00 Build 0)  -->
<svg version="1.1" id="Layer_1" xmlns="http://www.w3.org/2000/svg" xmlns:xlink="http://www.w3.org/1999/xlink" x="0px" y="0px"
	 viewBox="0 0 100 100" style="enable-background:new 0 0 100 100;" xml:space="preserve">
<style type="text/css">
	.st0{fill:#272530;}
</style>
<g>
	<path class="st0" d="M89.5,0.7H10.5c-5.4,0-9.9,4.4-9.9,9.9v78.9c0,5.4,4.4,9.9,9.9,9.9h78.9c5.4,0,9.9-4.4,9.9-9.9V10.5
		C99.3,5.1,94.9,0.7,89.5,0.7L89.5,0.7z M30.3,84.6H15.4V40.1h14.8V84.6z M22.9,31.7c-4.9,0-8.9-4-8.9-8.9c0-4.9,4-8.9,8.9-8.9
		c4.9,0,8.9,4,8.9,8.9C31.7,27.8,27.8,31.7,22.9,31.7L22.9,31.7z M84.6,84.6H69.7V58.4c0-3.9-3.4-7.4-7.4-7.4c-4,0-7.4,3.4-7.4,7.4
		v26.2H40.1V40.1h14.8V46c2.5-3.9,7.9-6.9,12.3-6.9c9.4,0,17.3,7.9,17.3,17.3V84.6z M84.6,84.6"/>
</g>
</svg>
